<svg width="25" height="25" viewBox="0 0 25 25" fill="none" xmlns="http://www.w3.org/2000/svg">
<g id="Icon">
<rect id="BASE" x="0.0507812" y="0.851562" width="24" height="24" rx="2.5" fill="#1F72CD"/>
<path id="AMEX" fill-rule="evenodd" clip-rule="evenodd" d="M4.37523 9.28125L2.1377 16.7147H4.81634L5.14841 15.5295H5.90746L6.23953 16.7147H9.18796V15.8101L9.45069 16.7147H10.9758L11.2386 15.791V16.7147H17.3705L18.1161 15.5603L18.8143 16.7147L21.9638 16.7243L19.7192 13.0187L21.9638 9.28125H18.8631L18.1373 10.4143L17.4611 9.28125H10.7904L10.2176 11.1999L9.63132 9.28125H6.95827V10.1551L6.66091 9.28125H4.37523ZM13.532 10.3368H17.0533L18.1303 12.0833L19.242 10.3368H20.319L18.6826 13.0177L20.319 15.6677H19.1931L18.1161 13.9009L16.9988 15.6677H13.532V10.3368ZM14.4016 12.4149V11.4412V11.4403H16.5988L17.5575 12.9975L16.5563 14.5632H14.4016V13.5002H16.3226V12.4149H14.4016ZM4.8935 10.3368H6.1992L7.68335 15.3775V10.3368H9.11369L10.26 13.9509L11.3165 10.3368H12.7397V15.6708H11.8737L11.8667 11.4911L10.6041 15.6708H9.82948L8.5599 11.4911V15.6708H6.77838L6.44064 14.475H4.61595L4.2789 15.6698H3.32439L4.8935 10.3368ZM4.92752 13.3695L5.52869 11.2393L6.12915 13.3695H4.92752Z" fill="white"/>
</g>
</svg>
