<svg width="18" height="16" viewBox="0 0 18 16" fill="none" xmlns="http://www.w3.org/2000/svg">
<g id="Maestro">
<path id="Left" d="M10.9047 7.76906C10.9047 11.8656 8.621 15.1866 5.80391 15.1866C2.98682 15.1866 0.703125 11.8656 0.703125 7.76906C0.703125 3.67249 2.98682 0.351562 5.80391 0.351562C8.621 0.351562 10.9047 3.67249 10.9047 7.76906Z" fill="#ED0006"/>
<path id="Right" d="M17.5219 7.76906C17.5219 11.8656 15.2382 15.1866 12.4211 15.1866C9.60401 15.1866 7.32031 11.8656 7.32031 7.76906C7.32031 3.67249 9.60401 0.351562 12.4211 0.351562C15.2382 0.351562 17.5219 3.67249 17.5219 7.76906Z" fill="#0099DF"/>
<path id="Middle" fill-rule="evenodd" clip-rule="evenodd" d="M9.11245 13.416C10.2092 12.0555 10.9046 10.0311 10.9046 7.77052C10.9046 5.50992 10.2092 3.48551 9.11245 2.125C8.01573 3.48551 7.32031 5.50992 7.32031 7.77052C7.32031 10.0311 8.01573 12.0555 9.11245 13.416Z" fill="#6C6BBD"/>
</g>
</svg>
