<svg width="18" height="16" viewBox="0 0 18 16" fill="none" xmlns="http://www.w3.org/2000/svg">
<g id="Mastercard">
<path id="Left" fill-rule="evenodd" clip-rule="evenodd" d="M9.27484 13.3973C8.35909 14.5017 7.1712 15.1684 5.87316 15.1684C2.97684 15.1684 0.628906 11.8489 0.628906 7.75414C0.628906 3.65934 2.97684 0.339844 5.87316 0.339844C7.1712 0.339844 8.3591 1.00658 9.27486 2.11104C10.1906 1.00659 11.3785 0.339859 12.6765 0.339859C15.5729 0.339859 17.9208 3.65935 17.9208 7.75416C17.9208 11.849 15.5729 15.1685 12.6765 15.1685C11.3785 15.1685 10.1906 14.5017 9.27484 13.3973Z" fill="#ED0006"/>
<path id="Right" fill-rule="evenodd" clip-rule="evenodd" d="M9.27441 13.3973C10.402 12.0373 11.117 10.0138 11.117 7.75414C11.117 5.49449 10.402 3.47093 9.27441 2.11102C10.1902 1.00657 11.3781 0.339844 12.6761 0.339844C15.5724 0.339844 17.9203 3.65934 17.9203 7.75414C17.9203 11.8489 15.5724 15.1684 12.6761 15.1684C11.3781 15.1684 10.1902 14.5017 9.27441 13.3973Z" fill="#F9A000"/>
<path id="Middle" fill-rule="evenodd" clip-rule="evenodd" d="M9.27517 13.3955C10.4027 12.0356 11.1177 10.0121 11.1177 7.75246C11.1177 5.49283 10.4027 3.46929 9.27517 2.10938C8.1476 3.46929 7.43262 5.49283 7.43262 7.75246C7.43262 10.0121 8.1476 12.0356 9.27517 13.3955Z" fill="#FF5E00"/>
</g>
</svg>
