<svg width="27" height="27" viewBox="0 0 27 27" fill="none" xmlns="http://www.w3.org/2000/svg">
<g id="package-delivered" clip-path="url(#clip0_786_99142)">
<path id="Vector" d="M19.0728 21.9512C18.9798 21.951 18.8899 21.9176 18.8193 21.8569C18.7488 21.7963 18.7022 21.7124 18.6881 21.6204C18.674 21.5285 18.6932 21.4345 18.7423 21.3554C18.7914 21.2764 18.8671 21.2175 18.9558 21.1894L20.3988 20.737C20.4482 20.7196 20.5006 20.7123 20.5528 20.7156C20.605 20.7189 20.6561 20.7326 20.7029 20.756C20.7497 20.7794 20.7913 20.812 20.8253 20.8518C20.8592 20.8916 20.8848 20.9379 20.9005 20.9878C20.9162 21.0377 20.9217 21.0903 20.9167 21.1424C20.9117 21.1944 20.8962 21.245 20.8712 21.291C20.8462 21.337 20.8123 21.3774 20.7713 21.41C20.7304 21.4426 20.6833 21.4666 20.6328 21.4806L19.1898 21.933C19.1521 21.9454 19.1126 21.9515 19.0728 21.9512Z" fill="#50AA54"/>
<path id="Vector_2" d="M13.974 23.531C13.9233 23.5323 13.8728 23.5236 13.8255 23.5051C13.7783 23.4866 13.7352 23.4589 13.6988 23.4235C13.6625 23.3881 13.6336 23.3458 13.6138 23.2991C13.5941 23.2523 13.584 23.2021 13.584 23.1514V10.4659C13.5836 10.3829 13.61 10.3019 13.6591 10.235C13.7083 10.168 13.7776 10.1187 13.857 10.0941L23.7058 7.02355C23.7643 7.00542 23.8263 7.00115 23.8867 7.01108C23.9472 7.02101 24.0045 7.04486 24.0542 7.08075C24.1033 7.11721 24.1432 7.16464 24.1708 7.21926C24.1983 7.27388 24.2127 7.33418 24.2128 7.39535V14.8235C24.2128 14.927 24.1717 15.0262 24.0986 15.0993C24.0254 15.1725 23.9262 15.2135 23.8228 15.2135C23.7194 15.2135 23.6202 15.1725 23.547 15.0993C23.4739 15.0262 23.4328 14.927 23.4328 14.8235V7.92575L14.3744 10.7598V23.1306C14.3747 23.1832 14.3646 23.2355 14.3446 23.2842C14.3246 23.3329 14.2951 23.3772 14.2579 23.4144C14.2206 23.4517 14.1764 23.4812 14.1276 23.5012C14.0789 23.5212 14.0267 23.5313 13.974 23.531Z" fill="#50AA54"/>
<path id="Vector_3" d="M13.9752 23.5418C13.8821 23.5416 13.7922 23.5081 13.7217 23.4475C13.6511 23.3868 13.6046 23.3029 13.5905 23.211C13.5763 23.119 13.5956 23.025 13.6447 22.946C13.6937 22.8669 13.7695 22.8081 13.8582 22.78L18.9464 21.1888C18.9961 21.1702 19.0491 21.1619 19.102 21.1645C19.155 21.1671 19.2069 21.1805 19.2546 21.2039C19.3022 21.2272 19.3446 21.26 19.3791 21.3003C19.4137 21.3406 19.4396 21.3875 19.4554 21.4382C19.4711 21.4888 19.4764 21.5422 19.4708 21.5949C19.4653 21.6477 19.449 21.6988 19.423 21.7451C19.397 21.7913 19.3619 21.8318 19.3197 21.864C19.2775 21.8962 19.2293 21.9195 19.1778 21.9324L14.1026 23.5236C14.0615 23.5371 14.0184 23.5433 13.9752 23.5418Z" fill="#50AA54"/>
<path id="Vector_4" d="M15.5338 21.2027C15.4407 21.2026 15.3508 21.1691 15.2803 21.1085C15.2097 21.0478 15.1632 20.9639 15.1491 20.8719C15.1349 20.78 15.1541 20.686 15.2032 20.6069C15.2523 20.5279 15.3281 20.469 15.4168 20.4409L19.0126 19.3073C19.0619 19.2899 19.1143 19.2827 19.1665 19.2859C19.2188 19.2892 19.2698 19.3029 19.3166 19.3263C19.3634 19.3497 19.405 19.3823 19.439 19.4221C19.4729 19.4619 19.4985 19.5082 19.5142 19.5581C19.53 19.608 19.5355 19.6606 19.5304 19.7127C19.5254 19.7648 19.5099 19.8153 19.485 19.8613C19.46 19.9073 19.426 19.9478 19.385 19.9803C19.3441 20.0129 19.297 20.0369 19.2466 20.0509L15.6612 21.1845C15.6201 21.1981 15.577 21.2042 15.5338 21.2027Z" fill="#50AA54"/>
<path id="Vector_5" d="M15.5338 19.3821C15.4407 19.3819 15.3508 19.3484 15.2803 19.2878C15.2097 19.2271 15.1632 19.1432 15.1491 19.0513C15.1349 18.9593 15.1541 18.8653 15.2032 18.7863C15.2523 18.7072 15.3281 18.6483 15.4168 18.6203L18.1546 17.7649C18.2532 17.7331 18.3604 17.7419 18.4525 17.7892C18.5447 17.8365 18.6143 17.9185 18.646 18.0171C18.6777 18.1157 18.669 18.2228 18.6217 18.315C18.5744 18.4071 18.4924 18.4767 18.3938 18.5085L15.6612 19.3639C15.6201 19.3774 15.577 19.3836 15.5338 19.3821Z" fill="#50AA54"/>
<path id="Vector_6" d="M13.9738 23.5204C13.9349 23.5209 13.8962 23.5148 13.8594 23.5022L4.01584 20.4238C3.936 20.3997 3.86607 20.3506 3.81641 20.2836C3.76676 20.2166 3.74005 20.1354 3.74024 20.052V7.3744C3.74024 7.27097 3.78132 7.17177 3.85446 7.09863C3.9276 7.02549 4.0268 6.9844 4.13024 6.9844C4.17083 6.9839 4.21123 6.99005 4.24984 7.0026L6.92004 7.8346C6.99916 7.86033 7.06814 7.91037 7.11716 7.9776C7.16618 8.04482 7.19273 8.1258 7.19304 8.209V13.5702C7.22379 13.6203 7.24322 13.6765 7.24995 13.7349C7.25669 13.7933 7.25058 13.8524 7.23204 13.9082C7.19673 14.0055 7.12466 14.0851 7.03131 14.1298C6.93796 14.1745 6.83079 14.1809 6.73284 14.1474L6.67304 14.1266C6.59697 14.0993 6.53118 14.0492 6.48464 13.9831C6.43811 13.917 6.4131 13.8382 6.41304 13.7574V8.495L4.52024 7.9022V19.766L13.5942 22.6V10.7388L11.47 10.0758V15.1458C11.47 15.2492 11.4289 15.3484 11.3558 15.4216C11.2827 15.4947 11.1835 15.5358 11.08 15.5358C10.9766 15.5358 10.8774 15.4947 10.8043 15.4216C10.7311 15.3484 10.69 15.2492 10.69 15.1458V9.5454C10.689 9.48383 10.7025 9.42288 10.7295 9.36754C10.7565 9.3122 10.7963 9.26405 10.8455 9.22702C10.8947 9.18999 10.9519 9.16513 11.0126 9.15449C11.0733 9.14385 11.1356 9.14773 11.1944 9.1658L14.1012 10.0758C14.1784 10.1022 14.2451 10.1525 14.2919 10.2193C14.3386 10.2861 14.3629 10.3661 14.3612 10.4476V23.1304C14.3618 23.1917 14.3476 23.2522 14.3201 23.3069C14.2925 23.3616 14.2522 23.409 14.2026 23.445C14.1362 23.4937 14.0561 23.52 13.9738 23.5204Z" fill="#50AA54"/>
<path id="Vector_7" d="M11.0807 15.5437C10.9772 15.5437 10.878 15.5026 10.8049 15.4295C10.7318 15.3563 10.6907 15.2571 10.6907 15.1537V9.59751C10.6808 9.53839 10.6852 9.47775 10.7037 9.42071C10.7182 9.37124 10.7425 9.32517 10.7751 9.2852C10.8077 9.24523 10.8479 9.21217 10.8934 9.18795C10.9389 9.16374 10.9888 9.14885 11.0402 9.14418C11.0915 9.1395 11.1433 9.14512 11.1925 9.16071C11.2721 9.18623 11.3418 9.23606 11.3917 9.30322C11.4416 9.37037 11.4692 9.45146 11.4707 9.53511V15.1459C11.4717 15.1978 11.4624 15.2493 11.4433 15.2976C11.4241 15.3458 11.3956 15.3897 11.3592 15.4267C11.3229 15.4638 11.2796 15.4932 11.2317 15.5133C11.1839 15.5334 11.1325 15.5437 11.0807 15.5437Z" fill="#50AA54"/>
<path id="Vector_8" d="M6.86386 14.1695C6.81975 14.169 6.77595 14.1619 6.73386 14.1487L6.67406 14.1279C6.59799 14.1006 6.5322 14.0505 6.48567 13.9844C6.43914 13.9184 6.41413 13.8395 6.41406 13.7587V8.21031C6.41406 8.10688 6.45515 8.00768 6.52829 7.93454C6.60143 7.8614 6.70063 7.82031 6.80406 7.82031C6.9075 7.82031 7.0067 7.8614 7.07983 7.93454C7.15297 8.00768 7.19406 8.10688 7.19406 8.21031V13.5715C7.22482 13.6216 7.24424 13.6778 7.25098 13.7362C7.25772 13.7946 7.2516 13.8537 7.23306 13.9095C7.20545 13.9854 7.15526 14.051 7.08925 14.0974C7.02325 14.1439 6.94459 14.1691 6.86386 14.1695Z" fill="#50AA54"/>
<path id="Vector_9" d="M13.974 10.8536C13.9235 10.8532 13.8735 10.8429 13.8269 10.8233C13.7804 10.8036 13.7382 10.775 13.7027 10.739C13.6672 10.7031 13.6391 10.6604 13.6201 10.6136C13.6011 10.5668 13.5915 10.5167 13.5918 10.4662C13.5918 10.3627 13.6329 10.2635 13.706 10.1904C13.7792 10.1173 13.8784 10.0762 13.9818 10.0762C14.0852 10.0762 14.1844 10.1173 14.2576 10.1904C14.3307 10.2635 14.3718 10.3627 14.3718 10.4662C14.3698 10.5701 14.3269 10.669 14.2524 10.7415C14.178 10.814 14.0779 10.8543 13.974 10.8536Z" fill="#50AA54"/>
<path id="Vector_10" d="M4.13601 7.76144C4.04629 7.76097 3.95948 7.72959 3.89021 7.67257C3.82093 7.61555 3.77344 7.5364 3.75572 7.44844C3.73801 7.36049 3.75116 7.26912 3.79297 7.18973C3.83477 7.11035 3.90267 7.0478 3.98521 7.01264L13.8652 2.89944C13.9607 2.85945 14.0682 2.85903 14.164 2.89828C14.2598 2.93753 14.3361 3.01324 14.3761 3.10874C14.4161 3.20425 14.4165 3.31173 14.3773 3.40754C14.338 3.50335 14.2623 3.57965 14.1668 3.61964L4.28681 7.73284C4.23906 7.75269 4.18771 7.76242 4.13601 7.76144Z" fill="#50AA54"/>
<path id="Vector_11" d="M7.11577 8.60829C7.02824 8.60636 6.9439 8.57503 6.87633 8.51934C6.80876 8.46365 6.7619 8.38685 6.74329 8.30129C6.72468 8.21573 6.7354 8.1264 6.77372 8.04768C6.81205 7.96895 6.87575 7.90542 6.95457 7.86729L11.4188 6.01089C11.5138 5.97396 11.6194 5.97566 11.7132 6.01565C11.8069 6.05563 11.8812 6.13072 11.9203 6.22484C11.9594 6.31896 11.9601 6.42463 11.9222 6.51925C11.8844 6.61386 11.811 6.6899 11.7178 6.73109L7.26397 8.57709C7.21717 8.59734 7.16677 8.60795 7.11577 8.60829Z" fill="#50AA54"/>
<path id="Vector_12" d="M11.0705 9.9301C10.993 9.93021 10.9174 9.90694 10.8533 9.86333C10.7893 9.81973 10.74 9.75782 10.7117 9.6857C10.6904 9.63801 10.6789 9.58653 10.6778 9.5343C10.6768 9.48208 10.6862 9.43017 10.7056 9.38167C10.725 9.33317 10.754 9.28906 10.7907 9.25196C10.8275 9.21486 10.8714 9.18553 10.9197 9.1657L14.8509 7.5303C14.9464 7.49031 15.0539 7.48989 15.1497 7.52914C15.2455 7.56839 15.3218 7.6441 15.3618 7.7396C15.4018 7.8351 15.4022 7.94259 15.363 8.0384C15.3237 8.13421 15.248 8.21051 15.1525 8.2505L11.2213 9.9015C11.1734 9.921 11.1222 9.93072 11.0705 9.9301Z" fill="#50AA54"/>
<path id="Vector_13" d="M17.0293 4.91784C16.9774 4.91749 16.9262 4.90689 16.8785 4.88664L13.8755 3.61784C13.8251 3.60036 13.7788 3.57275 13.7396 3.5367C13.7003 3.50065 13.6688 3.45692 13.6471 3.40823C13.6254 3.35954 13.6139 3.30691 13.6133 3.2536C13.6127 3.20028 13.6231 3.14742 13.6437 3.09827C13.6644 3.04911 13.6949 3.00472 13.7334 2.96783C13.7719 2.93093 13.8175 2.90232 13.8675 2.88376C13.9175 2.86521 13.9708 2.85709 14.024 2.85993C14.0772 2.86276 14.1293 2.87648 14.1771 2.90024L17.1827 4.16904C17.231 4.18887 17.2748 4.2182 17.3116 4.2553C17.3484 4.2924 17.3773 4.33651 17.3967 4.38501C17.4161 4.43351 17.4256 4.48541 17.4246 4.53764C17.4235 4.58987 17.412 4.64135 17.3907 4.68904C17.3587 4.75783 17.3077 4.81599 17.2436 4.85656C17.1795 4.89713 17.1051 4.9184 17.0293 4.91784Z" fill="#50AA54"/>
<path id="Vector_14" d="M23.826 7.78652C23.7741 7.78618 23.7229 7.77557 23.6752 7.75532L16.8788 4.89532C16.8297 4.87672 16.7849 4.84841 16.747 4.81207C16.7091 4.77574 16.6789 4.73213 16.6583 4.68387C16.6377 4.6356 16.627 4.58367 16.627 4.53118C16.6269 4.4787 16.6374 4.42674 16.6579 4.37841C16.6784 4.33009 16.7084 4.28639 16.7462 4.24995C16.7839 4.21351 16.8287 4.18507 16.8777 4.16633C16.9267 4.14759 16.979 4.13894 17.0315 4.1409C17.0839 4.14285 17.1355 4.15538 17.183 4.17772L23.9794 7.03772C24.0621 7.07297 24.1301 7.13573 24.1719 7.21539C24.2137 7.29504 24.2266 7.38668 24.2086 7.47479C24.1905 7.5629 24.1426 7.64207 24.0728 7.69887C24.0031 7.75568 23.9159 7.78665 23.826 7.78652Z" fill="#50AA54"/>
<path id="Vector_15" d="M11.0807 15.5449C11.0148 15.5447 10.95 15.5279 10.8923 15.4961C10.8346 15.4643 10.7858 15.4185 10.7505 15.3629L8.6705 12.0999C8.61839 12.0127 8.60233 11.9087 8.62574 11.8099C8.64915 11.711 8.71018 11.6253 8.79585 11.5707C8.88153 11.5162 8.98509 11.4973 9.08452 11.5179C9.18395 11.5386 9.27141 11.5972 9.3283 11.6813L11.4083 14.9443C11.4452 15.0033 11.4657 15.0711 11.4678 15.1407C11.4698 15.2103 11.4533 15.2792 11.42 15.3403C11.3867 15.4014 11.3377 15.4526 11.2781 15.4885C11.2184 15.5245 11.1503 15.5439 11.0807 15.5449Z" fill="#50AA54"/>
<path id="Vector_16" d="M6.86378 14.1683C6.80855 14.1686 6.75391 14.1568 6.70364 14.1339C6.65337 14.111 6.60866 14.0775 6.57258 14.0357C6.53863 13.9975 6.51255 13.953 6.49586 13.9047C6.47918 13.8565 6.4722 13.8054 6.47534 13.7544C6.47848 13.7034 6.49168 13.6535 6.51417 13.6076C6.53666 13.5618 6.568 13.5208 6.60638 13.4871L8.74098 11.5969C8.81856 11.5279 8.92035 11.4926 9.02396 11.4987C9.12758 11.5048 9.22453 11.5518 9.29348 11.6294C9.36244 11.707 9.39775 11.8088 9.39166 11.9124C9.38556 12.016 9.33856 12.1129 9.26098 12.1819L7.12638 14.0695C7.05482 14.135 6.96077 14.1704 6.86378 14.1683Z" fill="#50AA54"/>
<path id="Vector_17" d="M15.0149 8.295C14.9594 8.29534 14.9044 8.28381 14.8537 8.2612L11.4269 6.7194C11.3391 6.67312 11.2722 6.59509 11.24 6.50121C11.2077 6.40734 11.2124 6.30468 11.2532 6.21417C11.294 6.12366 11.3677 6.05211 11.4594 6.0141C11.5511 5.97609 11.6539 5.97448 11.7467 6.0096L15.1631 7.5488C15.244 7.58476 15.3102 7.64714 15.3509 7.7257C15.3916 7.80426 15.4044 7.89432 15.3872 7.98111C15.3699 8.06789 15.3237 8.14624 15.256 8.20328C15.1884 8.26032 15.1034 8.29266 15.0149 8.295Z" fill="#50AA54"/>
<path id="Vector_18" d="M22.2625 21.9594C21.483 21.9614 20.7203 21.7323 20.071 21.3009C19.4216 20.8695 18.9148 20.2552 18.6146 19.5358C18.3143 18.8163 18.2342 18.024 18.3843 17.259C18.5343 16.494 18.9079 15.7907 19.4577 15.238C20.0075 14.6853 20.7088 14.3081 21.473 14.154C22.2372 13.9998 23.0299 14.0758 23.7509 14.3722C24.4719 14.6687 25.0889 15.1722 25.5237 15.8193C25.9585 16.4663 26.1917 17.2278 26.1937 18.0074C26.1951 19.0523 25.782 20.0552 25.0451 20.796C24.3082 21.5369 23.3075 21.9552 22.2625 21.9594ZM22.2625 14.8562C21.6363 14.8541 21.0237 15.038 20.5021 15.3847C19.9806 15.7313 19.5738 16.2249 19.3332 16.8031C19.0926 17.3812 19.0291 18.0177 19.1508 18.632C19.2725 19.2463 19.5738 19.8105 20.0166 20.2533C20.4593 20.6961 21.0236 20.9974 21.6379 21.1191C22.2522 21.2408 22.8887 21.1773 23.4668 20.9367C24.045 20.6961 24.5386 20.2893 24.8852 19.7678C25.2319 19.2462 25.4158 18.6335 25.4137 18.0074C25.4103 17.1727 25.0772 16.3731 24.487 15.7829C23.8968 15.1927 23.0972 14.8596 22.2625 14.8562Z" fill="#50AA54"/>
<path id="Vector_19" d="M21.8494 19.6763C21.746 19.6774 21.6462 19.6382 21.5712 19.5671L20.1984 18.1891C20.1295 18.1151 20.092 18.0174 20.0938 17.9163C20.0956 17.8153 20.1365 17.7189 20.208 17.6474C20.2794 17.576 20.3758 17.535 20.4769 17.5333C20.5779 17.5315 20.6757 17.569 20.7496 17.6379L22.125 19.0159C22.1974 19.0893 22.238 19.1883 22.238 19.2915C22.238 19.3946 22.1974 19.4936 22.125 19.5671C22.0507 19.6376 21.9519 19.6767 21.8494 19.6763Z" fill="#50AA54"/>
<path id="Vector_20" d="M21.8496 19.6754C21.7725 19.6746 21.6974 19.6512 21.6335 19.608C21.5697 19.5648 21.52 19.5038 21.4906 19.4325C21.4612 19.3613 21.4534 19.283 21.4683 19.2073C21.4831 19.1317 21.5198 19.0621 21.574 19.0072L23.8906 16.6906C23.9645 16.6217 24.0623 16.5842 24.1633 16.586C24.2643 16.5878 24.3607 16.6287 24.4322 16.7002C24.5037 16.7716 24.5446 16.868 24.5464 16.9691C24.5481 17.0701 24.5106 17.1679 24.4418 17.2418L22.1252 19.5662C22.0508 19.6368 21.9521 19.6759 21.8496 19.6754Z" fill="#50AA54"/>
</g>
<defs>
<clipPath id="clip0_786_99142">
<rect width="26" height="26" fill="white" transform="translate(0.974609 0.0664062)"/>
</clipPath>
</defs>
</svg>
