<svg width="27" height="27" viewBox="0 0 27 27" fill="none" xmlns="http://www.w3.org/2000/svg">
<g id="package-pending" clip-path="url(#clip0_786_99153)">
<path id="Vector" d="M19.0728 22.6856C18.9798 22.6854 18.8899 22.652 18.8193 22.5913C18.7488 22.5307 18.7022 22.4468 18.6881 22.3548C18.674 22.2628 18.6932 22.1688 18.7423 22.0898C18.7914 22.0108 18.8671 21.9519 18.9558 21.9238L20.3988 21.4714C20.4482 21.454 20.5006 21.4467 20.5528 21.45C20.605 21.4532 20.6561 21.467 20.7029 21.4904C20.7497 21.5138 20.7913 21.5463 20.8253 21.5862C20.8592 21.626 20.8848 21.6722 20.9005 21.7221C20.9162 21.7721 20.9217 21.8246 20.9167 21.8767C20.9117 21.9288 20.8962 21.9794 20.8712 22.0253C20.8462 22.0713 20.8123 22.1118 20.7713 22.1444C20.7304 22.177 20.6833 22.201 20.6328 22.215L19.1898 22.6674C19.1521 22.6798 19.1126 22.6859 19.0728 22.6856Z" fill="#D77010"/>
<path id="Vector_2" d="M13.974 24.2653C13.9233 24.2667 13.8728 24.2579 13.8255 24.2395C13.7783 24.221 13.7352 24.1933 13.6988 24.1579C13.6625 24.1225 13.6336 24.0802 13.6138 24.0334C13.5941 23.9867 13.584 23.9365 13.584 23.8857V11.2003C13.5836 11.1173 13.61 11.0363 13.6591 10.9694C13.7083 10.9024 13.7776 10.853 13.857 10.8285L23.7058 7.75792C23.7643 7.7398 23.8263 7.73553 23.8867 7.74546C23.9472 7.75538 24.0045 7.77923 24.0542 7.81512C24.1033 7.85158 24.1432 7.89901 24.1708 7.95363C24.1983 8.00826 24.2127 8.06856 24.2128 8.12972V15.5579C24.2128 15.6614 24.1717 15.7606 24.0986 15.8337C24.0254 15.9068 23.9262 15.9479 23.8228 15.9479C23.7194 15.9479 23.6202 15.9068 23.547 15.8337C23.4739 15.7606 23.4328 15.6614 23.4328 15.5579V8.66012L14.3744 11.4941V23.8649C14.3747 23.9176 14.3646 23.9698 14.3446 24.0186C14.3246 24.0673 14.2951 24.1116 14.2579 24.1488C14.2206 24.1861 14.1764 24.2156 14.1276 24.2356C14.0789 24.2556 14.0267 24.2657 13.974 24.2653Z" fill="#D77010"/>
<path id="Vector_3" d="M13.9752 24.2761C13.8821 24.276 13.7922 24.2425 13.7217 24.1819C13.6511 24.1212 13.6046 24.0373 13.5905 23.9453C13.5763 23.8534 13.5956 23.7594 13.6447 23.6803C13.6937 23.6013 13.7695 23.5424 13.8582 23.5143L18.9464 21.9231C18.9961 21.9046 19.0491 21.8963 19.102 21.8989C19.155 21.9015 19.2069 21.9149 19.2546 21.9382C19.3022 21.9616 19.3446 21.9944 19.3791 22.0347C19.4137 22.075 19.4396 22.1219 19.4554 22.1726C19.4711 22.2232 19.4764 22.2766 19.4708 22.3293C19.4653 22.3821 19.449 22.4332 19.423 22.4794C19.397 22.5257 19.3619 22.5662 19.3197 22.5984C19.2775 22.6306 19.2293 22.6538 19.1778 22.6667L14.1026 24.2579C14.0615 24.2715 14.0184 24.2776 13.9752 24.2761Z" fill="#D77010"/>
<path id="Vector_4" d="M15.5338 21.9371C15.4407 21.9369 15.3508 21.9035 15.2803 21.8428C15.2097 21.7822 15.1632 21.6983 15.1491 21.6063C15.1349 21.5143 15.1541 21.4204 15.2032 21.3413C15.2523 21.2623 15.3281 21.2034 15.4168 21.1753L19.0126 20.0417C19.0619 20.0243 19.1143 20.017 19.1665 20.0203C19.2188 20.0235 19.2698 20.0373 19.3166 20.0607C19.3634 20.0841 19.405 20.1167 19.439 20.1565C19.4729 20.1963 19.4985 20.2425 19.5142 20.2925C19.53 20.3424 19.5355 20.395 19.5304 20.447C19.5254 20.4991 19.5099 20.5497 19.485 20.5957C19.46 20.6416 19.426 20.6821 19.385 20.7147C19.3441 20.7473 19.297 20.7713 19.2466 20.7853L15.6612 21.9189C15.6201 21.9324 15.577 21.9386 15.5338 21.9371Z" fill="#D77010"/>
<path id="Vector_5" d="M15.5338 20.1164C15.4407 20.1163 15.3508 20.0828 15.2803 20.0222C15.2097 19.9615 15.1632 19.8776 15.1491 19.7856C15.1349 19.6937 15.1541 19.5997 15.2032 19.5206C15.2523 19.4416 15.3281 19.3827 15.4168 19.3546L18.1546 18.4992C18.2532 18.4675 18.3604 18.4763 18.4525 18.5236C18.5447 18.5709 18.6143 18.6528 18.646 18.7514C18.6777 18.85 18.669 18.9572 18.6217 19.0494C18.5744 19.1415 18.4924 19.2111 18.3938 19.2428L15.6612 20.0982C15.6201 20.1118 15.577 20.1179 15.5338 20.1164Z" fill="#D77010"/>
<path id="Vector_6" d="M13.9738 24.2548C13.9349 24.2553 13.8962 24.2491 13.8594 24.2366L4.01584 21.1582C3.936 21.1341 3.86607 21.0849 3.81641 21.018C3.76676 20.951 3.74005 20.8698 3.74024 20.7864V8.10878C3.74024 8.00534 3.78132 7.90615 3.85446 7.83301C3.9276 7.75987 4.0268 7.71878 4.13024 7.71878C4.17083 7.71828 4.21123 7.72442 4.24984 7.73698L6.92004 8.56898C6.99916 8.5947 7.06814 8.64474 7.11716 8.71197C7.16618 8.7792 7.19273 8.86018 7.19304 8.94338V14.3046C7.22379 14.3547 7.24322 14.4109 7.24995 14.4693C7.25669 14.5276 7.25058 14.5868 7.23204 14.6426C7.19673 14.7399 7.12466 14.8194 7.03131 14.8642C6.93796 14.9089 6.83079 14.9152 6.73284 14.8818L6.67304 14.861C6.59697 14.8337 6.53118 14.7836 6.48464 14.7175C6.43811 14.6514 6.4131 14.5726 6.41304 14.4918V9.22938L4.52024 8.63658V20.5004L13.5942 23.3344V11.4732L11.47 10.8102V15.8802C11.47 15.9836 11.4289 16.0828 11.3558 16.156C11.2827 16.2291 11.1835 16.2702 11.08 16.2702C10.9766 16.2702 10.8774 16.2291 10.8043 16.156C10.7311 16.0828 10.69 15.9836 10.69 15.8802V10.2798C10.689 10.2182 10.7025 10.1573 10.7295 10.1019C10.7565 10.0466 10.7963 9.99842 10.8455 9.96139C10.8947 9.92436 10.9519 9.89951 11.0126 9.88887C11.0733 9.87823 11.1356 9.88211 11.1944 9.90018L14.1012 10.8102C14.1784 10.8366 14.2451 10.8869 14.2919 10.9537C14.3386 11.0205 14.3629 11.1005 14.3612 11.182V23.8648C14.3618 23.9261 14.3476 23.9866 14.3201 24.0413C14.2925 24.096 14.2522 24.1434 14.2026 24.1794C14.1362 24.228 14.0561 24.2544 13.9738 24.2548Z" fill="#D77010"/>
<path id="Vector_7" d="M11.0807 16.2781C10.9772 16.2781 10.878 16.237 10.8049 16.1639C10.7318 16.0907 10.6907 15.9915 10.6907 15.8881V10.3319C10.6808 10.2728 10.6852 10.2121 10.7037 10.1551C10.7182 10.1056 10.7425 10.0595 10.7751 10.0196C10.8077 9.97961 10.8479 9.94654 10.8934 9.92233C10.9389 9.89811 10.9888 9.88323 11.0402 9.87855C11.0915 9.87387 11.1433 9.87949 11.1925 9.89508C11.2721 9.9206 11.3418 9.97044 11.3917 10.0376C11.4416 10.1047 11.4692 10.1858 11.4707 10.2695V15.8803C11.4717 15.9322 11.4624 15.9837 11.4433 16.0319C11.4241 16.0801 11.3956 16.1241 11.3592 16.1611C11.3229 16.1982 11.2796 16.2276 11.2317 16.2477C11.1839 16.2678 11.1325 16.2781 11.0807 16.2781Z" fill="#D77010"/>
<path id="Vector_8" d="M6.86386 14.9039C6.81975 14.9033 6.77595 14.8963 6.73386 14.8831L6.67406 14.8623C6.59799 14.835 6.5322 14.7849 6.48567 14.7188C6.43914 14.6527 6.41413 14.5739 6.41406 14.4931V8.94469C6.41406 8.84125 6.45515 8.74206 6.52829 8.66892C6.60143 8.59578 6.70063 8.55469 6.80406 8.55469C6.9075 8.55469 7.0067 8.59578 7.07983 8.66892C7.15297 8.74206 7.19406 8.84125 7.19406 8.94469V14.3059C7.22482 14.356 7.24424 14.4122 7.25098 14.4706C7.25772 14.529 7.2516 14.5881 7.23306 14.6439C7.20545 14.7197 7.15526 14.7853 7.08925 14.8318C7.02325 14.8783 6.94459 14.9034 6.86386 14.9039Z" fill="#D77010"/>
<path id="Vector_9" d="M13.974 11.5879C13.9235 11.5876 13.8735 11.5773 13.8269 11.5577C13.7804 11.538 13.7382 11.5094 13.7027 11.4734C13.6672 11.4374 13.6391 11.3948 13.6201 11.348C13.6011 11.3012 13.5915 11.2511 13.5918 11.2005C13.5918 11.0971 13.6329 10.9979 13.706 10.9248C13.7792 10.8516 13.8784 10.8105 13.9818 10.8105C14.0852 10.8105 14.1844 10.8516 14.2576 10.9248C14.3307 10.9979 14.3718 11.0971 14.3718 11.2005C14.3698 11.3045 14.3269 11.4034 14.2524 11.4759C14.178 11.5484 14.0779 11.5887 13.974 11.5879Z" fill="#D77010"/>
<path id="Vector_10" d="M4.13601 8.49582C4.04629 8.49535 3.95948 8.46396 3.89021 8.40694C3.82093 8.34993 3.77344 8.27077 3.75572 8.18282C3.73801 8.09486 3.75116 8.00349 3.79297 7.92411C3.83477 7.84472 3.90267 7.78218 3.98521 7.74702L13.8652 3.63382C13.9607 3.59382 14.0682 3.5934 14.164 3.63266C14.2598 3.67191 14.3361 3.74761 14.3761 3.84312C14.4161 3.93862 14.4165 4.0461 14.3773 4.14191C14.338 4.23773 14.2623 4.31402 14.1668 4.35402L4.28681 8.46722C4.23906 8.48706 4.18771 8.4968 4.13601 8.49582Z" fill="#D77010"/>
<path id="Vector_11" d="M7.11577 9.34267C7.02824 9.34074 6.9439 9.30941 6.87633 9.25372C6.80876 9.19803 6.7619 9.12122 6.74329 9.03567C6.72468 8.95011 6.7354 8.86078 6.77372 8.78205C6.81205 8.70333 6.87575 8.63979 6.95457 8.60167L11.4188 6.74527C11.5138 6.70833 11.6194 6.71004 11.7132 6.75002C11.8069 6.79001 11.8812 6.86509 11.9203 6.95921C11.9594 7.05333 11.9601 7.159 11.9222 7.25362C11.8844 7.34824 11.811 7.42428 11.7178 7.46547L7.26397 9.31147C7.21717 9.33172 7.16677 9.34233 7.11577 9.34267Z" fill="#D77010"/>
<path id="Vector_12" d="M11.0705 10.6645C10.993 10.6646 10.9174 10.6413 10.8533 10.5977C10.7893 10.5541 10.74 10.4922 10.7117 10.4201C10.6904 10.3724 10.6789 10.3209 10.6778 10.2687C10.6768 10.2165 10.6862 10.1645 10.7056 10.116C10.725 10.0675 10.754 10.0234 10.7907 9.98634C10.8275 9.94924 10.8714 9.9199 10.9197 9.90008L14.8509 8.26468C14.9464 8.22468 15.0539 8.22426 15.1497 8.26351C15.2455 8.30277 15.3218 8.37847 15.3618 8.47398C15.4018 8.56948 15.4022 8.67696 15.363 8.77277C15.3237 8.86859 15.248 8.94488 15.1525 8.98488L11.2213 10.6359C11.1734 10.6554 11.1222 10.6651 11.0705 10.6645Z" fill="#D77010"/>
<path id="Vector_13" d="M17.0293 5.65221C16.9774 5.65187 16.9262 5.64127 16.8785 5.62101L13.8755 4.35221C13.8251 4.33474 13.7788 4.30712 13.7396 4.27107C13.7003 4.23502 13.6688 4.1913 13.6471 4.1426C13.6254 4.09391 13.6139 4.04128 13.6133 3.98797C13.6127 3.93466 13.6231 3.88179 13.6437 3.83264C13.6644 3.78349 13.6949 3.7391 13.7334 3.7022C13.7719 3.66531 13.8175 3.6367 13.8675 3.61814C13.9175 3.59958 13.9708 3.59147 14.024 3.5943C14.0772 3.59713 14.1293 3.61085 14.1771 3.63461L17.1827 4.90341C17.231 4.92324 17.2748 4.95257 17.3116 4.98967C17.3484 5.02677 17.3773 5.07088 17.3967 5.11938C17.4161 5.16788 17.4256 5.21979 17.4246 5.27201C17.4235 5.32424 17.412 5.37573 17.3907 5.42341C17.3587 5.49221 17.3077 5.55036 17.2436 5.59093C17.1795 5.6315 17.1051 5.65278 17.0293 5.65221Z" fill="#D77010"/>
<path id="Vector_14" d="M23.826 8.52089C23.7741 8.52055 23.7229 8.50995 23.6752 8.48969L16.8788 5.6297C16.8297 5.6111 16.7849 5.58278 16.747 5.54645C16.7091 5.51011 16.6789 5.46651 16.6583 5.41824C16.6377 5.36998 16.627 5.31805 16.627 5.26556C16.6269 5.21307 16.6374 5.16111 16.6579 5.11279C16.6784 5.06446 16.7084 5.02077 16.7462 4.98433C16.7839 4.94788 16.8287 4.91944 16.8777 4.9007C16.9267 4.88196 16.979 4.87331 17.0315 4.87527C17.0839 4.87723 17.1355 4.88975 17.183 4.9121L23.9794 7.77209C24.0621 7.80734 24.1301 7.87011 24.1719 7.94976C24.2137 8.02941 24.2266 8.12105 24.2086 8.20917C24.1905 8.29728 24.1426 8.37644 24.0728 8.43325C24.0031 8.49006 23.9159 8.52102 23.826 8.52089Z" fill="#D77010"/>
<path id="Vector_15" d="M11.0807 16.2793C11.0148 16.2791 10.95 16.2623 10.8923 16.2305C10.8346 16.1987 10.7858 16.1529 10.7505 16.0973L8.6705 12.8343C8.61839 12.7471 8.60233 12.6431 8.62574 12.5442C8.64915 12.4454 8.71018 12.3596 8.79585 12.3051C8.88153 12.2506 8.98509 12.2316 9.08452 12.2523C9.18395 12.2729 9.27141 12.3315 9.3283 12.4157L11.4083 15.6787C11.4452 15.7377 11.4657 15.8055 11.4678 15.8751C11.4698 15.9447 11.4533 16.0136 11.42 16.0747C11.3867 16.1358 11.3377 16.187 11.2781 16.2229C11.2184 16.2589 11.1503 16.2783 11.0807 16.2793Z" fill="#D77010"/>
<path id="Vector_16" d="M6.86378 14.9027C6.80855 14.9029 6.75391 14.8912 6.70364 14.8683C6.65337 14.8454 6.60866 14.8119 6.57258 14.7701C6.53863 14.7319 6.51255 14.6874 6.49586 14.6391C6.47918 14.5908 6.4722 14.5397 6.47534 14.4887C6.47848 14.4378 6.49168 14.3879 6.51417 14.342C6.53666 14.2962 6.568 14.2552 6.60638 14.2215L8.74098 12.3313C8.81856 12.2623 8.92035 12.227 9.02396 12.2331C9.12758 12.2392 9.22453 12.2862 9.29348 12.3638C9.36244 12.4414 9.39775 12.5431 9.39166 12.6468C9.38556 12.7504 9.33856 12.8473 9.26098 12.9163L7.12638 14.8039C7.05482 14.8694 6.96077 14.9048 6.86378 14.9027Z" fill="#D77010"/>
<path id="Vector_17" d="M15.0149 9.02937C14.9594 9.02971 14.9044 9.01819 14.8537 8.99557L11.4269 7.45377C11.3391 7.40749 11.2722 7.32946 11.24 7.23559C11.2077 7.14171 11.2124 7.03906 11.2532 6.94855C11.294 6.85804 11.3677 6.78648 11.4594 6.74847C11.5511 6.71046 11.6539 6.70885 11.7467 6.74397L15.1631 8.28317C15.244 8.31913 15.3102 8.38152 15.3509 8.46007C15.3916 8.53863 15.4044 8.6287 15.3872 8.71548C15.3699 8.80227 15.3237 8.88061 15.256 8.93765C15.1884 8.99469 15.1034 9.02703 15.0149 9.02937Z" fill="#D77010"/>
<path id="Vector_18" d="M22.2625 22.6937C21.483 22.6958 20.7203 22.4666 20.071 22.0352C19.4216 21.6038 18.9148 20.9896 18.6146 20.2701C18.3143 19.5507 18.2342 18.7584 18.3843 17.9934C18.5343 17.2284 18.9079 16.5251 19.4577 15.9724C20.0075 15.4197 20.7088 15.0424 21.473 14.8883C22.2372 14.7342 23.0299 14.8102 23.7509 15.1066C24.4719 15.403 25.0889 15.9066 25.5237 16.5537C25.9585 17.2007 26.1917 17.9622 26.1937 18.7417C26.1951 19.7867 25.782 20.7896 25.0451 21.5304C24.3082 22.2712 23.3075 22.6896 22.2625 22.6937ZM22.2625 15.5905C21.6363 15.5885 21.0237 15.7724 20.5021 16.119C19.9806 16.4656 19.5738 16.9593 19.3332 17.5374C19.0926 18.1156 19.0291 18.7521 19.1508 19.3664C19.2725 19.9806 19.5738 20.5449 20.0166 20.9877C20.4593 21.4305 21.0236 21.7318 21.6379 21.8535C22.2522 21.9751 22.8887 21.9116 23.4668 21.6711C24.045 21.4305 24.5386 21.0236 24.8852 20.5021C25.2319 19.9806 25.4158 19.3679 25.4137 18.7417C25.4103 17.907 25.0772 17.1075 24.487 16.5173C23.8968 15.9271 23.0972 15.594 22.2625 15.5905Z" fill="#D77010"/>
<path id="Vector_19" d="M21.4232 19.5586C21.3198 19.5586 21.2206 19.5175 21.1474 19.4444C21.0743 19.3712 21.0332 19.272 21.0332 19.1686V16.6986C21.0332 16.5952 21.0743 16.496 21.1474 16.4228C21.2206 16.3497 21.3198 16.3086 21.4232 16.3086C21.5266 16.3086 21.6258 16.3497 21.699 16.4228C21.7721 16.496 21.8132 16.5952 21.8132 16.6986V19.166C21.8135 19.2174 21.8037 19.2684 21.7843 19.316C21.7648 19.3637 21.7361 19.407 21.6999 19.4434C21.6636 19.4799 21.6205 19.5089 21.5731 19.5287C21.5256 19.5484 21.4746 19.5586 21.4232 19.5586Z" fill="#D77010"/>
<path id="Vector_20" d="M23.0718 21.1936C23.0205 21.194 22.9697 21.184 22.9224 21.1644C22.875 21.1447 22.8321 21.1157 22.7962 21.0792L21.1478 19.4308C21.1116 19.3939 21.083 19.3503 21.0637 19.3023C21.0444 19.2544 21.0347 19.2032 21.0352 19.1515C21.0357 19.0998 21.0463 19.0488 21.0665 19.0012C21.0867 18.9537 21.1161 18.9106 21.153 18.8744C21.1899 18.8382 21.2335 18.8096 21.2814 18.7903C21.3294 18.771 21.3806 18.7613 21.4323 18.7617C21.484 18.7622 21.535 18.7729 21.5826 18.7931C21.6301 18.8133 21.6732 18.8427 21.7094 18.8796L23.3578 20.528C23.3943 20.564 23.4232 20.6069 23.443 20.6542C23.4628 20.7015 23.4729 20.7523 23.4729 20.8036C23.4729 20.8548 23.4628 20.9056 23.443 20.9529C23.4232 21.0002 23.3943 21.0431 23.3578 21.0792C23.3209 21.1173 23.2763 21.1472 23.227 21.1669C23.1777 21.1866 23.1248 21.1957 23.0718 21.1936Z" fill="#D77010"/>
</g>
<defs>
<clipPath id="clip0_786_99153">
<rect width="26" height="26" fill="white" transform="translate(0.974609 0.800781)"/>
</clipPath>
</defs>
</svg>
