<svg version="1.1" xmlns="http://www.w3.org/2000/svg" xmlns:xlink="http://www.w3.org/1999/xlink" x="0px" y="0px" viewBox="0 0 256 256" xml:space="preserve">
	<g>
		<path fill="#e13434" d="M201.1,10H54.9C37,10,22.4,24.6,22.4,42.5v154.4c0,17.9,14.6,32.5,32.5,32.5h60.8c2.3,0,4.2-1.9,4.2-4.2c0-2.3-1.9-4.2-4.2-4.2H54.9c-13.3,0-24.1-10.8-24.1-24.1V42.5c0-13.3,10.8-24.1,24.1-24.1h146.1c13.3,0,24.1,10.8,24.1,24.1v71.7c0,2.3,1.9,4.2,4.2,4.2s4.2-1.9,4.2-4.2V42.5C233.6,24.6,219,10,201.1,10z" />
		<path fill="#e13434" d="M148.9,217" />
		<path fill="#e13434" d="M96.2,41.2L130.4,77" />
		<path fill="#e13434" d="M126,75.4L161.6,42" />
		<path fill="#e13434" d="M89.1,85.9h76.5" />
		<path fill="#e13434" d="M91.7,119.5h71.4" />
		<path fill="#e13434" d="M127.6,164.9V74.3" />
		<path fill="#e13434" d="M229.3,128.4c0,0-14.2,49.2-61.3,45.5v-29.8l-58.3,52.1l60.8,49.8v-30C170.4,216,242.9,215.2,229.3,128.4" />
	</g>
</svg>
