<svg width="25" height="25" viewBox="0 0 25 25" fill="none" xmlns="http://www.w3.org/2000/svg">
<g clip-path="url(#clip0_1698_72307)">
<path d="M20.3008 12.1016H3.80078C3.35078 12.1016 3.05078 11.8016 3.05078 11.3516V2.35156C3.05078 1.90156 3.35078 1.60156 3.80078 1.60156H20.3008C20.7508 1.60156 21.0508 1.90156 21.0508 2.35156V11.3516C21.0508 11.8016 20.7508 12.1016 20.3008 12.1016ZM4.55078 10.6016H19.5508V3.10156H4.55078V10.6016Z" fill="black"/>
<path d="M12.0508 9.35156C11.6045 9.35156 11.1796 9.11802 10.8493 8.67253C10.5174 8.22478 10.3008 7.58227 10.3008 6.85156C10.3008 6.12085 10.5174 5.47834 10.8493 5.03059C11.1796 4.5851 11.6045 4.35156 12.0508 4.35156C12.4971 4.35156 12.922 4.5851 13.2523 5.03059C13.5842 5.47834 13.8008 6.12085 13.8008 6.85156C13.8008 7.58227 13.5842 8.22478 13.2523 8.67253C12.922 9.11802 12.4971 9.35156 12.0508 9.35156Z" stroke="black"/>
<path d="M18.0012 15.2516L18.0012 15.2516L18.0065 15.2443C18.8814 14.033 20.3009 13.3516 21.8012 13.3516C21.8873 13.3516 21.956 13.3796 22.018 13.4489C22.0246 13.4858 22.0269 13.5227 22.0245 13.5538C22.0239 13.5616 22.0231 13.5681 22.0222 13.5734L21.9991 13.5966L21.9654 13.6564L19.9404 17.2564L19.9404 17.2564L19.9384 17.26C18.8247 19.2786 16.7407 20.5266 14.4512 20.5266C10.9892 20.5266 7.60297 21.524 4.67646 23.4424C4.61127 23.4748 4.56644 23.4962 4.52561 23.5115C4.49146 23.5243 4.47636 23.5263 4.47457 23.5266H4.47443H4.474H4.47357H4.47314H4.47271H4.47229H4.47186H4.47144H4.47102H4.4706H4.47018H4.46977H4.46936H4.46894H4.46853H4.46812H4.46772H4.46731H4.46691H4.46651H4.4661H4.4657H4.46531H4.46491H4.46452H4.46412H4.46373H4.46334H4.46295H4.46256H4.46218H4.46179H4.46141H4.46103H4.46065H4.46027H4.4599H4.45952H4.45915H4.45877H4.4584H4.45803H4.45766H4.4573H4.4572C4.43102 23.5099 4.40454 23.4916 4.38002 23.4725C4.35298 23.4515 4.33392 23.4339 4.32217 23.4213C4.32021 23.4192 4.31866 23.4175 4.31746 23.4161L4.3148 23.4108L4.30492 23.3943L2.05492 19.6443L2.0488 19.6341L2.0422 19.6242C2.00416 19.5672 2.00416 19.486 2.0422 19.4289L2.04225 19.429L2.04676 19.4219L4.07176 16.2719L4.07184 16.272L4.077 16.2636C5.17647 14.477 7.18081 13.3516 9.72617 13.3516H14.3012C14.3261 13.3516 14.3928 13.369 14.4632 13.4395C14.5337 13.5099 14.5512 13.5767 14.5512 13.6016V13.6766C14.5512 14.5586 13.6938 15.3516 12.7262 15.3516H11.3012C10.9625 15.3516 10.6415 15.4666 10.4039 15.7043C10.1662 15.9419 10.0512 16.2629 10.0512 16.6016C10.0512 16.9402 10.1662 17.2612 10.4039 17.4989C10.6415 17.7365 10.9625 17.8516 11.3012 17.8516H13.5512C14.9555 17.8516 16.377 17.2747 17.3079 16.1745L17.3174 16.1633L17.3262 16.1516L18.0012 15.2516Z" stroke="black"/>
<path d="M6.05078 2.85156H6.80078H7.01427C6.80486 4.26685 5.71607 5.35564 4.30078 5.56505V5.35156V4.60156V2.85156H6.05078Z" stroke="black"/>
<path d="M4.30078 9.10156V8.35156V8.13808C5.71607 8.34748 6.80486 9.43628 7.01427 10.8516H6.80078H6.05078H4.30078V9.10156Z" stroke="black"/>
<path d="M18.0508 10.8516H17.3008H17.0873C17.2967 9.43628 18.3855 8.34748 19.8008 8.13808V8.35156V9.10156V10.8516H18.0508Z" stroke="black"/>
<path d="M19.8008 4.60156V5.35156V5.56505C18.3855 5.35564 17.2967 4.26685 17.0873 2.85156H17.3008H18.0508H19.8008V4.60156Z" stroke="black"/>
</g>
<defs>
<clipPath id="clip0_1698_72307">
<rect width="24" height="24" fill="white" transform="translate(0.0507812 0.851562)"/>
</clipPath>
</defs>
</svg>
