<svg width="73" height="33" viewBox="0 0 73 33" fill="none" xmlns="http://www.w3.org/2000/svg">
<g clip-path="url(#clip0_515_53896)">
<path d="M68.9375 0.228516H4.9375V32.2119H68.9375V0.228516Z" fill="#F5F5F5"/>
<path d="M60.9446 4.52539V5.75827L60.1954 4.52539H55.109V5.75827L54.4681 4.52539H47.5628C46.3851 4.52539 45.368 4.68552 44.5663 5.11402V4.52539H39.8035V5.11402C39.2671 4.68552 38.5709 4.52539 37.7691 4.52539H20.3706L19.193 7.20089L17.9631 4.52539H12.5035V5.75827L11.8598 4.52539H7.20439L5.00977 9.50389V15.0156H8.11389L8.81027 13.3046H10.364L11.0054 15.0156H17.0535V13.7303L17.5898 15.0156H20.7466L21.283 13.6778V15.0156H36.2708V12.2319H36.5359C36.7518 12.2319 36.8041 12.2873 36.8041 12.6081V15.0156H44.5663V14.3745C45.2076 14.6953 46.1728 15.0156 47.4576 15.0156H50.7224L51.4161 13.3046H52.9699L53.6664 15.0156H59.9273V13.4126L60.8925 15.0156H65.9231V4.52539H60.9446ZM24.3873 13.5173H22.5655V7.62964L19.9423 13.5174H18.3916L15.7681 7.62964V13.5174H12.1278L11.4338 11.8589H7.68564L6.99189 13.5174H5.06514L8.27414 6.02377H10.9499L14.002 13.0889V6.02364H16.8934L19.2486 11.1098L21.4433 6.02364H24.3874L24.3873 13.5173ZM31.721 7.57689H27.544V8.91502H31.6654V10.4655H27.544V11.9665H31.721V13.5173H25.7251V6.02364H31.721V7.57689ZM39.8006 10.6814C40.0686 11.0546 40.1211 11.3779 40.1211 12.0193V13.5173H38.3024V12.5554C38.3024 12.1271 38.3576 11.4829 38.0341 11.1099C37.769 10.8416 37.3405 10.7894 36.6963 10.7894H34.7698V13.5174H33.0034V6.02364H37.125C38.0374 6.02364 38.6788 6.02364 39.2673 6.34414C39.8564 6.71989 40.2291 7.20089 40.2291 8.05802C40.2291 9.23552 39.4276 9.82439 38.9466 10.037C39.3195 10.1974 39.6403 10.4655 39.8006 10.6814ZM43.0681 13.5173H41.2493V6.02364H43.0681V13.5173ZM64.3169 13.5173H61.749L58.3766 7.89764V13.5173H54.736L54.039 11.8588H50.2939L49.5971 13.5173H47.5103C46.6534 13.5173 45.5284 13.3046 44.887 12.6605C44.2981 12.0191 43.9776 11.162 43.9776 9.82439C43.9776 8.69939 44.1378 7.68177 44.9395 6.88027C45.4756 6.29164 46.4406 6.02352 47.6705 6.02352H49.3816V7.62964H47.6705C47.0291 7.62964 46.6534 7.73727 46.2773 8.05814C45.9568 8.37864 45.7965 8.96751 45.7965 9.77202C45.7965 10.5735 45.9566 11.1621 46.2773 11.5384C46.5458 11.8066 47.0293 11.9114 47.5104 11.9114H48.3119L50.8825 6.02364H53.5585L56.555 13.0888V6.02364H59.3388L62.4984 11.2148V6.02364H64.317L64.3169 13.5173Z" fill="black"/>
<path d="M53.3985 10.2527H50.9355L52.1653 7.30859L53.3985 10.2527Z" fill="black"/>
<path d="M38.1972 8.37805C38.1972 8.6988 38.0894 8.96692 37.8738 9.07455C37.6087 9.23492 37.3403 9.23492 36.964 9.23492H34.7695V7.57617H36.964C37.2848 7.57617 37.6609 7.57617 37.8738 7.6843C38.0894 7.8448 38.1972 8.05742 38.1972 8.37805Z" fill="black"/>
<path d="M10.7902 10.2527H8.33008L9.56008 7.30859L10.7902 10.2527Z" fill="black"/>
<path d="M65.3339 18.924H68.8666V17.4258H65.5495C64.5849 17.4258 63.8356 17.6939 63.2995 18.0669V17.4258H58.4286C57.6271 17.4258 56.7147 17.6384 56.2337 18.0669V17.4258H47.5099V18.0669C46.7608 17.5308 45.6354 17.4258 45.047 17.4258H39.2668V18.0669C38.7306 17.5308 37.5006 17.4258 36.7514 17.4258H30.2747L28.7766 19.0318L27.3834 17.4258H17.75V27.916H27.223L28.7768 26.31L30.1671 27.916H36.0551V25.4532H36.5912C37.393 25.4532 38.3024 25.4532 39.1069 25.0799V27.916H43.9253V25.1848H44.1904C44.4585 25.1848 44.5109 25.1848 44.5109 25.5085V27.916H59.1781C60.0874 27.916 61.0524 27.7032 61.5859 27.272V27.916H66.2435C67.2084 27.916 68.1702 27.7559 68.8669 27.435V25.529C68.4064 26.1294 67.5874 26.4177 66.4591 26.4177H62.9789V24.8117H66.4591C66.7799 24.8117 67.0481 24.7563 67.153 24.6513C67.2609 24.5434 67.3688 24.3832 67.3688 24.1705C67.3688 23.9547 67.261 23.7418 67.153 23.6342C67.0481 23.526 66.8325 23.4738 66.5119 23.4738C64.8531 23.4187 62.7661 23.526 62.7661 21.171C62.7659 20.1013 63.4596 18.924 65.3339 18.924ZM36.6989 23.9025H34.4489V26.4177H30.9714L28.7765 23.9548L26.4739 26.4177H19.356V18.924H26.5817L28.7766 21.3867L31.0765 18.924H36.8037C38.197 18.924 39.8031 19.3525 39.8031 21.3867C39.8031 23.4738 38.2496 23.9025 36.6989 23.9025ZM47.5099 23.5788C47.7226 23.9548 47.778 24.2753 47.778 24.972V26.4175H46.0119V25.5084C46.0119 25.0245 46.0119 24.3832 45.6911 24.0069C45.423 23.7418 45.0471 23.6867 44.4058 23.6867H42.4791V26.4177H40.6575V18.924H44.7789C45.6885 18.924 46.3849 18.9763 46.974 19.2998C47.5625 19.6205 47.8864 20.1013 47.8864 20.9583C47.8864 22.136 47.0817 22.7774 46.6006 22.9375C47.0287 23.0979 47.3495 23.3662 47.5099 23.5788ZM54.8961 20.4775H50.6696V21.8679H54.788V23.3662H50.6696V24.8639H54.8961V26.4177H48.9002V18.924H54.8961V20.4775ZM59.446 26.4177H55.9655V24.8117H59.446C59.7665 24.8117 59.9823 24.7563 60.1426 24.6513C60.2475 24.5434 60.355 24.3832 60.355 24.1705C60.355 23.9547 60.2475 23.7418 60.1426 23.6342C60.0345 23.526 59.8189 23.4738 59.4984 23.4738C57.84 23.4187 55.753 23.526 55.753 21.171C55.753 20.1012 56.3939 18.9239 58.3206 18.9239H61.9087V20.5299H58.5889C58.2684 20.5299 58.0554 20.5299 57.8924 20.6347C57.6794 20.7953 57.627 20.9582 57.627 21.2235C57.627 21.4918 57.7874 21.652 58.0001 21.7599C58.2159 21.8127 58.4285 21.8678 58.6968 21.8678H59.6586C60.6758 21.8678 61.3201 22.0807 61.7485 22.4564C62.0693 22.8297 62.2819 23.3133 62.2819 24.0624C62.282 25.6687 61.265 26.4177 59.446 26.4177Z" fill="black"/>
<path d="M45.9035 21.2791C45.9035 21.5996 45.7434 21.868 45.5275 22.0281C45.2621 22.136 44.9941 22.136 44.6734 22.136L42.4785 22.1885V20.4746H44.6734C44.9941 20.4746 45.3144 20.4746 45.5275 20.6347C45.7433 20.743 45.9035 20.9582 45.9035 21.2791Z" fill="black"/>
<path d="M37.8741 21.3867C37.8741 22.0281 37.4455 22.4044 36.8041 22.4044H34.4492V20.4746H36.8041C37.4483 20.4746 37.8741 20.743 37.8741 21.3867Z" fill="black"/>
<path d="M32.6819 19.7266V25.7776L29.8984 22.6704L32.6819 19.7266Z" fill="black"/>
<path d="M27.6 22.6704L25.5654 24.8649H21.123V23.3671H25.0814V21.8689H21.123V20.4785H25.6177L27.6 22.6704Z" fill="black"/>
<path d="M68.8661 20.5312V22.595C68.831 22.5481 68.7962 22.5018 68.758 22.4578C68.3296 22.082 67.6885 21.8691 66.6713 21.8691H65.7097C65.4413 21.8691 65.2258 21.814 65.013 21.7612C64.7971 21.6534 64.6367 21.4931 64.6367 21.2249C64.6367 20.9595 64.7446 20.7966 64.905 20.636C65.0651 20.5312 65.2808 20.5312 65.6013 20.5312H68.8661Z" fill="black"/>
</g>
<rect x="1.4375" y="0.728516" width="71" height="30.9834" stroke="#795FA0"/>
<defs>
<clipPath id="clip0_515_53896">
<rect x="0.9375" y="0.228516" width="72" height="31.9834" fill="white"/>
</clipPath>
</defs>
</svg>
