<svg width="65" height="33" viewBox="0 0 65 33" fill="none" xmlns="http://www.w3.org/2000/svg">
<g id="apple pay 1" clip-path="url(#clip0_515_53885)">
<g id="Group">
<g id="Group_2">
<g id="Apple_pay">
<path id="Vector" d="M20.8834 19.2238C20.6172 19.839 20.3021 20.4054 19.937 20.9258C19.4391 21.636 19.0312 22.127 18.7173 22.3997C18.2304 22.8475 17.7089 23.0771 17.15 23.0902C16.7491 23.0902 16.2654 22.9759 15.7021 22.7442C15.1373 22.514 14.6184 22.3997 14.1438 22.3997C13.6461 22.3997 13.1123 22.514 12.5414 22.7442C11.9693 22.9759 11.5086 23.0966 11.1563 23.1085C10.6209 23.1315 10.0865 22.8955 9.55344 22.3997C9.21364 22.103 8.78829 21.5943 8.2784 20.8739C7.73124 20.1043 7.28163 19.2122 6.9292 18.1947C6.552 17.096 6.36328 16.0317 6.36328 15.0018C6.36328 13.8215 6.61804 12.8039 7.12855 11.9511C7.53014 11.2661 8.06416 10.7253 8.73264 10.3286C9.40073 9.93213 10.123 9.72977 10.9005 9.71702C11.326 9.71702 11.8839 9.84846 12.5776 10.1073C13.2689 10.3667 13.7131 10.4982 13.9077 10.4982C14.0533 10.4982 14.5465 10.3445 15.3825 10.0376C16.1731 9.75304 16.8407 9.63535 17.3871 9.6815C18.8687 9.80119 19.9815 10.3851 20.7217 11.4374C19.3971 12.24 18.7417 13.3644 18.7545 14.8068C18.7666 15.9302 19.1739 16.8652 19.9754 17.6077C20.3383 17.952 20.7439 18.2187 21.1946 18.4077C21.0967 18.6916 20.9931 18.9631 20.8834 19.2238ZM17.4859 5.85414C17.4859 6.73509 17.1644 7.55715 16.5232 8.31829C15.7493 9.22289 14.8132 9.74553 13.798 9.66299C13.7853 9.55756 13.7775 9.4465 13.7775 9.32969C13.7775 8.48413 14.1458 7.57953 14.7995 6.83965C15.1256 6.4652 15.5403 6.15379 16.0436 5.90529C16.5458 5.66079 17.0206 5.52497 17.4677 5.50195C17.4804 5.61976 17.4859 5.73733 17.4859 5.85414Z" fill="black"/>
<g id="Group_3">
<path id="Vector_2" d="M34.4238 7.75049C33.6926 7.36167 32.8363 7.16406 31.8782 7.16406H25.6328V22.4399H28.0323V16.5792H31.8782C32.8363 16.5792 33.6927 16.3836 34.4233 15.9979C35.1566 15.6113 35.7332 15.0569 36.1368 14.3498C36.5401 13.6438 36.7442 12.8137 36.7442 11.8823C36.7442 10.9509 36.54 10.1188 36.1371 9.4096C35.7329 8.69873 35.1568 8.14082 34.4238 7.75049ZM33.1816 9.66173C33.5309 9.87084 33.8058 10.1689 33.9987 10.5478C34.1919 10.9293 34.2906 11.3784 34.2906 11.882C34.2906 12.3789 34.1919 12.8243 33.9987 13.2057C33.8058 13.5846 33.5313 13.8806 33.1824 14.0859C32.8319 14.2921 32.419 14.3964 31.9547 14.3964H28.0323V9.3467H31.9547C32.4186 9.3467 32.8313 9.45225 33.1816 9.66173Z" fill="black"/>
<path id="Vector_3" d="M45.2585 11.505C44.5267 11.1593 43.6367 10.9844 42.6147 10.9844C41.6799 10.9844 40.8181 11.136 40.0522 11.4351C39.8773 11.5039 39.708 11.5793 39.5488 11.6601C38.7168 12.0821 38.1487 12.9315 38.0663 13.8774L37.99 14.755H40.6L40.5975 14.6694C40.5829 14.1561 40.8517 13.5202 41.2753 13.3907C41.7338 13.2508 42.2082 13.1798 42.6853 13.1798C43.4457 13.1798 44.0396 13.3864 44.4505 13.7931C44.8608 14.1994 45.0689 14.781 45.0689 15.521V15.9339H41.7766C40.378 15.9339 39.3152 16.2326 38.6184 16.8218C37.9176 17.4147 37.5625 18.3124 37.5625 19.4902C37.5625 20.7292 37.9501 21.6668 38.7146 22.2781C39.474 22.8852 40.6311 23.1928 42.1544 23.1928C42.6703 23.1928 43.1418 23.1406 43.5552 23.0384C43.9711 22.935 44.3435 22.7776 44.6607 22.5708C44.8069 22.475 44.943 22.3668 45.069 22.2461V23.0239H47.5255V15.4194C47.5255 14.4919 47.3312 13.6872 46.9475 13.0268C46.5629 12.3651 45.9946 11.8532 45.2585 11.505ZM44.4418 20.8794C44.0013 21.0626 43.3191 21.1548 42.4139 21.1548C41.593 21.1548 40.9751 21.0158 40.5784 20.7412C40.1852 20.4694 39.9946 20.0606 39.9946 19.4903C39.9946 18.9694 40.1417 18.5792 40.4316 18.3301C40.7258 18.0776 41.1823 17.9497 41.7881 17.9497H45.0688V20.0768C45.0689 20.4418 44.8634 20.7043 44.4418 20.8794Z" fill="black"/>
<path id="Vector_4" d="M57.0248 11.4863L54.3284 19.3075L51.3287 11.4863H48.8574L52.9387 23.3387L52.8062 23.7233C52.6314 24.0949 52.426 24.3599 52.1959 24.51C51.9657 24.6597 51.6479 24.7356 51.2504 24.7356H49.773V26.9386H51.2504C51.8611 26.9386 52.3849 26.8743 52.8067 26.7481C53.2336 26.6202 53.5993 26.405 53.8927 26.1086C54.1846 25.8136 54.4229 25.4099 54.6015 24.9096L59.4796 11.4865L57.0248 11.4863Z" fill="black"/>
</g>
</g>
<g id="Group_4">
<path id="Vector_5" d="M64.3122 0.846028V31.5954H1.52962V0.846028H64.3122ZM64.9376 0.220703H0.904297V32.2207H64.9376V0.220703Z" fill="url(#paint0_linear_515_53885)"/>
</g>
</g>
</g>
</g>
<defs>
<linearGradient id="paint0_linear_515_53885" x1="0.904297" y1="16.2207" x2="64.9376" y2="16.2207" gradientUnits="userSpaceOnUse">
<stop offset="0.2299" stop-color="#785E9F"/>
<stop offset="1" stop-color="#A86E9C"/>
</linearGradient>
<clipPath id="clip0_515_53885">
<rect width="64.0333" height="32" fill="white" transform="translate(0.904297 0.220703)"/>
</clipPath>
</defs>
</svg>
