<svg width="65" height="33" viewBox="0 0 65 33" fill="none" xmlns="http://www.w3.org/2000/svg">
<g id="google pay 1" clip-path="url(#clip0_515_53870)">
<g id="Group">
<g id="Group_2">
<g id="Google_Pay">
<g id="Group_3">
<path id="Vector" d="M34.6478 6.90762C33.9158 6.51779 33.0582 6.32031 32.0991 6.32031H25.8457V21.6166H28.2481V15.7481H32.0991C33.0582 15.7481 33.9158 15.5522 34.6478 15.166C35.3818 14.7787 35.959 14.2237 36.3635 13.5158C36.7671 12.8088 36.972 11.9775 36.972 11.0446C36.972 10.112 36.7673 9.2791 36.3635 8.56861C35.9595 7.85724 35.382 7.29832 34.6478 6.90762ZM33.4044 8.82136C33.7541 9.03085 34.0296 9.32913 34.2226 9.70857C34.4165 10.0906 34.5148 10.5401 34.5148 11.0446C34.5148 11.5423 34.4165 11.9883 34.2226 12.3702C34.0296 12.7494 33.7546 13.0459 33.4051 13.2517C33.0539 13.4579 32.641 13.5626 32.1759 13.5626H28.2482V8.50545H32.1759C32.6406 8.50545 33.0539 8.61175 33.4044 8.82136Z" fill="black"/>
<path id="Vector_2" d="M45.4981 10.6662C44.7649 10.3199 43.8742 10.1445 42.8501 10.1445C41.9144 10.1445 41.0511 10.2964 40.2847 10.5959C40.1093 10.6648 39.9394 10.7402 39.7803 10.8213C38.9472 11.2439 38.3782 12.0948 38.2957 13.0418L38.2191 13.9202H40.8326L40.8301 13.8344C40.8153 13.3207 41.0851 12.684 41.5092 12.5544C41.9679 12.4142 42.4433 12.3434 42.9209 12.3434C43.6825 12.3434 44.2773 12.5499 44.6885 12.957C45.0994 13.3641 45.308 13.9466 45.308 14.6874V15.101H42.0108C40.6102 15.101 39.5464 15.4004 38.8486 15.9901C38.1469 16.5838 37.791 17.4828 37.791 18.6618C37.791 19.9025 38.1793 20.8416 38.945 21.4538C39.705 22.0615 40.8642 22.3698 42.3892 22.3698C42.9062 22.3698 43.378 22.3179 43.7923 22.2146C44.209 22.1116 44.5815 21.9538 44.8993 21.7464C45.0459 21.6508 45.1825 21.5426 45.3083 21.4215V22.2005H47.7678V14.5858C47.7678 13.657 47.5733 12.8512 47.1891 12.1897C46.8041 11.5273 46.235 11.0147 45.4981 10.6662ZM44.6797 20.0531C44.2389 20.2361 43.5559 20.3288 42.6493 20.3288C41.8274 20.3288 41.2088 20.1895 40.8115 19.9145C40.4181 19.6426 40.2269 19.2334 40.2269 18.662C40.2269 18.1404 40.3742 17.7496 40.6645 17.5002C40.959 17.2475 41.416 17.1195 42.0228 17.1195H45.3082V19.2493C45.3082 19.6147 45.1027 19.8777 44.6797 20.0531Z" fill="black"/>
<path id="Vector_3" d="M57.2802 10.6484L54.5802 18.4808L51.5765 10.6484H49.1016L53.1886 22.5171L53.0556 22.9021C52.8807 23.2745 52.6753 23.5393 52.4447 23.6897C52.2143 23.8398 51.8958 23.9158 51.4981 23.9158H50.0187V26.1217H51.4981C52.11 26.1217 52.6341 26.0576 53.0564 25.9313C53.4842 25.8029 53.8503 25.5871 54.1439 25.2907C54.4362 24.9953 54.6751 24.5909 54.8534 24.0899L59.7381 10.6484H57.2802Z" fill="black"/>
</g>
<g id="Group_4">
<path id="Vector_4" d="M8.93807 13.9678C8.93807 13.1434 9.1493 12.3679 9.52037 11.6916L7.43254 9.57422C6.55596 10.8184 6.03906 12.3334 6.03906 13.9678C6.03906 15.1337 6.30245 16.2396 6.77132 17.2296L9.17944 15.4597C9.02361 14.9903 8.93807 14.4889 8.93807 13.9678Z" fill="#FABF15"/>
<path id="Vector_5" d="M21.3355 13.9692V12.5195H13.6875V15.4183H18.2105C17.8288 16.6068 16.9907 17.5923 15.9039 18.1681L17.9924 20.2866C20.009 18.9078 21.3355 16.5908 21.3355 13.9692Z" fill="#4788F3"/>
<path id="Vector_6" d="M13.6876 18.7181C11.5901 18.7181 9.80694 17.3507 9.17961 15.4609L6.77148 17.2309C7.99812 19.8208 10.6365 21.6169 13.6876 21.6169C15.283 21.6169 16.7652 21.1254 17.9924 20.2864L15.904 18.168C15.242 18.5193 14.4874 18.7181 13.6876 18.7181Z" fill="#3BA959"/>
<path id="Vector_7" d="M13.6866 6.32031C11.1035 6.32031 8.81711 7.60848 7.43164 9.57513L9.51948 11.6925C10.3268 10.22 11.8918 9.21932 13.6865 9.21932C14.6888 9.21932 15.6529 9.53361 16.4566 10.112C16.6107 10.2235 16.7602 10.3432 16.9021 10.4738L18.8658 8.34111C17.4507 7.03794 15.6113 6.32031 13.6866 6.32031Z" fill="#E94E42"/>
</g>
</g>
<g id="Group_5">
<path id="Vector_8" d="M64.279 0.846028V31.5954H1.49642V0.846028H64.279ZM64.9044 0.220703H0.871094V32.2207H64.9044V0.220703Z" fill="url(#paint0_linear_515_53870)"/>
</g>
</g>
</g>
</g>
<defs>
<linearGradient id="paint0_linear_515_53870" x1="0.871094" y1="16.2207" x2="64.9044" y2="16.2207" gradientUnits="userSpaceOnUse">
<stop offset="0.2299" stop-color="#785E9F"/>
<stop offset="1" stop-color="#A86E9C"/>
</linearGradient>
<clipPath id="clip0_515_53870">
<rect width="64.0333" height="32" fill="white" transform="translate(0.871094 0.220703)"/>
</clipPath>
</defs>
</svg>
