<svg width="65" height="33" viewBox="0 0 65 33" fill="none" xmlns="http://www.w3.org/2000/svg">
<g id="master card 1" clip-path="url(#clip0_515_53849)">
<g id="Group">
<g id="Group_2">
<g id="Masster_card">
<g id="Group_3">
<path id="Vector" d="M29.1601 13.7594C29.1601 10.612 30.5991 7.8007 32.8552 5.94761C31.111 4.51474 28.8784 3.6543 26.445 3.6543C20.8641 3.6543 16.3398 8.17865 16.3398 13.7594C16.3398 19.3406 20.8641 23.8649 26.445 23.8649C28.8784 23.8649 31.111 23.0045 32.8552 21.5716C30.5991 19.7181 29.1601 16.9072 29.1601 13.7594Z" fill="#EB001B"/>
<path id="Vector_2" d="M39.2657 3.6543C36.8323 3.6543 34.5996 4.51474 32.8555 5.94761C35.1115 7.8007 36.5505 10.612 36.5505 13.7594C36.5505 16.9072 35.1115 19.7183 32.8555 21.5716C34.5996 23.0045 36.8323 23.8649 39.2657 23.8649C44.8464 23.8649 49.3708 19.3406 49.3708 13.7594C49.3708 8.17865 44.8464 3.6543 39.2657 3.6543Z" fill="#F79E1B"/>
<path id="Vector_3" d="M36.5502 13.7591C36.5502 10.6117 35.1112 7.80035 32.8552 5.94727C30.5992 7.80035 29.1602 10.6117 29.1602 13.7591C29.1602 16.9068 30.5992 19.7179 32.8552 21.5713C35.1112 19.7178 36.5502 16.9068 36.5502 13.7591Z" fill="#FF5F00"/>
</g>
<g id="Group_4">
<path id="Vector_4" d="M35.4695 27.1974C35.4695 26.7429 35.6685 26.4869 36.0378 26.4869C36.1516 26.4869 36.2935 26.5153 36.4071 26.544L36.5776 25.9758C36.464 25.9473 36.2935 25.9473 36.1798 25.9473C35.8388 25.9473 35.6116 26.1179 35.4694 26.345V26.004H34.873V28.7313H35.4694V27.1974H35.4695Z" fill="black"/>
<path id="Vector_5" d="M29.5597 27.7932C29.5597 28.4181 29.8153 28.7874 30.4972 28.7874C30.7529 28.7874 31.0367 28.7021 31.2357 28.5885L31.0652 28.0772C30.8949 28.1908 30.696 28.2193 30.554 28.2193C30.2696 28.2193 30.1559 28.0489 30.1559 27.7648V26.5431H31.1221V26.0034H30.1559V25.1797H29.5596V26.0034H29.0195V26.5431H29.5596V27.7932H29.5597Z" fill="black"/>
<path id="Vector_6" d="M32.9972 28.788C33.395 28.788 33.7926 28.6744 34.1051 28.4187L33.8211 27.9927C33.5939 28.163 33.31 28.2767 33.0257 28.2767C32.6566 28.2767 32.2872 28.1064 32.2019 27.6233H34.2188C34.2188 27.5381 34.2188 27.4813 34.2188 27.3961C34.2473 26.5156 33.7361 25.9473 32.9689 25.9473C32.1736 25.9473 31.6055 26.5152 31.6055 27.3678C31.6053 28.2198 32.1735 28.788 32.9972 28.788ZM32.9688 26.4583C33.3382 26.4583 33.5938 26.6858 33.6505 27.112H32.2303C32.2871 26.7428 32.5427 26.4583 32.9688 26.4583Z" fill="black"/>
<path id="Vector_7" d="M38.2245 28.788C38.6224 28.788 38.9062 28.7027 39.1904 28.4755L38.9064 27.9927C38.6793 28.163 38.4519 28.2482 38.1961 28.2482C37.7134 28.2482 37.3724 27.9073 37.3724 27.3678C37.3724 26.8564 37.7134 26.5152 38.1961 26.4868C38.4519 26.4868 38.6791 26.5721 38.9064 26.7428L39.1904 26.2598C38.9064 26.0326 38.6224 25.9473 38.2245 25.9473C37.3439 25.9473 36.7754 26.5438 36.7754 27.3678C36.7754 28.1914 37.3439 28.788 38.2245 28.788Z" fill="black"/>
<path id="Vector_8" d="M40.8381 28.788C41.2359 28.788 41.5198 28.646 41.6903 28.3903V28.7312H42.2869V27.3678V26.004H41.6903V26.345C41.4913 26.0895 41.2075 25.9473 40.8381 25.9473C40.0712 25.9473 39.4746 26.544 39.4746 27.3678C39.4746 28.1914 40.0712 28.788 40.8381 28.788ZM40.9235 26.4868C41.4062 26.4868 41.7472 26.8564 41.7472 27.3678C41.7472 27.8505 41.4062 28.2482 40.9235 28.2482C40.412 28.2198 40.0996 27.8505 40.0996 27.3678C40.0996 26.8846 40.412 26.4868 40.9235 26.4868Z" fill="black"/>
<path id="Vector_9" d="M43.6786 27.1974C43.6786 26.7429 43.8776 26.4869 44.2469 26.4869C44.3606 26.4869 44.5025 26.5153 44.6161 26.544L44.7865 25.9758C44.6729 25.9473 44.5025 25.9473 44.3888 25.9473C44.0478 25.9473 43.8207 26.1179 43.6785 26.345V26.004H43.082V28.7313H43.6785V27.1974H43.6786Z" fill="black"/>
<path id="Vector_10" d="M46.3207 28.7875C46.7184 28.7875 47.0025 28.6455 47.1728 28.3898V28.7307H47.7694V27.3672V24.9238H47.1728V26.3443C46.974 26.0888 46.6899 25.9466 46.3207 25.9466C45.5536 25.9466 44.957 26.5433 44.957 27.3671C44.957 28.1909 45.5536 28.7875 46.3207 28.7875ZM46.4059 26.4863C46.8889 26.4863 47.2296 26.8558 47.2296 27.3672C47.2296 27.85 46.8889 28.2477 46.4059 28.2477C45.8945 28.2193 45.582 27.85 45.582 27.3672C45.582 26.8841 45.8945 26.4863 46.4059 26.4863Z" fill="black"/>
<path id="Vector_11" d="M27.3729 28.2767C26.9751 28.2767 26.6626 28.1347 26.4637 27.9927L26.1797 28.4472C26.4921 28.6744 26.9182 28.7881 27.3443 28.7881C28.1397 28.7881 28.5942 28.4188 28.5942 27.9074C28.5942 27.4247 28.2249 27.1689 27.6567 27.0837L27.3727 27.0552C27.117 27.0266 26.9181 26.9699 26.9181 26.7996C26.9181 26.6006 27.117 26.487 27.4295 26.487C27.7704 26.487 28.1114 26.629 28.2815 26.7143L28.5373 26.2313C28.2531 26.0324 27.8556 25.9473 27.4295 25.9473C26.7477 25.9473 26.2931 26.2883 26.2931 26.828C26.2931 27.2825 26.634 27.5382 27.2306 27.6233L27.5146 27.6518C27.827 27.7087 27.9978 27.7938 27.9978 27.9358C27.9981 28.1347 27.7706 28.2767 27.3729 28.2767Z" fill="black"/>
<path id="Vector_12" d="M24.1918 28.788C24.5895 28.788 24.8736 28.646 25.0439 28.3903V28.7312H25.6405V27.3678V26.004H25.0439V26.345C24.845 26.0895 24.561 25.9473 24.1918 25.9473C23.4247 25.9473 22.8281 26.544 22.8281 27.3678C22.828 28.1914 23.4247 28.788 24.1918 28.788ZM24.2486 26.4868C24.7314 26.4868 25.0723 26.8564 25.0723 27.3678C25.0723 27.8505 24.7314 28.2482 24.2486 28.2482C23.7371 28.2198 23.4247 27.8505 23.4247 27.3678C23.4247 26.8846 23.7371 26.4868 24.2486 26.4868Z" fill="black"/>
<path id="Vector_13" d="M18.5377 28.7313V27.2257C18.5377 26.7429 18.7932 26.5156 19.1912 26.5156C19.5889 26.5156 19.7877 26.7712 19.7877 27.2257V28.7313H20.3844V27.2257C20.3844 26.7429 20.6684 26.5156 21.0379 26.5156C21.4356 26.5156 21.6344 26.7712 21.6344 27.2257V28.7313H22.2879V27.0267C22.2879 26.3732 21.8901 25.9473 21.2084 25.9473C20.8673 25.9473 20.4981 26.0608 20.2425 26.4303C20.0435 26.1179 19.7596 25.9473 19.3333 25.9473C19.0494 25.9473 18.7651 26.0326 18.538 26.345V26.004H17.9414V28.7313H18.5377Z" fill="black"/>
</g>
</g>
<g id="Group_5">
<path id="Vector_14" d="M64.2458 0.846028V31.5954H1.46322V0.846028H64.2458ZM64.8712 0.220703H0.837891V32.2207H64.8712V0.220703Z" fill="url(#paint0_linear_515_53849)"/>
</g>
</g>
</g>
</g>
<defs>
<linearGradient id="paint0_linear_515_53849" x1="0.837891" y1="16.2207" x2="64.8712" y2="16.2207" gradientUnits="userSpaceOnUse">
<stop offset="0.2299" stop-color="#785E9F"/>
<stop offset="1" stop-color="#A86E9C"/>
</linearGradient>
<clipPath id="clip0_515_53849">
<rect width="64.0333" height="32" fill="white" transform="translate(0.837891 0.220703)"/>
</clipPath>
</defs>
</svg>
