<svg width="65" height="33" viewBox="0 0 65 33" fill="none" xmlns="http://www.w3.org/2000/svg">
<g id="pay pal 1" clip-path="url(#clip0_515_53840)">
<g id="Group">
<g id="Group_2">
<g id="Group_3">
<path id="Vector" d="M64.2129 0.853516V31.5869H1.46289V0.853516H64.2129ZM64.8379 0.228516H0.837891V32.2119H64.8379V0.228516Z" fill="url(#paint0_linear_515_53840)"/>
</g>
<path id="Vector_2" d="M28.4157 25.4075L28.7561 23.2452L27.998 23.2275H24.377L26.8933 7.27216C26.9088 7.17141 26.9957 7.09728 27.0977 7.09766H33.2031C35.23 7.09766 36.6288 7.51941 37.3591 8.35191C37.7013 8.74241 37.9195 9.15066 38.025 9.59966C38.1357 10.0709 38.1376 10.6338 38.0295 11.3207L38.0217 11.3707V11.8108L38.364 12.0048C38.6255 12.1373 38.8603 12.3163 39.0573 12.5334C39.3502 12.8673 39.5396 13.2917 39.6196 13.7948C39.7023 14.3123 39.675 14.9279 39.5396 15.6252C39.3833 16.427 39.1307 17.1255 38.7897 17.6969C38.4887 18.2089 38.0841 18.6524 37.6018 18.9988C37.1488 19.3203 36.6105 19.5643 36.0018 19.7205C35.4122 19.8742 34.7398 19.9517 34.0023 19.9517H33.5272C33.1873 19.9517 32.8575 20.074 32.5983 20.2933C32.3397 20.5149 32.1681 20.8214 32.1141 21.1577L32.0782 21.3523L31.4768 25.1633L31.4495 25.3032C31.4422 25.3474 31.43 25.3695 31.4116 25.3845C31.394 25.3989 31.3721 25.407 31.3491 25.4074H28.4157V25.4075Z" fill="#253B80"/>
<path id="Vector_3" d="M38.6887 11.4219C38.6704 11.5385 38.6497 11.6576 38.6262 11.7799C37.821 15.9136 35.0664 17.3418 31.5484 17.3418H29.7572C29.3269 17.3418 28.9643 17.6541 28.8973 18.0786L27.9802 23.895L27.7205 25.5436C27.681 25.7936 27.8515 26.0282 28.1015 26.0677C28.125 26.0715 28.149 26.0734 28.1729 26.0734H31.3498C31.726 26.0734 32.0455 25.8 32.1049 25.4291L32.1362 25.2676L32.7343 21.4716L32.7727 21.2634C32.8313 20.891 33.1515 20.6177 33.5278 20.6177H34.0029C37.081 20.6177 39.4907 19.368 40.1949 15.7516C40.4892 14.2409 40.3368 12.9794 39.5583 12.0922C39.3114 11.8179 39.0169 11.5907 38.6887 11.4219Z" fill="#179BD7"/>
<path id="Vector_4" d="M37.8456 11.0861C37.5885 11.0117 37.3271 10.9536 37.0626 10.9122C36.5401 10.832 36.0121 10.7935 35.4835 10.7971H30.6981C30.3219 10.7967 30.0016 11.0709 29.9437 11.4427L28.9257 17.8905L28.8965 18.0786C28.962 17.6544 29.3271 17.3416 29.7564 17.3417H31.5476C35.0657 17.3417 37.8202 15.913 38.6254 11.7799C38.6495 11.6575 38.6696 11.5384 38.6879 11.4219C38.4755 11.3105 38.254 11.217 38.026 11.1427C37.9662 11.1229 37.9062 11.104 37.8456 11.0861Z" fill="#222D65"/>
<path id="Vector_5" d="M29.9432 11.4429C30.0006 11.0709 30.3212 10.7966 30.6976 10.7979H35.4829C36.0498 10.7979 36.5792 10.835 37.0621 10.9131C37.3889 10.9644 37.7112 11.0413 38.0261 11.1429C38.2636 11.2216 38.4842 11.3148 38.6881 11.422C38.9276 9.89439 38.6861 8.85427 37.8602 7.91252C36.9496 6.87564 35.3059 6.43164 33.2029 6.43164H27.0974C26.6678 6.43164 26.3014 6.74402 26.2351 7.16902L23.6921 23.2884C23.6468 23.5746 23.8421 23.8433 24.1282 23.8886C24.1551 23.8929 24.1823 23.895 24.2094 23.8951H27.9787L28.9251 17.8906L29.9432 11.4429Z" fill="#253B80"/>
</g>
</g>
</g>
<defs>
<linearGradient id="paint0_linear_515_53840" x1="0.837891" y1="16.2203" x2="64.8379" y2="16.2203" gradientUnits="userSpaceOnUse">
<stop offset="0.2299" stop-color="#785E9F"/>
<stop offset="1" stop-color="#A86E9C"/>
</linearGradient>
<clipPath id="clip0_515_53840">
<rect width="64" height="32" fill="white" transform="translate(0.837891 0.220703)"/>
</clipPath>
</defs>
</svg>
