<svg width="65" height="33" viewBox="0 0 65 33" fill="none" xmlns="http://www.w3.org/2000/svg">
<g id="visa card 1" clip-path="url(#clip0_515_53831)">
<g id="Group">
<g id="Group_2">
<g id="Group_3">
<g id="Group_4">
<path id="Vector" d="M27.7477 24.8787H23.2561L26.0633 7.62664H30.5555L27.7477 24.8787ZM19.4775 7.62664L15.1955 19.4927L14.6886 16.9375L14.6891 16.9384L13.1778 9.18008C13.1778 9.18008 12.995 7.62664 11.0471 7.62664H3.96793L3.88477 7.9188C3.88477 7.9188 6.04977 8.36916 8.58321 9.8907L12.4856 24.8792H17.1654L24.3116 7.62664H19.4775ZM54.8063 24.8787H58.9306L55.3347 7.62614H51.7242C50.0569 7.62614 49.6507 8.91181 49.6507 8.91181L42.9518 24.8787H47.634L48.5704 22.3162H54.2802L54.8063 24.8787ZM49.8639 18.7761L52.2239 12.3198L53.5516 18.7761H49.8639ZM43.303 11.7754L43.9441 8.07063C43.9441 8.07063 41.966 7.31836 39.9041 7.31836C37.6752 7.31836 32.3819 8.29249 32.3819 13.0297C32.3819 17.4866 38.5944 17.5419 38.5944 19.8831C38.5944 22.2242 33.0222 21.8048 31.1831 20.3285L30.5152 24.2024C30.5152 24.2024 32.5209 25.1765 35.585 25.1765C38.6503 25.1765 43.2744 23.5894 43.2744 19.2699C43.2744 14.7844 37.006 14.3666 37.006 12.4163C37.0065 10.4656 41.3809 10.7161 43.303 11.7754Z" fill="#2566AF"/>
</g>
<path id="Vector_2" d="M14.6891 16.9388L13.1778 9.18026C13.1778 9.18026 12.995 7.62695 11.0471 7.62695H3.96793L3.88477 7.9191C3.88477 7.9191 7.28741 8.62435 10.551 11.2663C13.6715 13.7915 14.6891 16.9388 14.6891 16.9388Z" fill="#E6A540"/>
</g>
<g id="Group_5">
<path id="Vector_3" d="M64.2126 0.846028V31.5954H1.43001V0.846028H64.2126ZM64.838 0.220703H0.804688V32.2207H64.838V0.220703Z" fill="url(#paint0_linear_515_53831)"/>
</g>
</g>
</g>
</g>
<defs>
<linearGradient id="paint0_linear_515_53831" x1="0.804688" y1="16.2207" x2="64.838" y2="16.2207" gradientUnits="userSpaceOnUse">
<stop offset="0.2299" stop-color="#785E9F"/>
<stop offset="1" stop-color="#A86E9C"/>
</linearGradient>
<clipPath id="clip0_515_53831">
<rect width="64.0333" height="32" fill="white" transform="translate(0.804688 0.220703)"/>
</clipPath>
</defs>
</svg>
