<svg width="138" height="28" viewBox="0 0 138 28" fill="none" xmlns="http://www.w3.org/2000/svg">
	<g id="Group 3">
		<path id="Vector" d="M80.0664 8.5203C80.0664 17.3507 80.0529 17.2292 80.9036 18.2553C81.4301 18.8899 82.4968 19.4165 83.2799 19.4165H83.8605L83.82 18.4444L83.7795 17.4587L83.2529 17.3777C82.8884 17.3237 82.6183 17.1617 82.4023 16.9051L82.0917 16.5135L82.0647 8.5473L82.0242 0.581051L81.0521 0.540545L80.0664 0.500038V8.5203Z" fill="black" />
		<path id="Vector_2" d="M4.06414 0.78344C2.26836 1.1615 0.756119 2.59272 0.216034 4.41551C0.0270042 5.05011 0 6.14378 0 12.0577C0 15.8518 0.0405064 18.9978 0.0810127 19.0518C0.135021 19.0923 0.580591 18.9168 1.09367 18.6602L2.02532 18.2012V11.6661V5.13112L2.40338 4.41551C2.68692 3.84842 2.94346 3.57838 3.51055 3.24083C4.18566 2.83576 4.33418 2.79526 5.1308 2.83576C6.29199 2.90327 7.10211 3.42986 7.61519 4.45602L7.96625 5.15813V9.77585C7.96625 12.3278 8.02026 14.4341 8.07427 14.4746C8.14178 14.5151 8.60085 14.3396 9.08692 14.0695L9.97806 13.5969L10.0186 9.31678C10.0591 5.22564 10.0726 5.0096 10.3561 4.49652C11.4498 2.4577 13.9882 2.21466 15.3654 4.01045C15.5949 4.321 15.838 4.82057 15.8785 5.09062C16.027 6.00876 16.0945 6.03576 17.0937 5.50918C17.9308 5.06361 17.9713 5.0231 17.9038 4.63154C17.7553 3.90243 17.1477 2.82226 16.5131 2.20116C14.5958 0.270361 11.5578 0.229855 9.61351 2.09315L9.00591 2.66023L8.2903 1.99863C7.16962 0.985971 5.48186 0.499897 4.06414 0.78344Z" fill="black" />
		<path id="Vector_3" d="M60.624 1.79629C60.111 2.78194 60.1245 2.84945 61.0426 2.99798C61.3126 3.03848 61.8122 3.28152 62.1363 3.52456C63.9185 4.86127 63.662 7.44017 61.6367 8.52034C61.1911 8.76338 60.7861 8.81739 59.2063 8.8849L57.316 8.95241L56.8839 9.76254C56.6409 10.2081 56.4384 10.6537 56.4384 10.7347C56.4384 10.8697 56.9785 10.9102 58.7202 10.9102C60.9481 10.9102 61.0156 10.9237 61.7177 11.2883C62.1768 11.5178 62.5953 11.8824 62.8519 12.2469C63.2164 12.7735 63.2569 12.922 63.2569 13.8807C63.2569 14.8393 63.2164 14.9879 62.8519 15.5144C62.5953 15.879 62.1768 16.2436 61.7177 16.4731L61.0021 16.8511H56.8569H52.7118L52.2797 17.7288C52.0367 18.2149 51.8477 18.6739 51.8477 18.7414C51.8477 18.8225 53.5219 18.8765 56.4114 18.8765C61.4477 18.8765 61.8527 18.8225 63.0949 18.0393C64.8232 16.9322 65.7413 14.8933 65.3498 12.9895C65.1472 11.9904 64.6612 11.0857 63.9861 10.4241L63.473 9.92456L64.0671 9.26296C65.9304 7.18363 65.8764 4.22667 63.9185 2.33637C63.2975 1.72878 62.2038 1.10768 61.5017 0.986164C61.1101 0.905151 61.0696 0.945658 60.624 1.79629Z" fill="black" />
		<path id="Vector_4" d="M17.9572 6.4008C16.985 6.65734 16.1614 7.15692 15.2432 8.03455C12.1783 10.951 12.7184 16.2033 16.3099 18.4852C18.4027 19.8084 21.3597 19.7004 23.331 18.2016L24.0331 17.6616V18.4177V19.1603L25.0188 19.1198L25.9909 19.0793L26.0314 15.9063C26.0449 14.1375 26.0044 12.3147 25.9234 11.7881C25.3428 7.95354 21.6027 5.42865 17.9572 6.4008ZM21.4137 8.66915C22.7504 9.27675 23.6281 10.4784 23.9251 12.0987C24.0466 12.7738 24.0331 13.0708 23.8576 13.827C22.98 17.378 19.0778 18.5797 16.5935 16.0548C15.6483 15.0827 15.2568 14.1375 15.2568 12.8008C15.2568 10.6675 16.6475 8.85818 18.6863 8.3316C19.3479 8.15607 20.6441 8.3181 21.4137 8.66915Z" fill="black" />
		<path id="Vector_5" d="M32.0129 6.4C29.6906 7.0211 27.8543 9.00591 27.3277 11.4363C27.1927 12.0574 27.1387 13.3266 27.1387 15.73V19.146H28.1378H29.1505L29.191 15.3924C29.2315 11.6658 29.2315 11.6523 29.5826 10.8962C30.2577 9.46498 31.6079 8.47932 33.1876 8.27679L33.8897 8.18228V7.18312V6.18396L33.3226 6.19747C32.9986 6.19747 32.418 6.29198 32.0129 6.4Z" fill="black" />
		<path id="Vector_6" d="M43.5435 6.37346C42.5714 6.6165 42.0178 6.88654 41.2211 7.49413C39.5199 8.77684 38.6152 10.6401 38.6152 12.8815C38.6152 15.8114 40.3435 18.2283 43.0979 19.16C43.7865 19.3895 44.1781 19.43 45.2313 19.3895C46.379 19.349 46.6355 19.2815 47.5806 18.8359C49.93 17.7152 51.3072 15.5009 51.3072 12.8005C51.3072 10.9102 50.5781 9.23591 49.2009 7.95321C47.5941 6.44097 45.5553 5.87388 43.5435 6.37346ZM46.811 8.76333C48.4178 9.53295 49.2954 11.0047 49.2954 12.9085C49.2954 15.3254 47.5131 17.2427 45.1638 17.3642C41.2076 17.5667 39.0743 12.7195 41.8017 9.69498C42.4228 9.00637 42.9764 8.66882 43.8946 8.41228C44.8667 8.14224 45.7714 8.25025 46.811 8.76333Z" fill="black" />
		<path id="Vector_7" d="M71.2238 6.3737C69.59 6.76527 67.8077 8.18299 67.0516 9.66822C65.3099 13.0978 66.6466 17.2294 70.0221 18.8362C70.9537 19.2817 71.2373 19.3492 72.3174 19.3897C74.7478 19.4978 76.6246 18.5391 77.9343 16.5273C79.3385 14.3535 79.3656 11.3425 77.9883 9.16864C76.5706 6.92729 73.7352 5.76611 71.2238 6.3737ZM73.6272 8.41252C75.6795 8.95261 77.0162 10.6674 77.0027 12.8007C77.0027 14.1914 76.6111 15.1636 75.6795 16.1087C74.7208 17.0539 73.7622 17.4319 72.439 17.3644C70.8187 17.2834 69.5495 16.4328 68.7799 14.934C68.2533 13.9214 68.1723 12.2471 68.5774 11.167C69.0904 9.80324 70.2111 8.79058 71.6018 8.41252C72.52 8.16949 72.709 8.16949 73.6272 8.41252Z" fill="black" />
		<path id="Vector_8" d="M88.7759 6.37346C87.8038 6.6165 87.2502 6.88654 86.4536 7.49413C84.7523 8.77684 83.8477 10.6401 83.8477 12.8815C83.8477 15.8114 85.5759 18.2283 88.3304 19.16C89.019 19.3895 89.4105 19.43 90.4637 19.3895C91.6114 19.349 91.8679 19.2815 92.8131 18.8359C95.1624 17.7152 96.5396 15.5009 96.5396 12.8005C96.5396 10.9102 95.8105 9.23591 94.4333 7.95321C92.8266 6.44097 90.7877 5.87388 88.7759 6.37346ZM92.0434 8.76333C93.6502 9.53295 94.5143 10.9777 94.5143 12.9085C94.5143 13.7726 94.4468 14.0832 94.1228 14.7853C93.3666 16.392 92.0704 17.2832 90.3962 17.3642C86.4401 17.5667 84.3067 12.7195 87.0342 9.69498C87.6553 9.00637 88.2088 8.66882 89.127 8.42578C90.0856 8.15574 91.0038 8.26375 92.0434 8.76333Z" fill="black" />
		<path id="Vector_9" d="M102.697 6.33278C100.617 6.62982 98.5786 8.29058 97.7684 10.3564C96.6343 13.2189 97.5929 16.6079 100.01 18.2957C101.211 19.1193 102.197 19.4568 103.561 19.4703C104.979 19.4838 105.991 19.1733 107.179 18.3767L108.044 17.7961L108.003 19.9294C107.949 22.0222 107.936 22.0762 107.503 22.9539C106.761 24.4526 105.465 25.3438 103.844 25.4518C101.549 25.6138 99.4832 23.7775 99.2537 21.4011L99.1727 20.564L98.2005 20.5235L97.2148 20.483V21.1311C97.2148 22.0357 97.5389 23.2239 98.0655 24.1961C98.6731 25.3438 99.6857 26.3159 100.928 26.9235C101.846 27.3691 102.116 27.4366 103.183 27.4906C105.924 27.6256 108.138 26.3024 109.313 23.8315C109.947 22.4948 110.028 21.6037 110.042 16.4459C110.042 11.6391 109.988 11.1935 109.245 9.72181C108.003 7.29143 105.424 5.95472 102.697 6.33278ZM105.478 8.72265C106.356 9.15472 107.166 9.99185 107.584 10.883C107.895 11.5446 107.949 11.8281 107.949 12.9353C107.949 14.0695 107.909 14.299 107.571 14.9201C107.071 15.8923 106.531 16.4594 105.748 16.8914C104.83 17.391 103.885 17.553 102.926 17.3775C101.981 17.202 101.549 16.9859 100.833 16.3378C98.214 13.975 99.0241 9.74881 102.332 8.52012C103.075 8.25008 104.709 8.34459 105.478 8.72265Z" fill="black" />
		<path id="Vector_10" d="M115.984 6.42717C113.918 6.96726 112.338 8.47949 111.568 10.6398C111.285 11.477 111.258 11.693 111.258 15.3251V19.1462H112.189H113.121L113.175 15.4601L113.216 11.7875L113.607 10.9369C114.107 9.85671 115.146 8.87105 116.146 8.5335C118.211 7.83139 120.52 8.79004 121.479 10.7478L121.857 11.5175L121.924 15.2981L121.992 19.0787L122.978 19.1192L123.95 19.1597V15.5411C123.95 12.7597 123.909 11.7335 123.747 11.1394C123.14 8.80354 121.344 6.99426 119.022 6.38667C118.009 6.13013 117.091 6.14363 115.984 6.42717Z" fill="black" />
		<path id="Vector_11" d="M129.769 6.38717C128.067 6.87325 126.501 8.15595 125.731 9.70869C125.191 10.8159 125.043 11.5315 125.029 12.8817C125.029 15.4066 126.312 17.5534 128.513 18.7146C129.593 19.2817 130.525 19.4707 131.861 19.3762C133.063 19.3087 134.251 18.8631 135.21 18.134L135.682 17.783L135.723 18.4311L135.763 19.0792L136.749 19.1197L137.721 19.1602V15.3796C137.721 11.977 137.694 11.5315 137.451 10.7213C136.884 8.92557 135.331 7.25131 133.576 6.5897C132.55 6.19814 130.781 6.10363 129.769 6.38717ZM133.063 8.60152C133.873 8.95257 134.845 9.88422 135.264 10.7078C135.547 11.2479 135.628 11.626 135.669 12.6251C135.723 13.7863 135.696 13.9214 135.318 14.7315C134.845 15.7576 134.197 16.4462 133.225 16.9458C132.617 17.2699 132.361 17.3239 131.375 17.3239C130.39 17.3239 130.133 17.2699 129.526 16.9458C128.553 16.4462 127.905 15.7576 127.419 14.718C126.852 13.5028 126.839 12.1391 127.379 10.9644C128.418 8.68253 130.916 7.65637 133.063 8.60152Z" fill="black" />
		<path id="Vector_12" d="M35.2 6.53502C35.146 6.58903 35.1055 9.45148 35.1055 12.8945V19.146H36.1181H37.1308L37.1038 12.827L37.0633 6.52152L36.1856 6.48101C35.6996 6.45401 35.254 6.48101 35.2 6.53502Z" fill="black" />
	</g>
</svg>
