<svg width="25" height="24" viewBox="0 0 25 24" fill="none" xmlns="http://www.w3.org/2000/svg">
<g id="logo">
<path id="Vector" d="M10.9501 23.9365C9.65623 23.8018 8.19073 23.3731 6.98889 22.7851C5.67667 22.142 4.67718 21.4131 3.6409 20.3535C1.84428 18.51 0.807997 16.4398 0.360373 13.8061C0.213209 12.9609 0.213209 11.0377 0.360373 10.1925C0.807997 7.55882 1.84428 5.48864 3.6409 3.64507C4.67718 2.58548 5.67667 1.85663 6.98889 1.21353C10.3185 -0.415668 14.2122 -0.403419 17.5479 1.24415C21.6685 3.27759 24.25 7.42407 24.25 11.9993C24.25 16.5745 21.6685 20.721 17.5479 22.7544C15.5183 23.7589 13.2066 24.1693 10.9501 23.9365ZM10.0487 19.4287C10.7354 19.2572 11.4713 18.8101 11.9863 18.2405L12.2623 17.9404L12.7651 18.4242C13.5683 19.2021 14.4329 19.5573 15.5428 19.5512C16.2541 19.5451 16.763 19.4226 17.3885 19.0979C18.4064 18.5712 19.1912 17.5729 19.4917 16.4459C19.5346 16.2622 19.5591 16.0907 19.5346 16.06C19.4794 15.9682 18.2101 15.3067 18.0998 15.3067C18.0323 15.3067 17.9894 15.3802 17.9649 15.5394C17.8361 16.3479 17.6399 16.7521 17.1555 17.2115C16.9776 17.3769 16.6711 17.5912 16.481 17.6831C16.1744 17.824 16.0456 17.8485 15.5428 17.8485C15.0032 17.8485 14.9235 17.8301 14.5494 17.6464C13.8136 17.285 13.3047 16.6174 13.1575 15.8273C13.1146 15.6007 13.0901 14.3145 13.0901 12.281V9.09002L12.3542 8.69803C11.9434 8.48979 11.5755 8.33054 11.5264 8.34892C11.4529 8.37342 11.4345 8.94302 11.4222 12.1647L11.4038 15.9498L11.2628 16.305C10.7845 17.4871 9.5336 18.1241 8.36242 17.7811C7.67565 17.579 7.14218 17.1135 6.81106 16.4153L6.62098 16.011L6.60258 10.6641L6.59032 5.31714L5.82997 4.94353C5.413 4.74141 5.03896 4.59442 5.00217 4.61279C4.95312 4.64342 4.93472 6.27261 4.93472 10.2415C4.93472 16.5378 4.92246 16.2867 5.40074 17.2666C5.63375 17.7444 5.78091 17.9404 6.18562 18.3446C7.27095 19.4226 8.59543 19.7962 10.0487 19.4287Z" fill="#F5F5F5"/>
</g>
</svg>
