<?xml version="1.0" encoding="UTF-8"?>
<svg xmlns="http://www.w3.org/2000/svg" version="1.1" viewBox="0 0 1920 1080">
  <!-- Generator: Adobe Illustrator 28.7.3, SVG Export Plug-In . SVG Version: 1.2.0 Build 164)  -->
  <g>
    <g id="Layer_1">
      <g>
        <g>
          <path d="M784.89,678.42h-2.14s0-24.58,0-24.58h2.14v10.83s13.13,0,13.13,0v-10.83h2.14s0,24.58,0,24.58h-2.14v-11.85s-13.13,0-13.13,0v11.85Z"/>
          <path d="M820.31,653.37c3.47,0,6.18,1.47,8.12,4.44,1.5,2.3,2.25,5.07,2.25,8.31,0,3.78-.99,6.87-2.95,9.27-1.89,2.34-4.37,3.49-7.42,3.49-3.47,0-6.17-1.47-8.11-4.42-1.5-2.32-2.25-5.11-2.25-8.34,0-3.75.99-6.84,2.95-9.29,1.89-2.3,4.37-3.46,7.42-3.46ZM820.31,676.98c2.74,0,4.84-1.18,6.29-3.53,1.16-1.95,1.75-4.39,1.75-7.34,0-3.42-.77-6.11-2.29-8.08-1.43-1.83-3.34-2.75-5.75-2.75-2.74,0-4.84,1.17-6.29,3.53-1.16,1.91-1.75,4.35-1.75,7.3,0,3.41.76,6.12,2.29,8.12,1.43,1.83,3.34,2.75,5.75,2.75Z"/>
          <path d="M857.51,668.2c0,7.13-2.84,10.68-8.51,10.68-5.69,0-8.54-3.55-8.54-10.68v-14.36h2.14v15.26c0,5.26,2.14,7.88,6.41,7.88,4.19,0,6.29-2.62,6.29-7.88v-15.26h2.21v14.36Z"/>
          <path d="M879.56,656.52c-1.47-.83-3.16-1.24-5.05-1.24-1.73,0-3.07.35-4.02,1.09-.94.72-1.42,1.75-1.42,3.07,0,1.84,1.62,3.36,4.85,4.58,2.9,1.09,4.9,2.22,6,3.4,1.1,1.18,1.65,2.77,1.65,4.79,0,2.12-.83,3.82-2.48,5.1-1.4,1.06-3.09,1.58-5.05,1.58-2.54,0-4.98-.77-7.34-2.32l.89-1.29c2.1,1.14,4.11,1.71,6.02,1.71,1.73,0,3.12-.42,4.17-1.3,1.05-.86,1.58-2.03,1.58-3.48,0-1.5-.4-2.7-1.2-3.61-.86-.9-2.25-1.69-4.19-2.36-2.54-.86-4.38-1.82-5.52-2.9-1.14-1.07-1.7-2.37-1.7-3.89,0-1.86.75-3.36,2.25-4.51,1.35-1.04,3.1-1.56,5.24-1.56,2.33,0,4.42.63,6.29,1.86l-.97,1.29Z"/>
          <path d="M891.36,653.84h13.9v1.9h-11.77s0,8.93,0,8.93h9.9v1.9h-9.9s0,9.95,0,9.95h12.27v1.9h-14.41s0-24.58,0-24.58Z"/>
          <path d="M937.83,653.37c3.47,0,6.18,1.47,8.12,4.44,1.5,2.3,2.25,5.07,2.25,8.31,0,3.78-.99,6.87-2.95,9.27-1.89,2.34-4.37,3.49-7.42,3.49-3.47,0-6.17-1.47-8.11-4.42-1.5-2.32-2.25-5.11-2.25-8.34,0-3.75.99-6.84,2.95-9.29,1.89-2.3,4.37-3.46,7.42-3.46ZM937.83,676.98c2.74,0,4.84-1.18,6.29-3.53,1.16-1.95,1.75-4.39,1.75-7.34,0-3.42-.77-6.11-2.29-8.08-1.43-1.83-3.34-2.75-5.75-2.75-2.74,0-4.84,1.17-6.29,3.53-1.16,1.91-1.75,4.35-1.75,7.3,0,3.41.76,6.12,2.29,8.12,1.43,1.83,3.34,2.75,5.75,2.75Z"/>
          <path d="M957.99,678.42v-24.58s13.9,0,13.9,0v1.9h-11.76s0,8.93,0,8.93h9.9v1.9h-9.9s0,11.85,0,11.85h-2.14Z"/>
          <path d="M995.14,678.42v-24.58c1.95-.31,3.96-.47,6.06-.47,5.32,0,7.99,2.18,7.99,6.52,0,2.69-1.38,4.5-4.15,5.4v.04c1.56.28,2.77,1.03,3.66,2.22.87,1.18,1.32,2.69,1.32,4.5,0,2.36-.9,4.13-2.68,5.32-1.53,1.01-3.57,1.51-6.14,1.51-1.51,0-3.53-.15-6.06-.46ZM997.27,655.35v9.13s4.39,0,4.39,0c1.56,0,2.81-.41,3.75-1.23.94-.81,1.42-1.89,1.42-3.21,0-3.28-1.92-4.93-5.75-4.93-1.45,0-2.73.08-3.81.24ZM997.27,666.35v10.56c1.37.15,2.75.22,4.12.22,4.16,0,6.25-1.7,6.25-5.12,0-1.78-.52-3.17-1.56-4.18-1.04-.99-2.47-1.49-4.31-1.49h-4.51Z"/>
          <path d="M1019.8,678.42v-24.58c2.3-.31,4.2-.47,5.67-.47,3.19,0,5.49.85,6.9,2.52,1.04,1.25,1.56,2.88,1.56,4.9,0,3.45-1.56,5.69-4.66,6.71l4.97,10.91h-2.17s-4.7-10.44-4.7-10.44l-.04-.05c-.58.08-1.18.12-1.83.12-1.17,0-2.36-.06-3.57-.19v10.56h-2.14ZM1021.93,655.35v10.71c.86.17,1.95.24,3.27.24,4.29,0,6.44-1.84,6.44-5.51,0-3.78-2.14-5.67-6.41-5.67-1.24,0-2.35.08-3.3.24Z"/>
          <path d="M1050.44,653.84h2.56s8.7,24.58,8.7,24.58h-2.17s-2.14-5.9-2.14-5.9h-11.3s-2.09,5.9-2.09,5.9h-2.3s8.74-24.58,8.74-24.58ZM1051.68,655.98l-5.05,14.71h10.13s-5.09-14.71-5.09-14.71Z"/>
          <path d="M1072.25,657.76v20.66s-2.14,0-2.14,0v-24.58s2.06,0,2.06,0c.67,1.11,2.69,4.59,6.05,10.44,3.36,5.85,5.38,9.38,6.05,10.61v-21.05s2.14,0,2.14,0v24.58s-2.09,0-2.09,0c-1.6-2.64-5.64-9.52-12.08-20.66Z"/>
          <path d="M1097.76,653.84c2.41-.31,4.27-.47,5.59-.47,4.14,0,7.31,1.27,9.51,3.81,1.89,2.17,2.84,5.07,2.84,8.7,0,4.38-1.18,7.7-3.54,9.98-2.1,2.02-4.97,3.02-8.61,3.02-1.43,0-3.36-.15-5.79-.46v-24.58ZM1099.89,676.91c1.24.15,2.45.22,3.61.22,3.29,0,5.79-1.04,7.49-3.14,1.58-1.91,2.37-4.57,2.37-7.96,0-3.7-1.07-6.54-3.22-8.51-1.76-1.6-4-2.41-6.71-2.41-1.58,0-2.76.08-3.54.24v21.56Z"/>
          <path d="M1136.79,656.52c-1.47-.83-3.16-1.24-5.05-1.24-1.73,0-3.08.35-4.02,1.09-.94.72-1.42,1.75-1.42,3.07,0,1.84,1.62,3.36,4.86,4.58,2.89,1.09,4.9,2.22,5.99,3.4,1.1,1.18,1.65,2.77,1.65,4.79,0,2.12-.83,3.82-2.49,5.1-1.39,1.06-3.08,1.58-5.04,1.58-2.55,0-4.99-.77-7.34-2.32l.88-1.29c2.1,1.14,4.11,1.71,6.02,1.71,1.73,0,3.13-.42,4.18-1.3,1.05-.86,1.57-2.03,1.57-3.48,0-1.5-.4-2.7-1.2-3.61-.85-.9-2.25-1.69-4.19-2.36-2.54-.86-4.38-1.82-5.51-2.9-1.14-1.07-1.71-2.37-1.71-3.89,0-1.86.74-3.36,2.25-4.51,1.34-1.04,3.09-1.56,5.24-1.56,2.32,0,4.42.63,6.29,1.86l-.97,1.29Z"/>
        </g>
        <path d="M1061.99,463.55c-4.72-4.9-10.31-8.82-16.64-11.67-12.69-5.69-28.15-5.69-40.86,0-6.33,2.85-11.9,6.77-16.62,11.67-4.72,4.9-8.49,10.71-11.21,17.33-2.7,6.61-4.08,13.74-4.08,21.16,0,7.43,1.38,14.53,4.08,21.09,2.72,6.54,6.49,12.34,11.21,17.24,4.76,4.92,10.34,8.84,16.62,11.63,6.35,2.86,13.22,4.3,20.44,4.3,7.21,0,14.09-1.43,20.42-4.28,6.29-2.81,11.9-6.74,16.64-11.65,4.68-4.88,8.45-10.7,11.19-17.24,2.72-6.58,4.1-13.67,4.1-21.09,0-7.39-1.38-14.53-4.1-21.16-2.72-6.61-6.49-12.45-11.19-17.33ZM1060.93,502.04c0,5.13-.96,10.03-2.83,14.57-1.91,4.53-4.53,8.56-7.81,11.97-3.25,3.38-7.11,6.1-11.47,8.06-8.77,3.94-19.4,3.85-27.93,0-4.37-1.94-8.19-4.67-11.37-8.03-3.25-3.45-5.85-7.48-7.73-12.01-1.89-4.51-2.85-9.41-2.85-14.57,0-5.14.95-10.06,2.85-14.66,1.89-4.61,4.49-8.63,7.69-11.97,3.2-3.32,7.04-5.99,11.4-7.97,4.33-1.93,9.05-2.92,14.06-2.92,4.88,0,9.55.99,13.88,2.92,4.35,1.96,8.22,4.67,11.51,7.99,3.25,3.34,5.87,7.36,7.76,11.93,1.89,4.63,2.85,9.57,2.85,14.67Z"/>
        <path d="M1115.23,539.58h-1.75c-3.24,0-5.91-1.15-8.15-3.5-2.3-2.37-3.41-5.2-3.41-8.65v-124.77c0-.85-.69-1.54-1.54-1.54h-13.28c-.85,0-1.54.69-1.54,1.54v124.77c0,3.96.76,7.74,2.23,11.26,1.47,3.45,3.45,6.54,5.9,9.16,2.49,2.67,5.48,4.76,8.89,6.24,3.39,1.47,7.05,2.21,10.89,2.21h1.75c.85,0,1.54-.67,1.54-1.54v-13.65c0-.83-.69-1.54-1.54-1.54Z"/>
        <path d="M1205.61,463.55c-4.72-4.92-10.33-8.84-16.62-11.67-12.71-5.69-28.13-5.69-40.88,0-6.29,2.83-11.88,6.75-16.62,11.67-4.7,4.88-8.49,10.71-11.19,17.33-2.72,6.61-4.1,13.74-4.1,21.16,0,7.44,1.4,14.53,4.12,21.09,2.71,6.54,6.47,12.34,11.17,17.24,4.76,4.92,10.34,8.84,16.64,11.63,6.35,2.86,13.21,4.3,20.42,4.3,7.21,0,14.09-1.43,20.44-4.28,6.28-2.81,11.88-6.74,16.62-11.65,4.7-4.9,8.47-10.71,11.19-17.24,2.72-6.56,4.1-13.65,4.1-21.09,0-7.43-1.38-14.55-4.1-21.16-2.72-6.61-6.49-12.45-11.19-17.33ZM1204.56,502.04c0,5.13-.96,10.03-2.86,14.57-1.89,4.54-4.51,8.58-7.8,11.97-3.25,3.39-7.13,6.1-11.47,8.06-8.77,3.94-19.4,3.85-27.94,0-4.37-1.96-8.2-4.67-11.37-8.04-3.22-3.39-5.82-7.43-7.74-11.99-1.87-4.54-2.83-9.44-2.83-14.57,0-5.13.96-10.06,2.85-14.66,1.91-4.63,4.51-8.66,7.69-11.97,3.22-3.32,7.04-5.99,11.39-7.97,4.35-1.93,9.07-2.92,14.07-2.92,4.88,0,9.55.99,13.88,2.92,4.35,1.98,8.24,4.67,11.51,7.99,3.25,3.32,5.87,7.34,7.76,11.93,1.91,4.61,2.86,9.57,2.86,14.67Z"/>
        <path d="M1430.06,463.55c-4.72-4.92-10.31-8.84-16.62-11.67-12.71-5.69-28.15-5.69-40.86,0-6.31,2.83-11.92,6.75-16.64,11.67-4.7,4.88-8.47,10.71-11.19,17.33-2.72,6.63-4.1,13.76-4.1,21.16v52.67c0,.85.69,1.54,1.52,1.54h13.3c.85,0,1.54-.69,1.54-1.54v-52.67c0-5.13.97-10.06,2.86-14.66,1.87-4.6,4.51-8.61,7.76-11.95,3.29-3.32,7.16-6.03,11.49-7.99,8.66-3.87,19.06-3.89,27.86,0,4.4,1.98,8.27,4.65,11.47,7.97,3.22,3.34,5.8,7.37,7.69,11.95,1.89,4.61,2.86,9.55,2.86,14.67v52.67c0,.85.67,1.54,1.54,1.54h13.26c.85,0,1.54-.69,1.54-1.54v-52.67c0-7.41-1.38-14.53-4.08-21.16-2.74-6.61-6.49-12.43-11.21-17.33Z"/>
        <path d="M1327.16,481.27c-2.74-6.61-6.49-12.43-11.21-17.33-4.7-4.9-10.31-8.82-16.64-11.67-12.71-5.69-28.08-5.69-40.84,0-6.33,2.85-11.92,6.77-16.62,11.67-4.7,4.88-8.47,10.71-11.19,17.33-2.74,6.63-4.12,13.76-4.12,21.16,0,7.44,1.38,14.53,4.12,21.09,2.72,6.54,6.49,12.36,11.19,17.22,4.74,4.92,10.33,8.84,16.62,11.67,6.38,2.85,13.24,4.3,20.44,4.3,12.18,0,23.46-4.24,33.56-12.59.65-.55,1.29-1.11,1.93-1.7v25.78c0,5.18-.96,10.1-2.85,14.67-1.91,4.6-4.51,8.61-7.76,11.95-3.29,3.32-7.16,6.03-11.51,7.97-8.66,3.93-19.09,3.91-27.86,0-4.42-1.96-8.27-4.65-11.47-7.96-3.2-3.34-5.78-7.36-7.69-11.97-1.89-4.58-2.85-9.51-2.85-14.67v-1.75c0-.83-.69-1.52-1.54-1.52h-13.28c-.85,0-1.54.69-1.54,1.52v1.75c0,7.44,1.38,14.57,4.1,21.18,2.71,6.61,6.49,12.45,11.21,17.34,4.7,4.9,10.31,8.82,16.62,11.65,6.35,2.85,13.22,4.28,20.42,4.28,7.21,0,14.07-1.43,20.44-4.28,6.29-2.83,11.88-6.75,16.62-11.65,4.72-4.92,8.49-10.77,11.17-17.34,2.74-6.63,4.12-13.76,4.12-21.18v-57.71s-.05-.18-.05-.18c.37-2.58.57-5.23.57-7.89,0-7.41-1.4-14.53-4.1-21.16ZM1292.9,537.03c-8.75,3.89-19.25,3.89-27.86.02-4.35-1.98-8.22-4.69-11.49-8.08-3.27-3.41-5.89-7.44-7.8-11.97-1.89-4.54-2.85-9.44-2.85-14.57,0-5.11.96-10.04,2.85-14.66,1.91-4.6,4.51-8.61,7.78-11.93,3.29-3.36,7.16-6.06,11.51-7.99,4.3-1.94,8.96-2.93,13.88-2.93,4.88,0,9.6.99,13.98,2.93,4.4,1.94,8.24,4.63,11.46,7.96,3.2,3.32,5.8,7.36,7.71,11.97,1.89,4.6,2.83,9.53,2.83,14.66,0,5.15-.94,10.04-2.83,14.55-1.91,4.58-4.51,8.61-7.73,12.01-3.18,3.38-7.04,6.08-11.44,8.04Z"/>
        <path d="M1554.42,480.69c-2.72-6.61-6.49-12.45-11.19-17.35-4.74-4.91-10.38-8.84-16.73-11.65-12.84-5.69-28.24-5.69-40.95,0-6.31,2.83-11.9,6.77-16.62,11.67-4.74,4.9-8.5,10.75-11.19,17.33-2.74,6.61-4.1,13.76-4.1,21.16,0,7.44,1.38,14.53,4.1,21.09,2.69,6.52,6.45,12.31,11.19,17.22,4.72,4.9,10.31,8.82,16.62,11.67,6.36,2.85,13.22,4.28,20.42,4.28,8.66,0,16.74-1.96,24.01-5.85,4.47-2.37,8.49-5.32,11.99-8.79v10.96c0,.85.71,1.54,1.54,1.54h13.47c.85,0,1.54-.69,1.54-1.54v-50.58c0-7.41-1.38-14.53-4.1-21.16ZM1541.98,501.85c0,5.14-.94,10.04-2.83,14.55-1.89,4.56-4.51,8.59-7.73,12-3.18,3.38-7.04,6.07-11.46,8.04-8.82,3.91-19.24,3.89-27.86,0-4.35-1.98-8.2-4.69-11.46-8.06-3.29-3.41-5.92-7.44-7.81-11.97-1.87-4.56-2.85-9.44-2.85-14.57,0-5.13.97-10.06,2.85-14.66,1.91-4.61,4.53-8.63,7.78-11.93,3.27-3.34,7.14-6.03,11.49-8.01,4.31-1.93,8.98-2.92,13.88-2.92,4.9,0,9.6.99,13.99,2.93,4.44,1.98,8.29,4.65,11.47,7.96,3.2,3.34,5.8,7.36,7.71,11.97,1.89,4.58,2.83,9.51,2.83,14.66Z"/>
        <path d="M949,477.64c4.42-3.15,8.12-7.14,11-11.86,3.86-6.29,5.82-13.38,5.82-21.04,0-5.58-1.15-10.95-3.41-16.01-.36-.81-.88-1.52-1.36-2.27-2.09-3.96-4.64-7.63-7.86-10.74-3.82-3.68-8.38-6.65-13.56-8.8-5.2-2.14-10.75-3.24-16.51-3.24l-55.36.31c-.21,0-.8,0-1.43.03h-10.35c-.85,0-1.53.69-1.53,1.54v8.87s0,125.99,0,125.99v9.67c0,.21.14.36.22.54.03.09-.04.19.01.27.02.04.09.03.12.07.28.37.67.65,1.17.65h13.3s53.92,0,53.92,0c5.76,0,11.31-1.1,16.51-3.24,5.19-2.16,9.75-5.13,13.56-8.8,3.86-3.71,6.93-8.08,9.14-12.98,2.26-5,3.41-10.43,3.41-16.12,0-7.55-1.96-14.55-5.82-20.86-2.88-4.7-6.58-8.74-11-11.97ZM870.8,420.28h52.31c1.26,0,2.45.18,3.65.33,2.24.29,4.42.83,6.43,1.64,3.06,1.26,5.8,3.01,8.1,5.21.53.5.94,1.1,1.42,1.65,1.57,1.84,2.98,3.85,4.01,6.15,1.33,2.95,2.02,6.17,2.02,9.55,0,3.38-.67,6.56-2.02,9.48-1.36,2.95-3.22,5.57-5.51,7.8-2.3,2.19-5.03,3.98-8.1,5.21-3.07,1.26-6.44,1.89-10,1.89h-29.76c-.06,0-.09.08-.15.09h-22.39s0-49.01,0-49.01ZM946.8,520.02c-1.36,3.02-3.23,5.69-5.5,7.9-2.31,2.21-5.04,3.96-8.12,5.21-3.06,1.24-6.43,1.87-10,1.87h-52.38s0-49.01,0-49.01h22.48c.06,0,.09.08.15.08h29.76c3.57,0,6.93.64,10,1.89,3.08,1.24,5.8,3.02,8.1,5.21,2.3,2.23,4.16,4.84,5.52,7.8,1.34,2.92,2.02,6.1,2.02,9.48,0,3.38-.69,6.59-2.02,9.55Z"/>
        <g>
          <path d="M562.08,463.34c-4.73-4.9-10.36-8.82-16.74-11.65-12.82-5.69-28.25-5.67-40.93,0-6.31,2.83-11.9,6.75-16.62,11.65-4.72,4.9-8.49,10.73-11.21,17.35-2.72,6.61-4.1,13.76-4.1,21.16,0,7.44,1.38,14.53,4.1,21.09,2.72,6.56,6.5,12.34,11.19,17.22,4.72,4.9,10.31,8.82,16.64,11.67,6.35,2.85,13.22,4.28,20.42,4.28,8.65,0,16.73-1.96,24.03-5.85,4.46-2.39,8.47-5.32,11.99-8.79v13.05c0,.85.68,1.54,1.52,1.54h13.47c.85,0,1.54-.69,1.54-1.54v-52.67c0-7.41-1.38-14.55-4.1-21.16-2.7-6.6-6.48-12.43-11.19-17.35ZM510.96,536.45c-4.36-1.96-8.22-4.67-11.48-8.06-3.28-3.39-5.91-7.43-7.8-11.97-1.89-4.54-2.85-9.44-2.85-14.57,0-5.13.95-10.06,2.85-14.66,1.9-4.6,4.52-8.61,7.78-11.93,3.26-3.34,7.14-6.03,11.51-8.01,4.29-1.93,8.95-2.92,13.86-2.92,4.9,0,9.61.99,13.99,2.93,4.42,1.96,8.27,4.65,11.47,7.97,3.2,3.32,5.79,7.34,7.69,11.95,1.89,4.6,2.87,9.53,2.87,14.66,0,5.14-.96,10.04-2.87,14.57-1.88,4.53-4.47,8.56-7.71,11.99-3.2,3.38-7.05,6.08-11.46,8.04-8.74,3.89-19.22,3.91-27.86,0Z"/>
          <path d="M640.87,447.61h-1.75c-7.2,0-14.06,1.43-20.43,4.28-6.3,2.83-11.9,6.75-16.62,11.67-4.72,4.9-8.49,10.71-11.2,17.33-2.72,6.61-4.1,13.74-4.1,21.16v52.67c0,.85.69,1.54,1.54,1.54h13.29c.84,0,1.52-.69,1.52-1.54v-52.67c0-5.11.97-10.04,2.85-14.66,1.92-4.61,4.54-8.63,7.78-11.95,3.29-3.32,7.14-6.01,11.51-7.99,4.31-1.93,8.98-2.92,13.87-2.92h1.75c.84,0,1.53-.69,1.53-1.54v-13.86c0-.83-.69-1.52-1.53-1.52Z"/>
          <path d="M667.01,447.18h-13.3c-.85,0-1.53.69-1.53,1.54v105.99c0,.85.68,1.54,1.53,1.54h13.3c.85,0,1.54-.69,1.54-1.54v-105.99c0-.85-.69-1.54-1.54-1.54Z"/>
          <path d="M769.6,463.55c-4.73-4.92-10.33-8.84-16.63-11.67-12.71-5.69-28.16-5.69-40.85,0-6.3,2.83-11.89,6.75-16.63,11.67-4.72,4.9-8.49,10.73-11.2,17.33-2.71,6.63-4.09,13.76-4.09,21.16,0,7.43,1.38,14.53,4.09,21.09,2.73,6.54,6.49,12.34,11.2,17.24,4.73,4.92,10.33,8.84,16.63,11.63,6.34,2.86,13.22,4.3,20.43,4.3,7.2,0,14.07-1.43,20.42-4.28,6.29-2.81,11.88-6.74,16.63-11.65,4.73-4.92,8.5-10.71,11.18-17.24,2.74-6.56,4.1-13.67,4.1-21.09,0-7.43-1.36-14.55-4.08-21.16-2.72-6.61-6.49-12.43-11.2-17.33ZM768.55,502.04c0,5.15-.96,10.04-2.85,14.57-1.9,4.54-4.53,8.56-7.8,11.97-3.26,3.39-7.13,6.12-11.49,8.06-8.73,3.94-19.38,3.85-27.94,0-4.37-1.96-8.19-4.67-11.37-8.04-3.22-3.39-5.82-7.44-7.72-11.99-1.9-4.54-2.86-9.44-2.86-14.57,0-5.13.96-10.04,2.86-14.66,1.9-4.61,4.49-8.65,7.69-11.97,3.2-3.31,7.02-5.99,11.39-7.97,4.33-1.93,9.07-2.92,14.07-2.92,4.88,0,9.55.99,13.86,2.92,4.37,1.98,8.24,4.67,11.53,7.99,3.24,3.34,5.86,7.36,7.75,11.95,1.9,4.58,2.86,9.51,2.86,14.66Z"/>
          <path d="M485.59,428.54c2.22,2.3,3.97,5.04,5.22,8.11.83,2.02,1.4,4.23,1.68,6.59l.31,2.51c.06.48.36.92.8,1.17.44.23.99.23,1.43,0l12.92-6.8c.62-.32.94-1.01.79-1.7l-.31-1.29c-.51-2.35-1.25-4.7-2.18-7-2.17-5.18-5.13-9.74-8.79-13.54-3.68-3.84-8.09-6.91-13.1-9.18-5.07-2.25-10.46-3.39-16.03-3.39-7.64,0-14.71,1.95-21.04,5.81-4.71,2.88-8.68,6.58-11.85,11.01-3.24-4.44-7.26-8.13-11.98-11.01-6.31-3.85-13.32-5.81-20.84-5.81-5.72,0-11.13,1.14-16.13,3.4-4.92,2.23-9.28,5.3-12.98,9.16-3.66,3.77-6.62,8.33-8.81,13.54-2.15,5.2-3.24,10.75-3.24,16.54v108.05c0,.55.27,1.03.73,1.31.25.16.53.23.81.23.23,0,.45-.05.66-.14l13.52-6.58c.53-.25.87-.8.87-1.38v-101.49c0-3.59.64-6.96,1.89-10.03,1.26-3.06,3.01-5.8,5.2-8.1,2.24-2.28,4.9-4.16,7.9-5.5,5.9-2.67,13.21-2.69,19.02-.02,2.97,1.36,5.6,3.24,7.8,5.52,2.23,2.3,3.99,5.04,5.23,8.1,1.26,3.08,1.88,6.44,1.88,10.03v76.62c0,.53.28,1.04.73,1.31.47.28,1.04.3,1.51.05l13.73-7.21c.5-.27.82-.8.82-1.34v-69.42c0-3.59.64-6.97,1.88-10.03,1.25-3.06,3.01-5.78,5.22-8.1,2.23-2.3,4.88-4.16,7.89-5.5,5.92-2.67,13.22-2.69,19.02-.02,2.97,1.36,5.6,3.24,7.8,5.52Z"/>
        </g>
      </g>
    </g>
  </g>
</svg>