<svg width="23" height="17" viewBox="0 0 23 17" fill="none" xmlns="http://www.w3.org/2000/svg">
<g id="artwork">
<g clip-path="url(#clip0_2154_21011)">
<rect x="0.613281" y="0.307617" width="22" height="16" rx="2" fill="#1A47B8"/>
<path id="vector" fill-rule="evenodd" clip-rule="evenodd" d="M2.95363 0.307617H0.613281V2.97428L20.2602 16.3076L22.6133 16.3076V13.641L2.95363 0.307617Z" fill="white"/>
<path id="vector_2" d="M1.39386 0.307617L22.6133 14.7454V16.3076H21.851L0.613281 1.85488V0.307617H1.39386Z" fill="#F93939"/>
<path id="vector_3" fill-rule="evenodd" clip-rule="evenodd" d="M20.518 0.307617H22.6133V2.97428C22.6133 2.97428 9.00451 11.8575 2.70852 16.3076H0.613281V13.641L20.518 0.307617Z" fill="white"/>
<path id="vector_4" d="M22.6133 0.307617H21.9027L0.613281 14.7578V16.3076H1.39386L22.6133 1.86656V0.307617Z" fill="#F93939"/>
<path id="vector_5" fill-rule="evenodd" clip-rule="evenodd" d="M8.61403 0.307617H14.6308V5.24289H22.6133V11.3691H14.6308V16.3076H8.61403V11.3691H0.613281V5.24289H8.61403V0.307617Z" fill="white"/>
<path id="vector_6" fill-rule="evenodd" clip-rule="evenodd" d="M9.87644 0.307617H13.3501V6.46146H22.6133V10.1538H13.3501V16.3076H9.87644V10.1538H0.613281V6.46146H9.87644V0.307617Z" fill="#F93939"/>
</g>
</g>
<defs>
<clipPath id="clip0_2154_21011">
<rect x="0.613281" y="0.307617" width="22" height="16" rx="2" fill="white"/>
</clipPath>
</defs>
</svg>
