<?xml version="1.0" encoding="UTF-8"?>
<svg xmlns="http://www.w3.org/2000/svg" xmlns:xlink="http://www.w3.org/1999/xlink" width="584.9pt" height="347.1pt" viewBox="0 0 584.9 347.1" version="1.1">
<defs>
<clipPath id="clip1">
  <path d="M 1 259 L 584.898438 259 L 584.898438 347.101563 L 1 347.101563 Z M 1 259 "/>
</clipPath>
</defs>
<g id="surface1">
<path style=" stroke:none;fill-rule:evenodd;fill:rgb(89.0625%,0%,8.616638%);fill-opacity:1;" d="M 0.0117188 87.152344 L 583.527344 87.152344 L 583.527344 -0.046875 L 0.0117188 -0.046875 Z M 0.0117188 87.152344 "/>
<g clip-path="url(#clip1)" clip-rule="nonzero">
<path style=" stroke:none;fill-rule:evenodd;fill:rgb(89.0625%,0%,8.616638%);fill-opacity:1;" d="M 1.472656 347.027344 L 584.992188 347.027344 L 584.992188 259.828125 L 1.472656 259.828125 Z M 1.472656 347.027344 "/>
</g>
<path style="fill-rule:evenodd;fill:rgb(43.138123%,43.920898%,44.309998%);fill-opacity:1;stroke-width:2.16;stroke-linecap:butt;stroke-linejoin:miter;stroke:rgb(10.594177%,9.812927%,9.423828%);stroke-opacity:1;stroke-miterlimit:4;" d="M 2183.007813 1632.171875 C 2164.960938 1655.960938 2196.914063 1689.398438 2242.460938 1723.734375 C 2288.007813 1758.070313 2347.148438 1793.382813 2413.515625 1805.804688 C 2451.171875 1812.875 2460.390625 1853.382813 2475.742188 1878.265625 C 2477.304688 1880.84375 2477.304688 1884.320313 2479.0625 1886.507813 C 2477.890625 1899.554688 2485.625 1900.0625 2482.5 1907.796875 C 2475.390625 1925.53125 2448.4375 1943.109375 2430.078125 1941.46875 C 2403.125 1941.46875 2381.328125 1929.90625 2360.3125 1930.414063 C 2339.296875 1930.921875 2319.0625 1943.460938 2295.273438 1931.546875 C 2324.960938 2010.804688 2386.71875 2005.21875 2441.953125 2036.78125 C 2460.390625 2047.289063 2494.765625 2051.9375 2504.765625 2078.539063 C 2531.71875 2078.539063 2528.164063 2109.828125 2550.117188 2125.296875 C 2572.070313 2140.765625 2608.28125 2144.203125 2632.070313 2156.078125 C 2621.09375 2163.382813 2631.914063 2169.164063 2625.3125 2181.390625 C 2613.789063 2202.757813 2579.492188 2192.289063 2542.34375 2198.460938 C 2569.101563 2202.914063 2576.210938 2222.953125 2601.367188 2239.007813 C 2643.28125 2265.804688 2701.992188 2294.984375 2740.703125 2320.804688 C 2723.28125 2336.273438 2643.867188 2296.273438 2635.664063 2318.109375 C 2718.203125 2357.445313 2865.3125 2474.164063 2864.257813 2532.992188 C 2897.929688 2392.289063 3009.335938 2375.453125 3156.289063 2333.5 C 3257.929688 2304.476563 3311.523438 2225.101563 3302.03125 2230.921875 C 3274.960938 2226.429688 3229.21875 2233.304688 3204.648438 2221 C 3251.09375 2193.382813 3369.101563 2129.398438 3388.28125 2104.828125 C 3297.226563 2104.828125 3235.078125 2166.78125 3148.75 2123.617188 L 3371.796875 1970.492188 L 3582.929688 1845.453125 C 3535.898438 1840.492188 3398.476563 1886.546875 3358.242188 1852.953125 L 3373.28125 1827.992188 C 3416.171875 1799.945313 3563.007813 1804.398438 3627.695313 1749.398438 C 3527.460938 1723.421875 3351.796875 1759.710938 3350.742188 1703.265625 C 3401.289063 1677.992188 3441.25 1673.890625 3496.640625 1664.632813 C 3520.46875 1601.117188 3629.609375 1537.289063 3691.289063 1496.195313 C 3620.117188 1473.695313 3564.6875 1511.390625 3481.640625 1549.828125 C 3434.570313 1520.101563 3445.625 1532.328125 3440.585938 1465.0625 C 3568.203125 1401.273438 3657.304688 1366.390625 3762.34375 1272.992188 L 3736.210938 1250.453125 L 3661.210938 1265.492188 C 3606.953125 1370.375 3402.304688 1373.734375 3295.625 1351.234375 C 3252.03125 1342.015625 3211.484375 1391.507813 3177.617188 1399.75 C 3112.96875 1415.570313 3072.578125 1400.375 3081.40625 1376.546875 C 3031.601563 1310.140625 3088.789063 1188.421875 3088.789063 1138.34375 C 3113.359375 1126.078125 3125.273438 1095.375 3152.34375 1090.84375 C 3161.132813 1067.40625 3168.945313 1060.804688 3179.101563 1053.382813 C 3189.21875 1045.960938 3201.640625 1037.71875 3227.1875 1033.460938 C 3235.390625 1011.625 3269.726563 997.132813 3287.148438 981.664063 C 3253.28125 952.445313 3224.882813 982.757813 3178.945313 1024.671875 C 3140.703125 1059.554688 3057.460938 1047.875 3006.289063 1058.382813 C 2988.867188 1042.914063 3040.898438 989.007813 3032.734375 967.171875 C 3018.085938 983.109375 2982.734375 1018.382813 2944.140625 1046.703125 C 2916.171875 1067.210938 2911.875 1100.726563 2886.25 1113.851563 C 2870.859375 1121.742188 2827.851563 1106.742188 2819.179688 1114.4375 C 2788.554688 1101.234375 2767.109375 1120.179688 2735.585938 1118.421875 C 2683.203125 1115.492188 2649.375 1065.960938 2604.84375 1048.5 C 2554.414063 1028.734375 2492.148438 1025.882813 2443.476563 1007.5625 C 2410.195313 995.0625 2404.257813 984.359375 2374.023438 964.75 C 2387.070313 976.390625 2350.507813 972.289063 2370.546875 997.484375 C 2374.21875 1002.132813 2371.835938 1009.203125 2373.867188 1014.671875 C 2401.875 1014.671875 2421.640625 1036.9375 2447.5 1043.34375 C 2481.40625 1051.703125 2509.140625 1057.5625 2536.71875 1074.554688 C 2577.539063 1099.710938 2611.054688 1135.726563 2635.507813 1175.570313 C 2666.992188 1226.859375 2692.304688 1273.304688 2661.875 1322.679688 C 2646.71875 1347.25 2616.015625 1370.960938 2564.726563 1377.601563 C 2514.453125 1342.640625 2382.109375 1290.296875 2270.898438 1274.710938 C 2220.3125 1267.640625 2174.101563 1259.203125 2141.953125 1279.164063 L 2130.703125 1307.875 C 2226.5625 1371.78125 2402.929688 1307.953125 2456.210938 1450.023438 C 2436.054688 1460.101563 2413.867188 1474.867188 2390.390625 1473.773438 C 2320.039063 1470.53125 2238.28125 1414.867188 2166.328125 1384.125 C 2107.929688 1359.203125 2068.789063 1381.703125 2037.070313 1405.257813 C 2110.195313 1422.679688 2162.109375 1451.78125 2183.007813 1507.445313 C 2195.585938 1509.554688 2223.828125 1533.109375 2265.546875 1550.921875 C 2335.039063 1580.648438 2421.875 1614.476563 2388.90625 1653.382813 L 2347.695313 1689.59375 C 2315.546875 1701.703125 2299.882813 1653.539063 2268.203125 1636.859375 C 2243.59375 1623.890625 2201.875 1644.75 2183.007813 1632.171875 Z M 2183.007813 1632.171875 " transform="matrix(0.1,0,0,-0.1,0,347.1)"/>
<path style="fill-rule:evenodd;fill:rgb(0%,41.967773%,18.821716%);fill-opacity:1;stroke-width:2.16;stroke-linecap:butt;stroke-linejoin:miter;stroke:rgb(0%,47.068787%,20.776367%);stroke-opacity:1;stroke-miterlimit:4;" d="M 2169.921875 1644.984375 C 2151.875 1668.773438 2183.828125 1702.210938 2229.375 1736.546875 C 2274.921875 1770.882813 2334.0625 1806.195313 2400.429688 1818.617188 C 2438.085938 1825.6875 2447.304688 1866.195313 2462.617188 1891.078125 C 2464.21875 1893.65625 2464.21875 1897.132813 2465.976563 1899.320313 C 2464.804688 1912.367188 2472.539063 1912.875 2469.414063 1920.609375 C 2462.304688 1938.34375 2435.351563 1955.882813 2416.992188 1954.28125 C 2390.039063 1954.28125 2368.242188 1942.71875 2347.226563 1943.226563 C 2326.210938 1943.734375 2305.976563 1956.273438 2282.1875 1944.359375 C 2311.875 2023.617188 2373.632813 2018.03125 2428.867188 2049.59375 C 2447.304688 2060.101563 2481.679688 2064.710938 2491.679688 2091.351563 C 2518.59375 2091.351563 2515.078125 2122.640625 2537.03125 2138.109375 C 2558.984375 2153.578125 2595.195313 2157.015625 2618.984375 2168.890625 C 2608.007813 2176.195313 2618.828125 2181.976563 2612.226563 2194.164063 C 2600.703125 2215.570313 2566.40625 2205.101563 2529.257813 2211.273438 C 2556.015625 2215.726563 2563.125 2235.765625 2588.28125 2251.820313 C 2630.195313 2278.617188 2688.90625 2307.796875 2727.617188 2333.617188 C 2710.195313 2349.085938 2630.78125 2309.085938 2622.578125 2330.921875 C 2705.117188 2370.257813 2852.226563 2486.976563 2851.171875 2545.804688 C 2884.84375 2405.101563 2996.25 2388.265625 3143.164063 2346.3125 C 3244.84375 2317.289063 3298.4375 2237.914063 3288.945313 2243.734375 C 3261.875 2239.242188 3216.132813 2246.117188 3191.5625 2233.8125 C 3238.007813 2206.195313 3356.015625 2142.210938 3375.195313 2117.640625 C 3284.140625 2117.640625 3221.992188 2179.59375 3135.664063 2136.429688 L 3358.710938 1983.304688 L 3569.84375 1858.265625 C 3522.8125 1853.304688 3385.390625 1899.359375 3345.15625 1865.765625 L 3360.195313 1840.804688 C 3403.085938 1812.757813 3549.921875 1817.210938 3614.609375 1762.210938 C 3514.375 1736.234375 3338.710938 1772.523438 3337.65625 1716.078125 C 3388.203125 1690.804688 3428.164063 1686.703125 3483.554688 1677.445313 C 3507.382813 1613.929688 3616.523438 1550.101563 3678.203125 1508.96875 C 3607.03125 1486.507813 3551.601563 1524.164063 3468.554688 1562.640625 C 3421.484375 1532.914063 3432.5 1545.140625 3427.5 1477.875 C 3555.117188 1414.085938 3644.21875 1379.164063 3749.257813 1285.804688 L 3723.125 1263.265625 L 3648.125 1278.304688 C 3593.867188 1383.1875 3389.21875 1386.546875 3282.539063 1364.007813 C 3238.945313 1354.828125 3198.398438 1404.320313 3164.53125 1412.5625 C 3099.882813 1428.382813 3059.492188 1413.1875 3068.320313 1389.359375 C 3018.515625 1322.953125 3075.703125 1201.234375 3075.703125 1151.15625 C 3100.234375 1138.890625 3112.1875 1108.1875 3139.257813 1103.65625 C 3148.046875 1080.21875 3155.859375 1073.617188 3166.015625 1066.195313 C 3176.132813 1058.773438 3188.554688 1050.492188 3214.101563 1046.273438 C 3222.304688 1024.4375 3256.640625 1009.945313 3274.0625 994.476563 C 3240.195313 965.257813 3211.796875 995.570313 3165.859375 1037.484375 C 3127.617188 1072.367188 3044.375 1060.6875 2993.203125 1071.195313 C 2975.78125 1055.726563 3027.8125 1001.820313 3019.648438 979.984375 C 3005 995.921875 2969.648438 1031.195313 2931.054688 1059.515625 C 2903.085938 1080.023438 2898.789063 1113.539063 2873.164063 1126.664063 C 2857.773438 1134.554688 2814.765625 1119.554688 2806.09375 1127.25 C 2775.46875 1114.046875 2754.023438 1132.992188 2722.5 1131.234375 C 2670.117188 1128.304688 2636.289063 1078.773438 2591.757813 1061.3125 C 2541.328125 1041.546875 2479.0625 1038.695313 2430.390625 1020.375 C 2397.109375 1007.875 2391.171875 997.132813 2360.9375 977.5625 C 2373.984375 989.203125 2337.421875 985.101563 2357.460938 1010.296875 C 2361.132813 1014.945313 2358.75 1022.015625 2360.78125 1027.484375 C 2388.789063 1027.484375 2408.554688 1049.75 2434.414063 1056.15625 C 2468.320313 1064.515625 2496.054688 1070.375 2523.632813 1087.367188 C 2564.453125 1112.523438 2597.96875 1148.539063 2622.421875 1188.382813 C 2653.90625 1239.671875 2679.21875 1286.117188 2648.789063 1335.492188 C 2633.632813 1360.0625 2602.929688 1383.773438 2551.640625 1390.414063 C 2501.367188 1355.453125 2369.023438 1303.109375 2257.8125 1287.523438 C 2207.226563 1280.453125 2161.015625 1272.015625 2128.867188 1291.976563 L 2117.617188 1320.6875 C 2213.476563 1384.59375 2389.84375 1320.765625 2443.125 1462.835938 C 2422.96875 1472.914063 2400.78125 1487.679688 2377.304688 1486.585938 C 2306.953125 1483.34375 2225.195313 1427.679688 2153.242188 1396.9375 C 2094.84375 1371.976563 2055.703125 1394.515625 2023.984375 1418.070313 C 2097.109375 1435.492188 2149.023438 1464.59375 2169.921875 1520.257813 C 2182.5 1522.367188 2210.742188 1545.921875 2252.460938 1563.734375 C 2321.953125 1593.460938 2408.789063 1627.289063 2375.820313 1666.195313 L 2334.609375 1702.40625 C 2302.460938 1714.515625 2286.796875 1666.351563 2255.117188 1649.671875 C 2230.507813 1636.703125 2188.789063 1657.5625 2169.921875 1644.984375 Z M 2169.921875 1644.984375 " transform="matrix(0.1,0,0,-0.1,0,347.1)"/>
<path style="fill-rule:evenodd;fill:rgb(100%,100%,100%);fill-opacity:1;stroke-width:0.04;stroke-linecap:butt;stroke-linejoin:miter;stroke:rgb(100%,100%,100%);stroke-opacity:1;stroke-miterlimit:4;" d="M 2668.90625 2218.890625 C 2784.726563 2218.890625 2665.78125 2128.109375 2668.90625 2218.890625 Z M 2668.90625 2218.890625 " transform="matrix(0.1,0,0,-0.1,0,347.1)"/>
<path style="fill-rule:evenodd;fill:rgb(100%,100%,100%);fill-opacity:1;stroke-width:0.04;stroke-linecap:butt;stroke-linejoin:miter;stroke:rgb(100%,100%,100%);stroke-opacity:1;stroke-miterlimit:4;" d="M 2765.9375 2140.609375 C 2765.9375 2062.367188 2750.3125 2090.53125 2684.570313 2059.242188 C 2662.65625 2049.828125 2693.945313 2137.484375 2765.9375 2140.609375 Z M 2765.9375 2140.609375 " transform="matrix(0.1,0,0,-0.1,0,347.1)"/>
<path style="fill-rule:evenodd;fill:rgb(100%,100%,100%);fill-opacity:1;stroke-width:0.04;stroke-linecap:butt;stroke-linejoin:miter;stroke:rgb(100%,100%,100%);stroke-opacity:1;stroke-miterlimit:4;" d="M 2806.640625 2153.148438 C 2822.304688 2118.695313 2913.085938 2124.984375 2913.085938 2168.8125 C 2913.085938 2240.804688 2812.929688 2153.148438 2806.640625 2153.148438 Z M 2806.640625 2153.148438 " transform="matrix(0.1,0,0,-0.1,0,347.1)"/>
<path style="fill-rule:evenodd;fill:rgb(100%,100%,100%);fill-opacity:1;stroke-width:0.04;stroke-linecap:butt;stroke-linejoin:miter;stroke:rgb(100%,100%,100%);stroke-opacity:1;stroke-miterlimit:4;" d="M 2956.914063 2200.101563 C 2972.578125 2200.101563 3032.070313 2175.0625 3000.742188 2165.6875 C 2950.664063 2150.023438 2941.289063 2196.976563 2956.914063 2200.101563 Z M 2956.914063 2200.101563 " transform="matrix(0.1,0,0,-0.1,0,347.1)"/>
<path style="fill-rule:evenodd;fill:rgb(100%,100%,100%);fill-opacity:1;stroke-width:0.04;stroke-linecap:butt;stroke-linejoin:miter;stroke:rgb(100%,100%,100%);stroke-opacity:1;stroke-miterlimit:4;" d="M 3050.859375 2184.476563 C 3085.273438 2184.476563 3119.726563 2150.023438 3069.648438 2146.898438 C 3032.070313 2143.773438 3032.070313 2184.476563 3050.859375 2184.476563 Z M 3050.859375 2184.476563 " transform="matrix(0.1,0,0,-0.1,0,347.1)"/>
<path style="fill-rule:evenodd;fill:rgb(100%,100%,100%);fill-opacity:1;stroke-width:0.04;stroke-linecap:butt;stroke-linejoin:miter;stroke:rgb(100%,100%,100%);stroke-opacity:1;stroke-miterlimit:4;" d="M 2925.625 2034.203125 C 2888.046875 2034.203125 2797.265625 2002.875 2869.257813 2002.875 C 2877.109375 2002.875 2887.070313 2004.828125 2896.992188 2007.757813 C 2919.335938 2014.359375 2933.398438 2023.265625 2930.15625 2028.617188 C 2929.101563 2030.414063 2927.890625 2032.835938 2925.625 2034.203125 Z M 2925.625 2034.203125 " transform="matrix(0.1,0,0,-0.1,0,347.1)"/>
<path style="fill-rule:evenodd;fill:rgb(100%,100%,100%);fill-opacity:1;stroke-width:0.04;stroke-linecap:butt;stroke-linejoin:miter;stroke:rgb(100%,100%,100%);stroke-opacity:1;stroke-miterlimit:4;" d="M 3000.742188 2043.578125 C 3017.460938 2030.21875 3019.023438 2006.117188 3009.179688 1990.375 C 3004.882813 1983.5 2998.671875 1973.929688 2992.851563 1980.179688 C 2988.125 1985.21875 2975.3125 1982.289063 2960.039063 1980.960938 C 2950.898438 1980.179688 2955 1998.1875 2962.734375 2011.351563 C 2972.695313 2028.265625 2990.195313 2045.335938 3000.742188 2043.578125 Z M 3000.742188 2043.578125 " transform="matrix(0.1,0,0,-0.1,0,347.1)"/>
<path style="fill-rule:evenodd;fill:rgb(100%,100%,100%);fill-opacity:1;stroke-width:0.04;stroke-linecap:butt;stroke-linejoin:miter;stroke:rgb(100%,100%,100%);stroke-opacity:1;stroke-miterlimit:4;" d="M 3085.273438 2002.875 C 3102.226563 2011.351563 3116.132813 2005.84375 3131.757813 2005.960938 C 3148.75 2006.078125 3162.382813 1995.023438 3168.242188 1982.210938 C 3176.757813 1963.695313 3170.390625 1937.132813 3141.640625 1937.132813 C 3127.539063 1937.132813 3115.859375 1946.664063 3106.210938 1948.148438 C 3064.335938 1954.75 3060.820313 1965.375 3066.992188 1983.617188 C 3069.53125 1991.078125 3085.273438 1995.84375 3085.273438 2002.875 Z M 3085.273438 2002.875 " transform="matrix(0.1,0,0,-0.1,0,347.1)"/>
<path style="fill-rule:evenodd;fill:rgb(100%,100%,100%);fill-opacity:1;stroke-width:0.04;stroke-linecap:butt;stroke-linejoin:miter;stroke:rgb(100%,100%,100%);stroke-opacity:1;stroke-miterlimit:4;" d="M 2617.460938 1994.398438 C 2811.5625 1994.398438 2554.84375 1875.414063 2617.460938 1994.398438 Z M 2617.460938 1994.398438 " transform="matrix(0.1,0,0,-0.1,0,347.1)"/>
<path style="fill-rule:evenodd;fill:rgb(100%,100%,100%);fill-opacity:1;stroke-width:0.04;stroke-linecap:butt;stroke-linejoin:miter;stroke:rgb(100%,100%,100%);stroke-opacity:1;stroke-miterlimit:4;" d="M 2549.921875 1993.5 C 2555.429688 1978.421875 2579.414063 1960.648438 2586.328125 1942.40625 C 2595.195313 1918.929688 2582.8125 1896.429688 2540.546875 1896.429688 C 2530.351563 1896.429688 2528.515625 1914.007813 2521.445313 1916.585938 C 2514.53125 1919.085938 2508.945313 1930.570313 2506.289063 1935.960938 C 2485.15625 1979.359375 2483.867188 1969.671875 2503.320313 1980.179688 C 2514.960938 1986.507813 2530.78125 1984.554688 2549.921875 1993.5 Z M 2549.921875 1993.5 " transform="matrix(0.1,0,0,-0.1,0,347.1)"/>
<path style="fill-rule:evenodd;fill:rgb(100%,100%,100%);fill-opacity:1;stroke-width:0.04;stroke-linecap:butt;stroke-linejoin:miter;stroke:rgb(100%,100%,100%);stroke-opacity:1;stroke-miterlimit:4;" d="M 3223.398438 1828.34375 C 3236.367188 1822.054688 3248.476563 1819.632813 3258.59375 1819.710938 C 3269.375 1819.789063 3277.8125 1823.851563 3279.375 1858.851563 C 3281.914063 1915.609375 3153.164063 1862.5625 3223.398438 1828.34375 Z M 3223.398438 1828.34375 " transform="matrix(0.1,0,0,-0.1,0,347.1)"/>
<path style="fill-rule:evenodd;fill:rgb(100%,100%,100%);fill-opacity:1;stroke-width:0.04;stroke-linecap:butt;stroke-linejoin:miter;stroke:rgb(100%,100%,100%);stroke-opacity:1;stroke-miterlimit:4;" d="M 2985.117188 1774.320313 C 3041.445313 1755.570313 2988.242188 1680.414063 2985.117188 1774.320313 Z M 2985.117188 1774.320313 " transform="matrix(0.1,0,0,-0.1,0,347.1)"/>
<path style="fill-rule:evenodd;fill:rgb(100%,100%,100%);fill-opacity:1;stroke-width:0.04;stroke-linecap:butt;stroke-linejoin:miter;stroke:rgb(100%,100%,100%);stroke-opacity:1;stroke-miterlimit:4;" d="M 2820.273438 1832.757813 C 2876.640625 1813.96875 2823.4375 1738.851563 2820.273438 1832.757813 Z M 2820.273438 1832.757813 " transform="matrix(0.1,0,0,-0.1,0,347.1)"/>
<path style="fill-rule:evenodd;fill:rgb(100%,100%,100%);fill-opacity:1;stroke-width:0.04;stroke-linecap:butt;stroke-linejoin:miter;stroke:rgb(100%,100%,100%);stroke-opacity:1;stroke-miterlimit:4;" d="M 2928.75 1805.648438 C 2944.257813 1787.71875 2949.492188 1768.695313 2953.828125 1754.90625 C 2962.148438 1728.539063 2953.320313 1715.84375 2919.375 1730.492188 C 2905.078125 1736.664063 2897.226563 1752.875 2899.0625 1770.335938 C 2900.9375 1788.265625 2912.617188 1804.164063 2928.75 1805.648438 Z M 2928.75 1805.648438 " transform="matrix(0.1,0,0,-0.1,0,347.1)"/>
<path style="fill-rule:evenodd;fill:rgb(100%,100%,100%);fill-opacity:1;stroke-width:0.04;stroke-linecap:butt;stroke-linejoin:miter;stroke:rgb(100%,100%,100%);stroke-opacity:1;stroke-miterlimit:4;" d="M 2715.859375 1818.1875 C 2733.28125 1812.367188 2740.585938 1802.132813 2747.8125 1796.585938 C 2759.882813 1787.328125 2764.101563 1783.265625 2758.359375 1777.5625 C 2752.5 1771.703125 2740.742188 1768.65625 2730.15625 1770.296875 C 2719.023438 1772.015625 2699.101563 1780.453125 2699.023438 1794.984375 C 2699.023438 1801.546875 2705.3125 1811.15625 2715.859375 1818.1875 Z M 2715.859375 1818.1875 " transform="matrix(0.1,0,0,-0.1,0,347.1)"/>
<path style="fill-rule:evenodd;fill:rgb(100%,100%,100%);fill-opacity:1;stroke-width:0.04;stroke-linecap:butt;stroke-linejoin:miter;stroke:rgb(100%,100%,100%);stroke-opacity:1;stroke-miterlimit:4;" d="M 2415.3125 1708.578125 C 2430.976563 1714.359375 2446.054688 1714.085938 2460.742188 1714.789063 C 2489.648438 1716.15625 2523.164063 1725.453125 2540.859375 1723.96875 C 2572.148438 1721.351563 2597.65625 1720.726563 2603.046875 1712.054688 C 2606.992188 1705.726563 2603.164063 1698.304688 2594.257813 1691.15625 C 2582.773438 1681.9375 2562.851563 1673.1875 2540.039063 1667.757813 C 2517.734375 1662.484375 2493.125 1650.101563 2474.179688 1644.90625 C 2453.515625 1639.28125 2441.015625 1646.820313 2430.46875 1664.085938 C 2424.179688 1674.476563 2414.882813 1683.695313 2415.3125 1708.578125 Z M 2415.3125 1708.578125 " transform="matrix(0.1,0,0,-0.1,0,347.1)"/>
<path style="fill-rule:evenodd;fill:rgb(100%,100%,100%);fill-opacity:1;stroke-width:0.04;stroke-linecap:butt;stroke-linejoin:miter;stroke:rgb(100%,100%,100%);stroke-opacity:1;stroke-miterlimit:4;" d="M 2621.953125 1555.179688 C 2622.460938 1531.546875 2630.664063 1515.53125 2634.257813 1502.71875 C 2642.226563 1474.476563 2650.3125 1467.171875 2663.359375 1466.976563 C 2670.078125 1466.859375 2673.359375 1469.203125 2675.546875 1469.945313 C 2692.1875 1475.609375 2696.5625 1510.375 2679.101563 1538.65625 C 2671.679688 1550.609375 2651.445313 1555.804688 2621.953125 1555.179688 Z M 2621.953125 1555.179688 " transform="matrix(0.1,0,0,-0.1,0,347.1)"/>
<path style="fill-rule:evenodd;fill:rgb(100%,100%,100%);fill-opacity:1;stroke-width:0.04;stroke-linecap:butt;stroke-linejoin:miter;stroke:rgb(100%,100%,100%);stroke-opacity:1;stroke-miterlimit:4;" d="M 2750.3125 1527.015625 C 2751.875 1513.695313 2761.25 1486.273438 2763.945313 1478.109375 C 2774.179688 1447.171875 2793.164063 1466.351563 2794.140625 1500.375 C 2794.375 1508.109375 2793.515625 1518.109375 2777.695313 1521.507813 C 2768.828125 1523.382813 2767.421875 1523.8125 2761.445313 1523.96875 C 2759.882813 1523.96875 2751.953125 1527.09375 2750.3125 1527.015625 Z M 2750.3125 1527.015625 " transform="matrix(0.1,0,0,-0.1,0,347.1)"/>
<path style="fill-rule:evenodd;fill:rgb(100%,100%,100%);fill-opacity:1;stroke-width:0.04;stroke-linecap:butt;stroke-linejoin:miter;stroke:rgb(100%,100%,100%);stroke-opacity:1;stroke-miterlimit:4;" d="M 2850.46875 1539.554688 C 2856.71875 1496.9375 2869.296875 1472.015625 2884.570313 1472.25 C 2893.710938 1472.367188 2906.835938 1488.578125 2911.71875 1495.84375 C 2914.609375 1500.101563 2914.101563 1505.453125 2916.09375 1510.0625 C 2926.5625 1534.476563 2898.90625 1540.648438 2850.46875 1539.554688 Z M 2850.46875 1539.554688 " transform="matrix(0.1,0,0,-0.1,0,347.1)"/>
<path style="fill-rule:evenodd;fill:rgb(100%,100%,100%);fill-opacity:1;stroke-width:0.04;stroke-linecap:butt;stroke-linejoin:miter;stroke:rgb(100%,100%,100%);stroke-opacity:1;stroke-miterlimit:4;" d="M 3160.429688 1586.429688 C 3213.671875 1624.046875 3245.039063 1658.539063 3292.03125 1611.507813 C 3308.203125 1595.375 3277.539063 1573.382813 3240.390625 1559.359375 C 3229.882813 1555.375 3223.671875 1559.554688 3212.890625 1559.90625 C 3182.5 1560.921875 3163.046875 1565.726563 3160.429688 1586.429688 Z M 3160.429688 1586.429688 " transform="matrix(0.1,0,0,-0.1,0,347.1)"/>
<path style="fill-rule:evenodd;fill:rgb(100%,100%,100%);fill-opacity:1;stroke-width:0.04;stroke-linecap:butt;stroke-linejoin:miter;stroke:rgb(100%,100%,100%);stroke-opacity:1;stroke-miterlimit:4;" d="M 3379.570313 1599.007813 C 3406.679688 1598.539063 3436.953125 1591.625 3443.046875 1576.976563 C 3447.8125 1565.53125 3424.414063 1550.570313 3424.765625 1532.992188 C 3424.960938 1522.445313 3410.976563 1520.023438 3395.234375 1520.765625 C 3316.09375 1524.476563 3325.703125 1549.28125 3354.765625 1577.328125 C 3364.453125 1586.664063 3363.125 1597.445313 3379.570313 1599.007813 Z M 3379.570313 1599.007813 " transform="matrix(0.1,0,0,-0.1,0,347.1)"/>
</g>
</svg>
