<svg width="23" height="17" viewBox="0 0 23 17" fill="none" xmlns="http://www.w3.org/2000/svg">
<g id="artwork">
<g clip-path="url(#clip0_2154_49482)">
<rect x="0.613281" y="0.307617" width="22" height="16" rx="2" fill="#F93939"/>
<path id="vector" d="M20.518 0.307617H2.70852C1.55135 0.307617 0.613281 1.26274 0.613281 2.44095V14.1743C0.613281 15.3525 1.55135 16.3076 2.70852 16.3076H20.518C21.6752 16.3076 22.6133 15.3525 22.6133 14.1743V2.44095C22.6133 1.26274 21.6752 0.307617 20.518 0.307617Z" fill="#F93939"/>
<path id="vector_2" fill-rule="evenodd" clip-rule="evenodd" d="M6.61328 11.3076H22.6133V16.3076H6.61328V11.3076Z" fill="#249F58"/>
<path id="vector_3" fill-rule="evenodd" clip-rule="evenodd" d="M6.61206 0.307617H22.6121V5.30762H6.61206V0.307617ZM5.40596 4.47082C5.34834 4.55935 5.28234 4.64148 5.20691 4.71935C4.59196 5.34442 3.59672 5.34442 2.98387 4.71935C2.36996 4.09535 2.36996 3.08202 2.98387 2.45802C3.05929 2.37908 3.14101 2.31188 3.22796 2.25322C2.99225 2.70122 3.18606 3.41802 3.72453 3.96522C4.26301 4.51135 4.96596 4.70975 5.40701 4.46975L5.40596 4.47082Z" fill="white"/>
<path id="vector_4" fill-rule="evenodd" clip-rule="evenodd" d="M3.15339 4.47102C3.21101 4.55955 3.27701 4.64168 3.35244 4.71955C3.96739 5.34462 4.96263 5.34462 5.57549 4.71955C6.18939 4.09555 6.18939 3.08222 5.57549 2.45822C5.50006 2.37928 5.41834 2.31208 5.33139 2.25342C5.56711 2.70142 5.3733 3.41822 4.83482 3.96542C4.29634 4.51155 3.59339 4.70995 3.15234 4.46995L3.15339 4.47102Z" fill="white"/>
</g>
</g>
<defs>
<clipPath id="clip0_2154_49482">
<rect x="0.613281" y="0.307617" width="22" height="16" rx="2" fill="white"/>
</clipPath>
</defs>
</svg>
