<svg width="23" height="17" viewBox="0 0 23 17" fill="none" xmlns="http://www.w3.org/2000/svg">
<g id="artwork">
<rect x="0.613281" y="0.307617" width="22" height="16" rx="2" fill="#249F58"/>
<path id="vector" fill-rule="evenodd" clip-rule="evenodd" d="M17.3762 10.9744V9.90772H5.85235L7.94758 10.9744H14.2333C14.2333 11.5632 14.9373 12.0411 15.8047 12.0411C16.6722 12.0411 17.3762 11.5632 17.3762 10.9744ZM9.75996 4.47412C9.74739 4.47412 9.72854 4.48052 9.70444 4.49545C9.64787 4.53385 9.53682 4.65225 9.53263 4.78879C9.52949 4.86665 9.51482 4.86665 9.56406 4.91679C9.59968 4.96799 9.63739 4.96372 9.70863 4.92425C9.75054 4.89225 9.76416 4.87412 9.77882 4.82185C9.79558 4.73652 9.68768 4.86452 9.67406 4.76639C9.64997 4.67679 9.71911 4.63839 9.78406 4.55305C9.78616 4.51039 9.78616 4.47839 9.75996 4.47625V4.47412ZM10.8107 4.47945C10.7898 4.48372 10.7657 4.51145 10.7311 4.57332C10.707 4.63945 10.6012 4.73972 10.6787 4.94665C10.7395 5.07785 10.7657 5.29012 10.7374 5.52799C10.6934 5.59519 10.685 5.61865 10.6274 5.68585C10.5478 5.77439 10.4598 5.75199 10.3948 5.71785C10.332 5.67519 10.2838 5.65385 10.2555 5.51945C10.2607 5.30612 10.2733 4.95199 10.2345 4.87732C10.178 4.76212 10.0837 4.80265 10.0439 4.83785C9.85216 5.01919 9.75682 5.32105 9.69816 5.56319C9.64577 5.73812 9.58816 5.68692 9.54835 5.61652C9.45092 5.52265 9.44358 4.79519 9.32625 4.91572C9.13768 5.46399 9.43416 6.06452 9.64054 6.00585C9.7872 6.06985 9.88149 5.78185 9.94225 5.46719C9.98416 5.37865 10.0156 5.36799 10.0365 5.41385C10.0313 5.83199 10.068 5.92585 10.1727 6.05172C10.4074 6.23732 10.6023 6.07519 10.618 6.06025L10.8013 5.87465C10.8432 5.83199 10.8956 5.82772 10.9532 5.86612C11.0098 5.91945 11.0024 6.00799 11.1208 6.06879C11.2235 6.11145 11.4383 6.07945 11.4875 5.99092C11.5556 5.87359 11.5713 5.83305 11.6027 5.78825C11.6509 5.72425 11.7337 5.75305 11.7337 5.77332C11.7263 5.81065 11.6782 5.84799 11.7106 5.91199C11.7683 5.95465 11.7819 5.92692 11.8154 5.91732C11.9348 5.85972 12.0249 5.59519 12.0249 5.59519C12.0302 5.49705 11.9757 5.50452 11.9411 5.52479C11.894 5.55359 11.8919 5.56319 11.8468 5.59199C11.7871 5.60052 11.674 5.63999 11.6184 5.55145C11.5608 5.44479 11.5608 5.29759 11.5168 5.18879C11.5168 5.18239 11.4403 5.02132 11.5105 5.01172C11.5451 5.01812 11.6226 5.03839 11.6342 4.97332C11.6719 4.90932 11.5535 4.72799 11.4728 4.63839C11.4037 4.56052 11.3073 4.55092 11.2141 4.62985C11.1481 4.69172 11.1585 4.75999 11.1449 4.82505C11.1292 4.89972 11.1323 4.99252 11.2078 5.09172C11.2727 5.22185 11.3911 5.39039 11.3513 5.62719C11.3513 5.62719 11.2832 5.74025 11.1627 5.72532C11.1103 5.71465 11.0286 5.69332 10.9846 5.36265C10.9532 5.11412 10.993 4.76532 10.8903 4.60212C10.8663 4.54132 10.8463 4.48159 10.8128 4.48479L10.8107 4.47945ZM10.4776 4.50719C10.4462 4.51039 10.4116 4.54772 10.3833 4.61919C10.3592 4.67465 10.3288 4.96052 10.3341 4.96052C10.3131 5.04585 10.421 5.08212 10.4703 4.97332C10.5436 4.77065 10.5436 4.68532 10.5478 4.60212C10.5373 4.53812 10.509 4.50612 10.4776 4.50825V4.50719ZM11.7064 4.52852C11.675 4.53279 11.6488 4.55199 11.6394 4.60105C11.6258 4.71412 11.6331 4.77705 11.652 4.87199C11.6656 4.93599 11.7567 5.04052 11.8007 5.10239C12.0134 5.39359 12.2198 5.68585 12.4167 5.98772C12.4482 6.21385 12.4691 6.43359 12.4848 6.65332C12.5183 7.13332 12.5267 7.73065 12.4984 8.23732C12.5864 8.24052 12.7289 8.09119 12.7782 7.87465C12.8096 7.57172 12.7677 6.95732 12.7635 6.77812L12.753 6.52425C12.9835 6.90825 13.2056 7.31359 13.4235 7.75732C13.5042 7.71892 13.4863 7.26132 13.4403 7.19732C13.2643 6.81332 13.0212 6.43359 12.9447 6.28745C12.9164 6.23412 12.8211 6.08799 12.709 5.91839C12.6881 5.67519 12.665 5.47039 12.6503 5.40852C12.6137 5.15252 12.753 5.43732 12.7342 5.28905C12.6881 5.03305 12.5498 4.86025 12.3863 4.62559C12.334 4.55092 12.334 4.53385 12.2533 4.64479C12.2062 4.75679 12.2062 4.85065 12.2219 4.93812C12.1988 4.90612 12.1726 4.86985 12.1349 4.82292L11.8678 4.59252C11.8311 4.56585 11.7599 4.52532 11.7064 4.52852ZM15.348 4.56799C15.3323 4.56585 15.3165 4.57332 15.2956 4.60212C15.2589 4.63412 15.2202 4.69492 15.2223 4.77279C15.2296 4.90612 15.2537 5.04372 15.2621 5.17812L15.2725 5.23145C15.2579 5.21439 15.2453 5.19945 15.238 5.19305C14.9792 4.91572 15.3563 5.14612 15.1877 4.93385C15.0463 4.77385 15.0043 4.72479 14.8839 4.62879C14.821 4.59039 14.7854 4.51359 14.7655 4.64372C14.7571 4.75785 14.7487 4.89119 14.755 4.98719C14.755 5.04052 14.8105 5.14185 14.8577 5.20052C15.0295 5.41705 15.2055 5.64639 15.3815 5.88532C15.4192 6.37279 15.4286 6.81972 15.4653 7.30825C15.4611 7.51732 15.3983 7.79465 15.3396 7.82025C15.3396 7.82025 15.2474 7.87359 15.1866 7.81492C15.1416 7.79679 14.9645 7.51305 14.9645 7.51305C14.8734 7.42772 14.8126 7.45225 14.7487 7.51305C14.5706 7.68799 14.4889 8.01652 14.3684 8.24265C14.337 8.29279 14.2501 8.33652 14.1526 8.23839C13.9043 7.89279 14.0479 7.40105 14.0185 7.52799C13.7985 7.78185 13.8949 8.20212 13.9452 8.29279C14.0185 8.44212 14.0772 8.53812 14.2176 8.60959C14.3485 8.70559 14.4481 8.64692 14.5046 8.57759C14.6345 8.44105 14.6366 8.09012 14.6974 8.02079C14.7393 7.89279 14.8472 7.91412 14.8996 7.97172C14.952 8.04639 15.0106 8.09439 15.085 8.13492C15.2065 8.24372 15.3511 8.26292 15.4936 8.16372C15.591 8.10825 15.6549 8.03572 15.7115 7.89279C15.7743 7.72639 15.7429 6.85172 15.7293 6.36532L16.0017 6.76639C16.0394 7.19305 16.0572 7.61439 16.0436 8.01759C16.0352 8.09759 16.3191 7.77865 16.316 7.62719C16.316 7.49599 16.3181 7.37545 16.316 7.26452C16.4553 7.48852 16.5883 7.71572 16.7141 7.94719C16.7926 7.90452 16.7664 7.45332 16.7172 7.39252C16.5852 7.16639 16.4155 6.92319 16.2845 6.73332C16.2583 6.49545 16.2238 6.21492 16.207 6.12852C16.1829 5.99412 16.1578 5.79252 16.1201 5.63359C16.1096 5.57279 16.0782 5.37439 16.0886 5.35625C16.1033 5.31039 16.162 5.35625 16.1903 5.30505C16.2322 5.25705 16.0415 4.75039 15.9441 4.60745C15.9095 4.54345 15.8456 4.56479 15.7681 4.67145C15.6947 4.73972 15.722 4.89759 15.7492 5.04799C15.8204 5.43199 15.8854 5.82025 15.9357 6.21065C15.8414 6.06665 15.7262 5.89385 15.613 5.72852L15.5983 5.65385C15.5983 5.64532 15.5837 5.33919 15.5701 5.26665C15.5669 5.23679 15.5596 5.22825 15.591 5.23252C15.6224 5.26025 15.6266 5.26132 15.6465 5.27092C15.6801 5.27519 15.7094 5.21972 15.6884 5.16745L15.3846 4.59785C15.3742 4.58399 15.3595 4.57119 15.3427 4.56905L15.348 4.56799ZM5.95082 4.57865C5.8932 4.57652 5.83244 4.61065 5.85654 4.67999C5.84187 4.71732 5.96549 4.84319 5.98749 4.91252C6.0053 4.96265 5.96654 5.12052 6.00844 5.13652C6.04511 5.15252 6.09644 5.02559 6.1153 4.90932C6.12578 4.84532 6.11844 4.62559 5.97178 4.58079C5.96444 4.57865 5.95711 4.57865 5.94873 4.57759L5.95082 4.57865ZM16.6575 4.57865C16.6439 4.58079 16.6282 4.59999 16.6051 4.65332C16.5475 4.74932 16.5276 4.91999 16.5506 5.06932C16.6868 6.01865 16.7916 6.93812 16.8125 7.77865C16.8 7.85972 16.7958 7.90239 16.7602 8.00265C16.6784 8.10932 16.5883 8.24159 16.5035 8.30559C16.4197 8.36959 16.2395 8.43145 16.1808 8.47839C15.9923 8.58719 15.9923 8.71305 16.1431 8.71839C16.4029 8.68639 16.7109 8.66505 16.9225 8.33972C16.9791 8.24905 17.0462 8.00159 17.0483 7.84905C17.0692 6.96372 17.0378 6.09439 16.9068 5.45332C16.8984 5.38932 16.8712 5.24745 16.8817 5.22932C16.8974 5.18452 16.9823 5.23252 17.0126 5.18239C17.0577 5.13545 16.7926 4.79092 16.7004 4.64372C16.6816 4.60745 16.669 4.57652 16.6543 4.57972L16.6575 4.57865ZM13.9305 4.59359C13.9201 4.59572 13.9054 4.61279 13.8761 4.65225C13.8027 4.89332 13.7776 5.08959 13.8059 5.24105C13.9944 6.23305 14.183 7.13439 14.1537 8.07839C14.2417 8.07839 14.3443 7.87252 14.3883 7.66772C14.4124 7.38505 14.3716 7.21332 14.3653 7.04905C14.358 6.88265 14.1809 5.53865 14.1453 5.41385C14.1013 5.17705 14.3171 5.38185 14.2941 5.24532C14.2186 5.07039 14.0322 4.81865 13.9756 4.66612C13.9546 4.62559 13.9504 4.58825 13.9337 4.59145L13.9305 4.59359ZM7.29492 4.61279C7.27397 4.61705 7.24987 4.63625 7.24254 4.66612C7.2373 4.68745 7.25092 4.72265 7.23206 4.73332C7.22158 4.74399 7.18178 4.73652 7.18387 4.67999C7.18387 4.66079 7.17025 4.64159 7.16292 4.62985C7.15454 4.62559 7.1493 4.62452 7.13463 4.62452C7.11682 4.62452 7.11682 4.62985 7.10739 4.64585C7.1032 4.66079 7.09692 4.67572 7.09692 4.69279C7.09482 4.71412 7.08644 4.71945 7.07282 4.72265C7.05606 4.72265 7.0592 4.72479 7.04663 4.71519C7.03616 4.70772 7.02778 4.70452 7.02778 4.68959C7.02778 4.67359 7.02358 4.64692 7.01939 4.63839C7.01206 4.62772 7.00054 4.62345 6.98797 4.62025C6.91882 4.62025 6.91463 4.70345 6.91778 4.73332C6.91254 4.73972 6.91044 4.88265 7.00473 4.92319C7.13044 4.98505 7.3693 4.95839 7.36092 4.75039C7.36092 4.73225 7.35568 4.67039 7.35358 4.65439C7.34101 4.62239 7.31692 4.61172 7.29387 4.61492L7.29492 4.61279ZM8.99835 4.61492C8.95435 4.61705 8.91454 4.62985 8.88311 4.64692C8.7993 4.72905 8.77835 4.86025 8.84539 4.94239C8.90825 4.97439 8.97425 5.03839 8.9313 5.07572C8.74901 5.27305 8.27444 5.60479 8.25035 5.66559V5.67199H8.25454V5.67412C8.27863 5.69012 8.57616 5.69012 8.60863 5.67412H8.61073C8.71339 5.63465 9.19739 5.07145 9.19739 5.07145C9.17225 5.05012 9.1492 5.03305 9.12406 5.01065C9.09682 4.98719 9.09997 4.96372 9.12406 4.94025C9.24349 4.86985 9.20577 4.71305 9.14292 4.64159C9.09054 4.61812 9.04235 4.60959 8.99835 4.61279V4.61492ZM13.4507 4.61492C13.4382 4.61812 13.4224 4.63625 13.3983 4.68959C13.3407 4.78559 13.302 4.95092 13.3072 5.10559C13.4308 5.98025 13.4685 6.74505 13.5503 7.61972C13.5565 7.70505 13.544 7.82665 13.4895 7.87572C13.2842 8.09332 12.9898 8.35999 12.6692 8.48372C12.6346 8.52319 12.7551 8.69065 12.9102 8.69065C13.17 8.65865 13.3983 8.51145 13.6121 8.11999C13.6676 8.02932 13.7671 7.83412 13.7692 7.68265C13.7902 6.79519 13.7273 6.10399 13.5953 5.46399C13.588 5.39999 13.5932 5.32532 13.6037 5.30825C13.6204 5.28692 13.677 5.30825 13.7084 5.25812C13.7524 5.21119 13.589 4.82825 13.4968 4.68212C13.478 4.64479 13.4675 4.61492 13.4507 4.61599V4.61492ZM6.5532 4.64372C6.51758 4.64799 6.48406 4.67572 6.4673 4.71839C6.46206 4.85705 6.46101 4.99572 6.47778 5.12585C6.54063 5.35305 6.55844 5.55252 6.58882 5.78399C6.5993 6.09545 6.41282 5.91839 6.4212 5.76479C6.46311 5.56425 6.45263 5.24959 6.41492 5.16959C6.38349 5.08959 6.34997 5.07039 6.27663 5.08425C6.21901 5.07999 6.0692 5.24425 6.0273 5.52159C6.0273 5.52159 5.99168 5.66239 5.97701 5.78825C5.95606 5.93012 5.86387 6.03145 5.79892 5.76905C5.74339 5.57705 5.70987 5.10772 5.61663 5.21652C5.58939 5.58345 5.55797 6.22985 5.86387 6.29599C6.23473 6.33225 6.02939 5.65812 6.16349 5.53545C6.18968 5.47679 6.23682 5.47572 6.23997 5.55145V6.12425C6.23578 6.30985 6.3552 6.36532 6.44949 6.40372C6.54692 6.39625 6.61082 6.39945 6.64854 6.49545L6.69568 7.48745C6.69568 7.48745 6.91987 7.55145 6.93035 6.92959C6.94082 6.56372 6.85701 6.25759 6.90625 6.18612C6.90835 6.11572 6.99635 6.11145 7.05711 6.14665C7.15454 6.21599 7.19749 6.30132 7.34835 6.26719C7.57882 6.20319 7.71501 6.09012 7.71816 5.91092C7.70768 5.74025 7.68673 5.56959 7.61339 5.39892C7.62387 5.36905 7.57149 5.28905 7.58197 5.25812C7.62178 5.32212 7.68463 5.31785 7.6972 5.25812C7.65949 5.12692 7.59873 5.00212 7.50025 4.94879C7.41958 4.87412 7.3012 4.89012 7.2572 5.04159C7.23625 5.21652 7.32006 5.42345 7.44578 5.59305C7.47092 5.65919 7.50863 5.76905 7.49187 5.86825C7.42587 5.90665 7.35987 5.88959 7.3033 5.83092C7.3033 5.83092 7.12206 5.69225 7.12206 5.66025C7.1713 5.34559 7.13254 5.30825 7.10635 5.22292C7.08749 5.10132 7.03092 5.06292 6.98587 4.97972C6.93977 4.92959 6.87797 4.92959 6.84968 4.97972C6.76797 5.12159 6.80568 5.42772 6.86435 5.56319C6.90625 5.68905 6.9712 5.76799 6.94082 5.76799C6.91568 5.83732 6.8633 5.82132 6.82558 5.73919C6.7732 5.56852 6.76063 5.31679 6.76063 5.20265C6.74492 5.06185 6.72711 4.75999 6.63492 4.68319C6.61082 4.64905 6.58254 4.63732 6.55425 4.64052L6.5532 4.64372ZM7.85435 4.64372C7.83654 4.64799 7.81558 4.65865 7.79149 4.66505C7.71292 4.68959 7.63958 4.75892 7.66263 4.89332C7.75692 5.46932 7.81663 5.90985 7.90987 6.48585C7.92349 6.55412 7.86797 6.64265 7.79673 6.63519C7.6752 6.54985 7.64482 6.37919 7.43739 6.38772C7.28654 6.38772 7.11473 6.55625 7.09378 6.71625C7.06863 6.84425 7.06025 6.98292 7.09378 7.09385C7.19854 7.22185 7.32635 7.20905 7.43739 7.17919C7.52854 7.14185 7.60501 7.05119 7.63644 7.07252C7.65739 7.10772 7.63435 7.40745 7.20692 7.63785C6.94292 7.75945 6.73339 7.78719 6.62025 7.56959C6.55111 7.43305 6.62654 6.91252 6.45473 7.03199C5.94558 8.36745 7.64587 8.55305 7.83549 7.08745C7.84806 7.04479 7.88473 7.00425 7.91197 7.01492C7.92244 7.02025 7.93292 7.03625 7.93711 7.06612C7.8973 8.39305 6.6213 8.48479 6.40549 8.06665C6.35101 7.96852 6.3353 7.74879 6.33006 7.61865C6.31958 7.53865 6.30073 7.49279 6.27768 7.47465C6.2253 7.43519 6.15616 7.53865 6.14149 7.71679C6.12054 7.86079 6.12578 7.90025 6.12578 8.03892C6.19492 9.08745 7.83654 8.63625 8.10368 7.77225C8.23568 7.32425 8.10054 6.98612 8.14558 6.94452L8.14873 6.94239H8.15187L8.15711 6.94025C8.32054 7.11945 8.54892 6.96159 8.5992 6.90079C8.62016 6.86879 8.67463 6.84745 8.71235 6.89012C8.83806 6.98185 9.06225 6.93812 9.10835 6.77279C9.13558 6.61279 9.15863 6.44852 9.16387 6.27679C9.08006 6.30345 9.01301 6.32265 8.98578 6.35145C8.97949 6.35892 8.9753 6.36745 8.9732 6.37599L8.95225 6.51785C8.95225 6.52319 8.95016 6.52639 8.94806 6.52852C8.94492 6.53599 8.93758 6.54132 8.93339 6.54452C8.90406 6.56052 8.85273 6.55199 8.84958 6.50825C8.81082 6.32692 8.64844 6.30345 8.54997 6.58612C8.48397 6.63945 8.36139 6.65012 8.35092 6.56905C8.36663 6.37919 8.2912 6.35359 8.14139 6.44319L7.99682 5.33385C8.05968 5.33065 8.11625 5.37652 8.17492 5.30399C8.11206 5.10772 7.98111 4.70879 7.90673 4.67039H7.90463L7.89416 4.65972C7.89416 4.65759 7.89101 4.65652 7.88892 4.65545L7.88473 4.64905C7.88054 4.64905 7.87635 4.64692 7.87425 4.64585C7.86692 4.64372 7.86063 4.64372 7.8533 4.64372H7.85435ZM12.9269 4.64799C12.862 4.64585 12.7907 4.68745 12.818 4.77065C12.8012 4.81652 12.9573 4.97012 12.9824 5.05332C13.0275 5.18132 12.9479 5.30612 12.995 5.32425C13.039 5.34345 13.0998 5.19092 13.1207 5.04905C13.148 4.93385 13.0683 4.69919 12.9531 4.65119L12.9269 4.64905V4.64799ZM8.97425 4.78772C9.00358 4.78559 9.0392 4.81332 9.05806 4.85172C9.07587 4.89439 9.06644 4.93385 9.03711 4.94132C9.00568 4.94879 8.96587 4.92212 8.94701 4.87945C8.92816 4.83679 8.93654 4.79732 8.96797 4.78985H8.97425V4.78772ZM16.3044 4.98185C16.2447 4.97972 16.1787 5.02452 16.206 5.11519C16.1913 5.16425 16.3317 5.33065 16.3558 5.42239C16.3767 5.48639 16.3243 5.69545 16.3663 5.71465C16.4061 5.73599 16.4605 5.56959 16.4815 5.41599C16.4941 5.33065 16.4333 5.03732 16.3296 4.98505C16.3223 4.98292 16.3139 4.98079 16.3055 4.98079L16.3044 4.98185ZM12.2502 5.08425C12.2575 5.10879 12.2627 5.13332 12.2659 5.15892C12.2784 5.21225 12.2889 5.26559 12.2994 5.32105C12.2533 5.25492 12.2156 5.20159 12.1978 5.18239C12.093 5.05439 12.1999 5.09919 12.2502 5.08425ZM13.1857 5.55145C13.1626 5.55572 13.1406 5.57599 13.1333 5.60799C13.127 5.62719 13.1417 5.66132 13.1228 5.67199C13.1123 5.68265 13.0704 5.67625 13.0736 5.61865C13.0736 5.59945 13.06 5.57919 13.0526 5.56852C13.0443 5.56319 13.039 5.56105 13.0243 5.56105C13.0065 5.56105 13.0065 5.56639 12.9971 5.58239C12.9929 5.59732 12.9866 5.61225 12.9866 5.63039C12.9866 5.65172 12.9783 5.65812 12.9636 5.66239C12.9468 5.66239 12.95 5.66239 12.9363 5.65492C12.928 5.64425 12.9185 5.64212 12.9185 5.62719C12.9185 5.61119 12.9154 5.58665 12.9102 5.57599C12.9028 5.56532 12.8923 5.56212 12.8787 5.55785C12.8106 5.55785 12.8054 5.63892 12.8096 5.66879C12.8054 5.67519 12.8023 5.82025 12.8965 5.86079C13.0243 5.92159 13.2632 5.89279 13.2527 5.68585C13.2527 5.66772 13.2475 5.60585 13.2464 5.58985C13.2328 5.55785 13.2087 5.54719 13.1867 5.55039L13.1857 5.55145ZM8.92187 5.59412C8.9072 5.59412 8.88625 5.59839 8.86216 5.61332C8.75006 5.67519 8.70711 5.85865 8.77835 5.96532C8.8412 6.06132 8.94597 6.02612 8.95958 6.02612C9.06958 6.04105 9.13454 5.81705 9.13454 5.81705C9.13454 5.81705 9.13768 5.75305 9.00882 5.87252C8.95225 5.88319 8.94597 5.86185 8.9313 5.82985C8.91873 5.77332 8.92082 5.71252 8.94701 5.65599C8.95958 5.62079 8.94701 5.59839 8.92187 5.59625V5.59412ZM14.9488 5.62292C14.886 5.61972 14.82 5.66132 14.8022 5.74772C14.8022 5.79892 14.8252 5.82665 14.821 5.87359C14.8158 5.90025 14.7896 5.91625 14.7246 5.88639C14.7351 5.87572 14.6827 5.80319 14.6827 5.80319C14.6335 5.77119 14.5675 5.80319 14.5235 5.83305C14.4994 5.87785 14.4816 5.95359 14.5088 6.03039C14.5801 6.16585 14.8263 6.39625 14.9436 6.39839C14.9457 6.27679 14.9572 6.11465 14.9645 6.01439C14.9666 5.97599 14.975 5.93439 15.0117 5.92479C15.0473 5.91412 15.1091 5.96105 15.1091 5.92159C15.1028 5.84479 15.0882 5.72959 15.0463 5.67625C15.0232 5.64425 14.9865 5.62505 14.9499 5.62292H14.9488ZM9.95901 6.04639L9.95587 6.04959C9.95587 6.04959 9.95377 6.04959 9.95273 6.05172C9.94016 6.06239 9.92549 6.08372 9.89301 6.10505C9.83749 6.16905 9.82806 6.21492 9.83016 6.34292C9.83435 6.35679 9.93492 6.64479 10.0219 6.84639C10.0805 7.05652 10.134 7.29759 10.0952 7.52479C9.95901 7.82559 9.68663 8.09545 9.42158 8.24265C9.28539 8.28532 9.17016 8.27039 9.13873 8.24052C9.0612 8.18719 9.06016 8.09119 9.06539 8.07625V8.07305C9.28749 7.91519 9.54206 7.78719 9.74111 7.36159C9.79978 7.19839 9.81863 7.10025 9.75996 6.84959C9.73692 6.75359 9.70758 6.67892 9.64473 6.61065H9.64682C9.68454 6.59252 9.78301 6.66612 9.79873 6.62132C9.77463 6.49972 9.69397 6.33865 9.60492 6.25545C9.5253 6.18079 9.4373 6.17332 9.36606 6.24052C9.28435 6.28745 9.26758 6.45385 9.30635 6.59892C9.35035 6.70772 9.46873 6.72692 9.55254 6.94772C9.55463 6.96265 9.58082 7.11305 9.53892 7.17492C9.5033 7.28372 9.06225 7.63785 9.03082 7.65919L9.02768 7.66132L9.02558 7.66345H9.02349H9.02139V7.66025C9.0193 7.65172 9.02139 7.62825 9.02139 7.59305C9.01825 7.52692 9.04549 7.37652 9.04235 7.34985V7.34772C8.89568 7.44372 8.84644 7.73705 8.82025 7.82452C8.45044 8.08372 8.03139 8.27679 7.78939 8.53919C7.66368 8.74185 8.65682 8.31092 8.77206 8.25865L8.7752 8.26185C8.79825 8.28639 8.7993 8.37172 8.8653 8.44959C8.97006 8.59145 9.18797 8.67892 9.40168 8.62452C9.75996 8.49332 9.96739 8.24479 10.1769 7.96852C10.2063 7.92585 10.2534 7.88959 10.2974 7.92372C10.4409 8.25225 10.8579 8.48692 11.3953 8.51039C11.521 8.35679 11.4613 8.28105 11.411 8.24905C11.3953 8.23839 11.1439 8.13812 11.1041 8.03892C11.08 7.94719 11.1397 7.86505 11.2591 7.80425C11.6048 7.76159 11.9443 7.71359 12.2732 7.60585C12.2763 7.49279 12.3413 7.32532 12.3853 7.25172C12.4167 7.20159 12.4345 7.19625 12.4419 7.18985V7.18772H12.444V7.18452V7.17385L12.3874 7.13972L11.2843 7.13545C11.2706 7.13012 11.2612 7.12479 11.2549 7.11945L11.2528 7.11625C11.2528 7.11625 11.2507 7.11625 11.2507 7.11412C11.2507 7.11199 11.2486 7.11199 11.2486 7.11199V7.11305V7.11092V7.10879V7.10665L11.2507 7.10345C11.256 7.09705 11.2696 7.08959 11.2853 7.08212C11.5493 7.04692 12.0165 6.96905 12.048 6.51145C12.0427 6.27252 11.9474 6.11679 11.6603 6.07412C11.4487 6.09012 11.2979 6.29812 11.322 6.52639C11.3115 6.58719 11.3429 6.70772 11.2801 6.72159C10.8757 6.75999 10.4336 7.01812 10.4189 7.20372H10.4168H10.4147H10.4126C10.4126 7.20585 10.4105 7.20585 10.4095 7.20585H10.4053H10.4032H10.399C10.3728 7.19732 10.3393 7.15252 10.3445 7.09172C10.3288 6.77172 10.2262 6.40905 10.0669 6.13172C10.0093 6.07305 9.98311 6.04959 9.96844 6.04639H9.9653H9.96216H9.96006H9.95901ZM11.015 6.21492C10.9941 6.21919 10.97 6.23839 10.9626 6.27039C10.9574 6.29172 10.9731 6.32585 10.9543 6.33652C10.9438 6.34719 10.9019 6.34079 10.904 6.28319C10.904 6.26505 10.8903 6.24479 10.883 6.23305C10.8746 6.22772 10.8694 6.22665 10.8558 6.22665C10.838 6.22665 10.8369 6.23092 10.8275 6.24585C10.8223 6.26079 10.817 6.27785 10.817 6.29385C10.8149 6.31519 10.8065 6.32159 10.7929 6.32372C10.7762 6.32372 10.7803 6.32692 10.7667 6.31839C10.7583 6.30985 10.7479 6.30559 10.7479 6.29065C10.7479 6.27465 10.7447 6.24799 10.7405 6.23732C10.7332 6.22985 10.7217 6.22665 10.7091 6.22239C10.6389 6.22239 10.6358 6.30239 10.6389 6.33332C10.6337 6.33865 10.6305 6.48265 10.7248 6.52319C10.8505 6.58505 11.1543 6.54879 11.081 6.34932C11.081 6.33119 11.0758 6.26932 11.0747 6.25332C11.0611 6.22132 11.037 6.21065 11.014 6.21385L11.015 6.21492ZM15.2736 6.39305H15.2631C15.2631 6.39305 14.6743 6.81972 14.6607 6.83465C14.6021 6.88799 14.6314 7.07252 14.6607 7.05119C14.7026 7.06719 15.2945 6.65865 15.283 6.61065C15.3092 6.61279 15.3218 6.40052 15.2725 6.39199L15.2736 6.39305ZM11.5713 6.45705C11.5943 6.45385 11.6258 6.46239 11.6551 6.47839C11.7002 6.50612 11.7284 6.54452 11.7232 6.57439V6.57865C11.7211 6.57865 11.7211 6.57865 11.7211 6.58079V6.58292C11.7211 6.58292 11.719 6.58292 11.719 6.58505C11.719 6.58719 11.7159 6.58932 11.7138 6.59145C11.6928 6.61279 11.6446 6.60852 11.5985 6.58079C11.5545 6.55625 11.5283 6.51679 11.5304 6.48905V6.48585L11.5357 6.47519C11.5357 6.47519 11.5357 6.47305 11.5378 6.47199L11.543 6.46559C11.5503 6.46025 11.5598 6.45492 11.5713 6.45492V6.45705ZM6.41911 6.56372C6.1153 6.57012 5.66797 6.97119 5.65644 7.19305L6.62025 6.72372C6.56787 6.64265 6.61711 6.57012 6.41911 6.56372ZM7.40701 6.70239C7.43635 6.70452 7.46778 6.71945 7.48454 6.76212C7.4992 6.80159 7.48454 6.84212 7.46673 6.86239V6.86559C7.45206 6.88265 7.40806 6.87625 7.37558 6.87625C7.33682 6.87412 7.31797 6.86772 7.29492 6.83572C7.28235 6.79839 7.31587 6.76319 7.33158 6.73759L7.33892 6.72692C7.34939 6.71625 7.37035 6.70772 7.3913 6.70559L7.40492 6.70345L7.40701 6.70239ZM15.1594 6.82719C15.1039 6.83359 15.0525 6.88585 15.0756 6.96905C15.0609 7.01812 15.1489 7.18985 15.173 7.28052C15.194 7.34452 15.1458 7.52905 15.1887 7.54719C15.2285 7.56852 15.3323 7.44052 15.3291 7.27625C15.3396 7.19092 15.2998 6.88159 15.1961 6.83039C15.1835 6.82719 15.1709 6.82612 15.1583 6.82719H15.1594ZM8.57616 7.13012C8.52797 7.13332 8.48501 7.15892 8.50492 7.22825C8.50178 7.27732 8.64111 7.33812 8.64844 7.45225C8.6673 7.50132 8.61701 7.65492 8.65892 7.66772C8.69663 7.68372 8.74901 7.56105 8.76892 7.45012C8.77939 7.38825 8.72073 7.17279 8.62225 7.13332C8.60654 7.12905 8.59082 7.12799 8.57511 7.12905L8.57616 7.13012ZM10.5457 7.40319H10.5583C10.6819 7.43732 10.8621 7.44159 11.0192 7.45652C11.1481 7.46719 11.2109 7.56745 11.0925 7.61119C10.9731 7.65172 10.8589 7.68585 10.8589 7.85865C10.8736 7.94399 10.8694 7.98879 10.8568 8.00799C10.8568 8.01119 10.8537 8.01332 10.8526 8.01439C10.8526 8.01439 10.8526 8.01652 10.8505 8.01652V8.01865H10.8474L10.8401 8.02185H10.8348C10.8065 8.02719 10.7657 8.00052 10.7353 7.98345C10.662 7.93012 10.4577 7.80212 10.4283 7.52479C10.4242 7.46079 10.4703 7.40745 10.5436 7.40212L10.5457 7.40319ZM5.73292 7.61652C5.72558 7.61652 5.71197 7.63999 5.69101 7.66665C5.50873 7.95999 5.49197 8.39839 5.59254 8.53065C5.64492 8.59145 5.73292 8.61919 5.79787 8.59999C5.91311 8.54985 5.96235 8.31412 5.93406 8.22879C5.89739 8.16799 5.86701 8.15839 5.8293 8.20959C5.74863 8.37492 5.71406 8.26079 5.70882 8.16692C5.69625 7.99305 5.71301 7.83092 5.73187 7.70292C5.74235 7.63892 5.74235 7.61439 5.73187 7.61439L5.73292 7.61652ZM11.9107 8.00265C11.8971 8.00265 11.8835 8.00479 11.8688 8.01332C11.8657 8.01332 11.7389 8.09865 11.6981 8.16052C11.6729 8.17972 11.6771 8.19572 11.6834 8.22985C11.7023 8.27572 11.7358 8.26185 11.7756 8.24052C11.828 8.23199 11.8521 8.26719 11.8489 8.33012C11.8248 8.41012 11.8594 8.43892 11.8594 8.44425C11.8594 8.44852 11.9086 8.49225 11.9673 8.45812C12.0899 8.41012 12.1663 8.36212 12.3392 8.32479C12.3843 8.32479 12.3811 8.20105 12.3099 8.19679C12.2156 8.20105 12.1318 8.20745 12.0375 8.28212C11.9799 8.29492 11.9704 8.25865 11.9568 8.22665C11.9422 8.14772 11.9903 8.09225 11.9799 8.03252C11.982 8.03572 11.9505 8.00692 11.9097 8.00479L11.9107 8.00265ZM15.8665 8.15199L15.7827 8.16052C15.745 8.16799 15.7324 8.18505 15.7251 8.23199C15.7283 8.30132 15.7702 8.29812 15.8142 8.32585C15.8393 8.35785 15.8561 8.38772 15.8121 8.44319C15.7702 8.48052 15.7419 8.50185 15.7 8.53919C15.6822 8.57332 15.6685 8.62452 15.7293 8.64159C15.8393 8.67359 16.0939 8.50505 16.0939 8.50292C16.1358 8.47092 16.1211 8.41012 16.118 8.41012C16.0928 8.38239 16.0383 8.39945 16.0027 8.39412C15.9849 8.39412 15.9294 8.38559 15.9545 8.33439C15.9776 8.30239 15.986 8.28425 16.0017 8.24479C16.0174 8.20639 16.0017 8.18079 15.9409 8.15945C15.9095 8.15305 15.8885 8.15092 15.8644 8.15199H15.8665ZM14.3443 12.2693C14.6272 12.2832 14.8912 12.2725 15.172 12.2864C15.2181 12.3248 15.1961 12.4144 15.1667 12.4293L15.1615 12.4315H15.1583H15.1542L14.9174 12.4251V12.4112C14.8943 12.3451 14.7372 12.3493 14.6995 12.4005V12.4037C14.6974 12.4037 14.6963 12.4069 14.6963 12.408L14.6943 12.4133V12.4261C14.5685 12.4421 14.4585 12.4219 14.3349 12.4176C14.2983 12.3717 14.3035 12.2896 14.3454 12.2683L14.3443 12.2693Z" fill="white"/>
</g>
</svg>
