<svg width="23" height="17" viewBox="0 0 23 17" fill="none" xmlns="http://www.w3.org/2000/svg">
<g id="artwork">
<g clip-path="url(#clip0_2154_21002)">
<rect x="0.613281" y="0.307617" width="22" height="16" rx="2" fill="white"/>
<path id="vector" fill-rule="evenodd" clip-rule="evenodd" d="M0.613281 0.307617H10.0419V7.77428H0.613281V0.307617Z" fill="#1A47B8"/>
<path id="vector_2" fill-rule="evenodd" clip-rule="evenodd" d="M10.0419 0.307617V1.37428H22.6133V0.307617H10.0419ZM10.0419 2.44095V3.50762H22.6133V2.44095H10.0419ZM10.0419 4.57428V5.64095H22.6133V4.57428H10.0419ZM10.0419 6.70762V7.77428H22.6133V6.70762H10.0419ZM0.613281 8.84095V9.90762H22.6133V8.84095H0.613281ZM0.613281 10.9743V12.041H22.6133V10.9743H0.613281ZM0.613281 13.1076V14.1743H22.6133V13.1076H0.613281ZM0.613281 15.241V16.3076H22.6133V15.241H0.613281Z" fill="#F93939"/>
<path id="vector_3" fill-rule="evenodd" clip-rule="evenodd" d="M1.66016 1.37451V2.44118H2.70778V1.37451H1.66016ZM3.75539 1.37451V2.44118H4.80301V1.37451H3.75539ZM5.85063 1.37451V2.44118H6.89825V1.37451H5.85063ZM7.94587 1.37451V2.44118H8.99349V1.37451H7.94587ZM6.89825 2.44118V3.50785H7.94587V2.44118H6.89825ZM4.80301 2.44118V3.50785H5.85063V2.44118H4.80301ZM2.70778 2.44118V3.50785H3.75539V2.44118H2.70778ZM1.66016 3.50785V4.57451H2.70778V3.50785H1.66016ZM3.75539 3.50785V4.57451H4.80301V3.50785H3.75539ZM5.85063 3.50785V4.57451H6.89825V3.50785H5.85063ZM7.94587 3.50785V4.57451H8.99349V3.50785H7.94587ZM1.66016 5.64118V6.70785H2.70778V5.64118H1.66016ZM3.75539 5.64118V6.70785H4.80301V5.64118H3.75539ZM5.85063 5.64118V6.70785H6.89825V5.64118H5.85063ZM7.94587 5.64118V6.70785H8.99349V5.64118H7.94587ZM6.89825 4.57451V5.64118H7.94587V4.57451H6.89825ZM4.80301 4.57451V5.64118H5.85063V4.57451H4.80301ZM2.70778 4.57451V5.64118H3.75539V4.57451H2.70778Z" fill="white"/>
</g>
</g>
<defs>
<clipPath id="clip0_2154_21002">
<rect x="0.613281" y="0.307617" width="22" height="16" rx="2" fill="white"/>
</clipPath>
</defs>
</svg>
