<svg viewBox="0 0 196.56 77.146" height="77.146" width="196.56" xmlns:xlink="http://www.w3.org/1999/xlink" xmlns="http://www.w3.org/2000/svg" data-name="Raggruppa 2" id="Raggruppa_2">
	<defs>
		<clipPath id="clip-path">
			<rect fill="none" height="77.146" width="196.56" data-name="Rettangolo 1" id="Rettangolo_1">
			</rect>
		</clipPath>
	</defs>
	<g clip-path="url(#clip-path)" data-name="Raggruppa 1" id="Raggruppa_1">
		<path fill="#161615" d="M137.671,20.808a16.527,16.527,0,0,0-10.661-3.9,15.745,15.745,0,0,0-12.155,5.276l-.431.516,0-4.653H103.845v.186l-.308-.08a30.251,30.251,0,0,0-7.755-1.191h-.138c-6.926.046-10.879,1.1-13.758,4.62A14.719,14.719,0,0,0,78.5,29.835h9.25a7.062,7.062,0,0,1,1.468-3.523c1.164-1.328,3.124-1.962,5.793-1.962a10.059,10.059,0,0,1,5.194,1.244,3.723,3.723,0,0,1-.175,6.887,8.509,8.509,0,0,1-2.084.427c-.86.105-1.869.193-2.9.319l-3.8.449a27.807,27.807,0,0,0-9.807,2.813A11.159,11.159,0,0,0,75.746,48.1c.715,3.943,3.509,10.227,14.1,10.472.228.008.461.011.7.011,2.869,0,6.419-.5,11.248-4.278l.154.195a.229.229,0,0,1,.147-.081c.046,0,.1.027.142.127l.16.385.5,1.215.906,2.211h10.62l0-22.634c-.143-4.991,2.918-9.467,7.55-10.533a8.1,8.1,0,0,1,1.808-.2c3.572,0,7.022,2.308,9.086,5.287a17.1,17.1,0,0,1,4.813-9.466M102.294,41.879c-.078,3.583-.84,5.358-2.787,6.694A11.768,11.768,0,0,1,92.8,50.595h-.02c-3.95-.006-6.039-2.391-6.283-4.024-.4-2.7.863-3.906,2.589-4.881a22.06,22.06,0,0,1,5.731-1.578l2.507-.45a19.674,19.674,0,0,0,2.94-.714,11.993,11.993,0,0,0,2.035-1.051ZM76.323,40.044l.015-.025-.022.081ZM78.71,55.851a15.056,15.056,0,0,1-9.106,2.9c-3.157,0-6.8-.491-11.032-4.8V77.146H47.755v-59.1H58.573v3.7c3.707-4.862,7.7-5.388,11.443-5.388a15.3,15.3,0,0,1,11.12,4.561c-.039.046-.086.107-.127.151a15.586,15.586,0,0,0-3.582,8.978l-.009.685h9.144a25.453,25.453,0,0,1,.669,2.84,24.7,24.7,0,0,0-6.428,2.21,12.4,12.4,0,0,0-4.465,4.242,11.1,11.1,0,0,0,.3-3.1,16.639,16.639,0,0,0-2.218-8.092c-1.418-2.356-3.8-3.557-7.014-3.56a7.919,7.919,0,0,0-7.955,5.358,19.852,19.852,0,0,0-1.121,7.218q0,6.927,3.771,9.729a8.676,8.676,0,0,0,5.257,1.768c2.964,0,4.991-.624,6.956-3.994.117-.2.219-.52.339-.717a16.562,16.562,0,0,0,.046,3.612,12.843,12.843,0,0,0,4.007,7.6M195.7,27.47a8.993,8.993,0,0,0-.674-2.058c-3.2-7.279-11.91-7.3-11.921-7.3-.366-.019-.72-.03-1.068-.03a12.941,12.941,0,0,0-8.11,2.451,9.456,9.456,0,0,0-1.873,1.892,5.376,5.376,0,0,0-.537.855l-.469-.1V0h-10.82l-.007,18.972-.31-.081a31.618,31.618,0,0,0-7.934-1.228h-.127c-6.936.046-11.8,1.469-14.6,5.236a15.723,15.723,0,0,0-3.4,8.278h9.5a7.9,7.9,0,0,1,1.952-4.4,8.512,8.512,0,0,1,5.946-2.026,10.758,10.758,0,0,1,5.367,1.342,3.93,3.93,0,0,1,2.225,3.7c0,1.526-.724,2.524-3.171,3.39a13.961,13.961,0,0,1-2.321.491c-.921.134-1.961.255-3,.381l-3.792.449a24.656,24.656,0,0,0-8.776,2.985c-3.939,2.3-6.626,6.159-5.651,11.794.677,3.933,4.165,9.728,13.955,9.79h.157a20.64,20.64,0,0,0,12.025-3.563l.144.2s.065-.1.15-.1c.041,0,.09.028.135.105l.184.331.542,1,.541,1,.174.332,10.4-.008.017-21.3a12.353,12.353,0,0,1,.283-3.326,9.043,9.043,0,0,1,3.422-5.581,7.321,7.321,0,0,1,4.324-1.183,11.536,11.536,0,0,1,2.105.2c.4.042,4.626.668,4.877,7.694V58.377h10.819V34.789a32.737,32.737,0,0,0-.688-7.319M159.127,41.9c-.079,3.628-.857,5.508-2.9,6.906a12.02,12.02,0,0,1-6.864,2.071h-.017c-4.054-.008-6.273-2.464-6.536-4.243-.421-2.839.938-4.135,2.713-5.142a22.439,22.439,0,0,1,5.817-1.607l2.512-.451a18.708,18.708,0,0,0,2.906-.7,11.734,11.734,0,0,0,2-1.033l.374-.223Zm34.521-24.425.43,0,.711,1.1h.381l-.7-1.121a.613.613,0,0,0,.66-.676.7.7,0,0,0-.775-.693H193.29v2.49h.359Zm0-1.1h.268c.067,0,.145-.007.23-.007.272,0,.579.042.579.394s-.28.406-.533.406c-.1,0-.2-.008-.275-.008h-.27Zm.526,3.4a2.386,2.386,0,1,0-2.384-2.387,2.385,2.385,0,0,0,2.384,2.387m-1.462-3.851a2.066,2.066,0,1,1-.609,1.463,2.08,2.08,0,0,1,.609-1.463m-176.2,6.285a7.255,7.255,0,0,1,10.26,10.259s-1.92,1.768-2.632,2.345a5.086,5.086,0,0,1-5.28,0,30.688,30.688,0,0,1-2.348-2.348A7.285,7.285,0,0,1,16.513,22.213ZM26.737,54.167a7.255,7.255,0,0,1-10.26-10.26s1.92-1.768,2.633-2.345a5.086,5.086,0,0,1,5.28,0,30.679,30.679,0,0,1,2.347,2.347A7.285,7.285,0,0,1,26.737,54.167ZM5.648,43.3a7.255,7.255,0,1,1,10.259-10.26s1.768,1.92,2.345,2.633a5.086,5.086,0,0,1,0,5.28A30.734,30.734,0,0,1,15.907,43.3,7.285,7.285,0,0,1,5.648,43.3ZM37.6,33.078a7.255,7.255,0,0,1-10.259,10.26S25.574,41.417,25,40.705a5.086,5.086,0,0,1,0-5.28,30.688,30.688,0,0,1,2.348-2.348,7.285,7.285,0,0,1,10.259,0m2.75-2.209a10.48,10.48,0,0,0-8.4-2.983,10.327,10.327,0,0,0-2.983-8.4,10.186,10.186,0,0,0-7.344-2.9,10.3,10.3,0,0,0-7.344,2.9,10.481,10.481,0,0,0-2.983,8.4,10.328,10.328,0,0,0-8.4,2.983A10.187,10.187,0,0,0,0,38.213a10.224,10.224,0,0,0,2.9,7.344,10.433,10.433,0,0,0,7.344,3.03,8.065,8.065,0,0,0,1.056-.092,10.327,10.327,0,0,0,2.983,8.4,10.186,10.186,0,0,0,7.344,2.9,10.223,10.223,0,0,0,7.344-2.9,10.48,10.48,0,0,0,2.983-8.4,8.273,8.273,0,0,0,1.056.092,10.354,10.354,0,0,0,7.344-3.03,10.187,10.187,0,0,0,2.9-7.344A10.306,10.306,0,0,0,40.352,30.869Z" data-name="Tracciato 1" id="Tracciato_1">
		</path>
	</g>
</svg>
