<svg viewBox="0 0 162 41" fill="none" xmlns="http://www.w3.org/2000/svg">
	<path d="M41.3719 10.3027C34.0087 10.3027 28.0386 16.2729 28.0386 23.6361C28.0386 30.9993 34.0087 36.9694 41.3719 36.9694C48.7351 36.9694 54.7052 30.9993 54.7052 23.6361C54.7052 16.2729 48.7351 10.3027 41.3719 10.3027ZM41.3719 30.304C37.6891 30.304 34.7065 27.3189 34.7065 23.6361C34.7065 19.9532 37.6916 16.9681 41.3719 16.9681C45.0522 16.9681 48.0373 19.9532 48.0373 23.6361C48.0373 27.3189 45.0522 30.304 41.3719 30.304Z" fill="currentColor">
	</path>
	<path d="M114.706 11.6378L116.039 10.3027H106.706L108.018 11.6152V35.6595L106.706 36.9719H108.018H114.706H116.039L114.706 35.6368V11.6378Z" fill="currentColor">
	</path>
	<path d="M66.7065 30.9715L67.3716 30.304H77.3722L78.7048 28.9714V36.9694H58.7061L60.0386 35.6393V11.6378L58.7061 10.3027H68.0391L66.7065 11.6378V30.9715Z" fill="currentColor">
	</path>
	<path d="M148.039 36.9719L146.706 35.6368V11.6378L148.039 10.3027L138.706 10.3053L140.018 11.6152V25.6085L140.686 26.2735H140.018L128.02 10.3027H120.04L121.372 11.6378V35.6368L120.04 36.9719H129.373L128.02 35.6368V21.6385L127.352 20.9709H128.02L140.048 36.9719H148.039Z" fill="currentColor">
	</path>
	<path d="M10.7086 0.972168H0.0429688L1.37807 2.30727V39.6396L0.0429688 40.9722H9.37605L8.04347 39.6396V27.6388H10.7111C18.0743 27.6388 24.0445 21.6712 24.0445 14.308C24.0445 6.94484 18.0743 0.974688 10.7111 0.974688M10.7111 20.9759H8.71102L8.046 21.641V6.97507L8.71102 7.64261H10.7111C14.394 7.64261 17.3766 10.6277 17.3766 14.3105C17.3766 17.9934 14.3915 20.9785 10.7111 20.9785" fill="currentColor">
	</path>
	<path d="M90.7041 30.9715L91.3692 30.3039L101.37 30.3014L102.702 28.9713V36.9693H82.7036L84.0387 35.6367V11.6378L82.7036 10.3052H92.0367L90.7041 11.6378V30.9715Z" fill="currentColor">
	</path>
	<path d="M160.062 11.6378L161.392 10.3027H152.061L153.373 11.6152V35.6595L152.061 36.9719H153.373H160.062H161.394L160.062 35.6368V11.6378Z" fill="currentColor">
	</path>
</svg>
